<svg width="12" height="20" viewBox="0 0 12 20" fill="none" xmlns="http://www.w3.org/2000/svg">
<path d="M4.8 15C4.64087 15 4.48826 15.0658 4.37574 15.1831C4.26321 15.3003 4.2 15.4592 4.2 15.625C4.2 15.7908 4.26321 15.9497 4.37574 16.0669C4.48826 16.1842 4.64087 16.25 4.8 16.25H7.2C7.35913 16.25 7.51174 16.1842 7.62426 16.0669C7.73679 15.9497 7.8 15.7908 7.8 15.625C7.8 15.4592 7.73679 15.3003 7.62426 15.1831C7.51174 15.0658 7.35913 15 7.2 15H4.8ZM2.4 0C1.76348 0 1.15303 0.263392 0.702944 0.732233C0.252856 1.20107 0 1.83696 0 2.5V17.5C0 18.163 0.252856 18.7989 0.702944 19.2678C1.15303 19.7366 1.76348 20 2.4 20H9.6C10.2365 20 10.847 19.7366 11.2971 19.2678C11.7471 18.7989 12 18.163 12 17.5V2.5C12 1.83696 11.7471 1.20107 11.2971 0.732233C10.847 0.263392 10.2365 0 9.6 0H2.4ZM1.2 2.5C1.2 2.16848 1.32643 1.85054 1.55147 1.61612C1.77652 1.3817 2.08174 1.25 2.4 1.25H9.6C9.91826 1.25 10.2235 1.3817 10.4485 1.61612C10.6736 1.85054 10.8 2.16848 10.8 2.5V17.5C10.8 17.8315 10.6736 18.1495 10.4485 18.3839C10.2235 18.6183 9.91826 18.75 9.6 18.75H2.4C2.08174 18.75 1.77652 18.6183 1.55147 18.3839C1.32643 18.1495 1.2 17.8315 1.2 17.5V2.5Z" fill="white"/>
</svg>
