<svg width="27" height="14" viewBox="0 0 27 14" fill="none" xmlns="http://www.w3.org/2000/svg">
<path d="M21.5658 7.90929L26.7973 0H18.7742L18.6244 0.580364C18.24 2.07032 17.5185 4.08965 16.2649 5.24877C16.1099 5.3919 15.9631 5.50693 15.828 5.59908V0H8.84018V1.54697H9.49301V5.05304C8.70969 4.36407 7.72542 3.04937 7.46766 0.689571L7.39238 0H0.500488L0.737171 0.958775C1.58814 4.40683 2.8647 7.23156 4.53172 9.35448C5.89259 11.0877 7.51343 12.3603 9.34907 13.1366C10.9884 13.83 12.4978 14 13.5839 14C14.5828 14 15.2234 13.8561 15.2772 13.8436L15.8664 13.7063L15.8969 11.5812L18.5209 13.8639H26.8132L21.5658 7.90929ZM14.3975 8.22667L14.3377 12.4175C13.4738 12.4944 11.7625 12.4974 9.87383 11.6785C8.29655 10.9946 6.89553 9.87462 5.70971 8.34953C4.35164 6.60302 3.27122 4.3179 2.49191 1.54697H6.02649C6.79154 5.98391 9.86961 7.13199 10.0067 7.18077L11.04 7.54935V1.54697H14.2813V7.55698L15.0951 7.51442C15.1941 7.5092 16.0928 7.43753 17.1542 6.52794C18.3601 5.49429 19.3038 3.82044 19.9634 1.54697H23.9194L19.6222 8.04339L23.388 12.3167H19.0994L14.3975 8.22667Z" fill="white"/>
</svg>
