<svg width="21" height="14" viewBox="0 0 21 14" fill="none" xmlns="http://www.w3.org/2000/svg">
<path d="M19.5473 0.958546C18.9307 0.340407 18.1101 0 17.2369 0H3.62988C1.8303 0 0.366211 1.46409 0.366211 3.26367V10.7363C0.366211 12.5359 1.8303 14 3.62988 14H17.2197C19.0152 14 20.4793 12.5393 20.4834 10.7439L20.5006 3.27119C20.5026 2.39806 20.164 1.57669 19.5473 0.958546ZM19.3033 10.7411C19.3007 11.8874 18.366 12.8198 17.2197 12.8198H3.62988C2.481 12.8198 1.54627 11.8852 1.54627 10.7363V3.26367C1.54627 2.11479 2.481 1.18021 3.62988 1.18021H17.2369C17.7944 1.18021 18.3182 1.39742 18.7119 1.79205C19.1056 2.18668 19.3218 2.71112 19.3206 3.26843L19.3033 10.7411Z" fill="#FFFFFF"/>
<path d="M7.97754 11.0462L14.1129 7L7.97754 2.95367V11.0462ZM9.1576 5.14573L11.9693 7L9.1576 8.85426V5.14573Z" fill="#FFFFFF"/>
</svg>
