<svg width="19" height="18" viewBox="0 0 19 18" fill="none" xmlns="http://www.w3.org/2000/svg">
<path d="M14.5694 18H4.44821C2.27608 18 0.508789 16.2327 0.508789 14.0606V3.93942C0.508789 1.76729 2.27608 0 4.44821 0H14.5694C16.7415 0 18.5088 1.76729 18.5088 3.93942V14.0606C18.5088 16.2327 16.7415 18 14.5694 18ZM4.44821 1.05469C2.85753 1.05469 1.56348 2.34874 1.56348 3.93942V14.0606C1.56348 15.6513 2.85753 16.9453 4.44821 16.9453H14.5694C16.16 16.9453 17.4541 15.6513 17.4541 14.0606V3.93942C17.4541 2.34874 16.16 1.05469 14.5694 1.05469H4.44821Z" fill="white"/>
<path d="M9.50858 14.4275C6.5159 14.4275 4.08105 11.9927 4.08105 9C4.08105 6.00732 6.5159 3.57248 9.50858 3.57248C12.5013 3.57248 14.9361 6.00732 14.9361 9C14.9361 11.9927 12.5013 14.4275 9.50858 14.4275ZM9.50858 4.62717C7.09735 4.62717 5.13574 6.58878 5.13574 9C5.13574 11.4112 7.09735 13.3728 9.50858 13.3728C11.9198 13.3728 13.8814 11.4112 13.8814 9C13.8814 6.58878 11.9198 4.62717 9.50858 4.62717Z" fill="white"/>
<path d="M15.0611 4.14227C14.9426 4.14227 14.8226 4.11219 14.7127 4.04875C14.5509 3.95536 14.4353 3.80457 14.3869 3.62426C14.3386 3.44381 14.3633 3.25526 14.4567 3.09348C14.5501 2.93185 14.7009 2.81621 14.8813 2.76787C15.0616 2.7194 15.2501 2.74425 15.4118 2.83764C15.5736 2.93102 15.6894 3.08181 15.7377 3.26226C15.7861 3.44257 15.7612 3.63099 15.6678 3.79276C15.5384 4.01688 15.3029 4.14227 15.0611 4.14227Z" fill="white"/>
</svg>
