<svg width="18" height="15" viewBox="0 0 18 15" fill="none" xmlns="http://www.w3.org/2000/svg">
<path d="M4.50022 14.48C3.24689 14.48 2.30022 14.0267 1.66022 13.12C1.04689 12.1867 0.740222 10.8933 0.740222 9.24C0.740222 7.34667 1.20689 5.68 2.14022 4.24C3.07356 2.8 4.50022 1.61333 6.42022 0.679999L7.70022 3.24C6.50022 3.85333 5.59356 4.56 4.98022 5.36C4.39356 6.13333 4.10022 7.12 4.10022 8.32C4.18022 8.29333 4.31356 8.28 4.50022 8.28C5.35356 8.28 6.07356 8.54667 6.66022 9.08C7.27356 9.58667 7.58022 10.2933 7.58022 11.2C7.58022 12.2133 7.28689 13.0133 6.70022 13.6C6.11356 14.1867 5.38022 14.48 4.50022 14.48ZM13.9402 14.48C12.6869 14.48 11.7402 14.0267 11.1002 13.12C10.4869 12.1867 10.1802 10.8933 10.1802 9.24C10.1802 7.34667 10.6469 5.68 11.5802 4.24C12.5136 2.8 13.9402 1.61333 15.8602 0.679999L17.1402 3.24C15.9402 3.85333 15.0336 4.56 14.4202 5.36C13.8336 6.13333 13.5402 7.12 13.5402 8.32C13.6202 8.29333 13.7536 8.28 13.9402 8.28C14.7936 8.28 15.5136 8.54667 16.1002 9.08C16.7136 9.58667 17.0202 10.2933 17.0202 11.2C17.0202 12.2133 16.7269 13.0133 16.1402 13.6C15.5536 14.1867 14.8202 14.48 13.9402 14.48Z" fill="white"/>
</svg>
