<svg width="30" height="30" viewBox="0 0 30 30" fill="none" xmlns="http://www.w3.org/2000/svg">
<g clip-path="url(#clip0_107_7)">
<path d="M15 6C13.9122 6 12.8488 6.32257 11.9444 6.92692C11.0399 7.53126 10.3349 8.39025 9.91866 9.39524C9.50238 10.4002 9.39346 11.5061 9.60568 12.573C9.8179 13.6399 10.3417 14.6199 11.1109 15.3891C11.8801 16.1583 12.8601 16.6821 13.927 16.8943C14.9939 17.1065 16.0998 16.9976 17.1048 16.5813C18.1098 16.1651 18.9687 15.4601 19.5731 14.5556C20.1774 13.6512 20.5 12.5878 20.5 11.5C20.5 10.0413 19.9205 8.64236 18.8891 7.61091C17.8576 6.57946 16.4587 6 15 6ZM15 14.8C14.3473 14.8 13.7093 14.6065 13.1666 14.2438C12.6239 13.8812 12.201 13.3658 11.9512 12.7629C11.7014 12.1599 11.6361 11.4963 11.7634 10.8562C11.8907 10.2161 12.205 9.62806 12.6665 9.16655C13.1281 8.70503 13.7161 8.39074 14.3562 8.26341C14.9963 8.13608 15.6599 8.20143 16.2629 8.4512C16.8659 8.70097 17.3812 9.12393 17.7439 9.66662C18.1065 10.2093 18.3 10.8473 18.3 11.5C18.2991 12.3749 17.9512 13.2138 17.3325 13.8325C16.7138 14.4512 15.8749 14.7991 15 14.8Z" fill="white"/>
<path d="M15 0C12.0333 0 9.13319 0.879735 6.66645 2.52796C4.19971 4.17618 2.27713 6.51886 1.14181 9.25975C0.00649925 12.0006 -0.290551 15.0166 0.288227 17.9263C0.867006 20.8361 2.29562 23.5088 4.3934 25.6066C6.49119 27.7044 9.16394 29.133 12.0736 29.7118C14.9834 30.2905 17.9994 29.9935 20.7403 28.8582C23.4811 27.7229 25.8238 25.8003 27.472 23.3335C29.1203 20.8668 30 17.9667 30 15C29.9955 11.0231 28.4137 7.21047 25.6016 4.39841C22.7895 1.58635 18.9769 0.0045372 15 0V0ZM8.57143 26.1182V24.6429C8.57228 23.7906 8.9112 22.9736 9.51382 22.3709C10.1164 21.7683 10.9335 21.4294 11.7857 21.4286H18.2143C19.0665 21.4294 19.8836 21.7683 20.4862 22.3709C21.0888 22.9736 21.4277 23.7906 21.4286 24.6429V26.1182C19.4777 27.2574 17.2591 27.8577 15 27.8577C12.7409 27.8577 10.5223 27.2574 8.57143 26.1182V26.1182ZM23.5629 24.5636C23.5415 23.1582 22.9689 21.8175 21.9685 20.8303C20.968 19.843 19.6198 19.2884 18.2143 19.2857H11.7857C10.3802 19.2884 9.03197 19.843 8.03153 20.8303C7.03108 21.8175 6.4585 23.1582 6.43715 24.5636C4.49418 22.8287 3.124 20.5445 2.50804 18.0136C1.89208 15.4826 2.0594 12.8243 2.98783 10.3906C3.91627 7.95683 5.56203 5.8625 7.70719 4.38489C9.85235 2.90728 12.3957 2.1161 15.0005 2.1161C17.6054 2.1161 20.1487 2.90728 22.2939 4.38489C24.4391 5.8625 26.0848 7.95683 27.0132 10.3906C27.9417 12.8243 28.109 15.4826 27.493 18.0136C26.8771 20.5445 25.5069 22.8287 23.5639 24.5636H23.5629Z" fill="white"/>
</g>
<defs>
<clipPath id="clip0_107_7">
<rect width="30" height="30" fill="white"/>
</clipPath>
</defs>
</svg>
