<svg width="30" height="30" fill="none" xmlns="http://www.w3.org/2000/svg"><path d="M15 .001C6.73.001 0 6.729 0 15s6.73 15 15 15 15-6.729 15-15S23.27.001 15 .001zM15 29C7.28 29 1 22.72 1 15S7.28 1 15 1s14 6.28 14 14-6.28 14-14 14z" fill="#fff"/><path d="M18.274 6.58h-2.496c-3.179-.031-3.585 1.936-3.585 4.065v1.549H10.79a.416.416 0 00-.467.467v2.807a.416.416 0 00.467.467h1.403v7.016a.42.42 0 00.471.468h2.858c.276.032.5-.192.411-.468l.002-7.016h2.339a.417.417 0 00.468-.467V12.66a.416.416 0 00-.468-.467h-2.342l.003-1.404c.091-.597.091-.5.646-.467h1.673c.13-.03.269-.013.366-.108a.376.376 0 00.12-.36V7.049a.416.416 0 00-.466-.468zm-.5 2.755L16.6 9.29c-1.452 0-1.574.789-1.574 1.596l-.004 1.773a.5.5 0 00.5.5h2.284v1.808h-2.282a.5.5 0 00-.5.5l-.002 7.017H13.13v-7.016c0-.276-.188-.5-.465-.5h-1.406v-1.807h1.406a.499.499 0 00.354-.146c.093-.095.11-.222.11-.355v-2.015c0-2.098.424-3.097 2.65-3.097h1.995v1.787z" fill="#fff"/></svg>