<?xml version="1.0" encoding="utf-8"?><svg viewBox="0 0 1004.722 479.016" xmlns="http://www.w3.org/2000/svg" xmlns:xlink="http://www.w3.org/1999/xlink"><style>:root>svg{display:none}:root>svg:target{display:block}</style><svg viewBox="0 0 1004.722 420.718" id="01" xmlns="http://www.w3.org/2000/svg"><path d="M757.098 180.944V102.6c0-7.812 6.355-14.166 14.166-14.166h51.252c7.811 0 14.166 6.354 14.166 14.166v78.344c0 7.811-6.355 14.166-14.166 14.166h-51.252c-7.811 0-14.166-6.355-14.166-14.166z" fill="#6c63ff"/><path fill="#3f3d56" d="M810.436 122.3h-27.092v-6.774h27.092zm-6.773-11.854h-13.546V88.433h13.546zm0 84.664h-13.546v-22.013h13.546z"/><path d="M720.692 184.11h-78.344c-7.811 0-14.166-6.355-14.166-14.166v-51.252c0-7.811 6.355-14.166 14.166-14.166h78.344c7.812 0 14.167 6.355 14.167 14.166v51.252c0 7.811-6.355 14.166-14.167 14.166z" fill="#6c63ff"/><path fill="#3f3d56" d="M669.667 115.532h27.092v6.773h-27.092zm-19.473 22.013v13.546h-22.013v-13.546zm84.664 0v13.546h-22.013v-13.546z"/><path d="m85.182 330.61-13.079-76.293c-5.811-33.9 19.28-65.271 53.63-67.05l186.45-9.657 44.497-73.34a32.54 32.54 0 0 1 27.82-15.66h133.969c10.53 0 19.428 7.81 20.794 18.25l3.403 58.684 334 1 42.016 138.468-39-1.902 2 42-51 2-17.001-48.072c-3.201-9.052-17.23-19.258-31.81-27.798-32.687-19.143-74.682-12.999-99.419 15.69-5.835 6.767-9.915 13.819-11.055 20.43l-7.715 44.75-374-6-49.016-68.566c-14.482-15.76-82.844-21.548-89 0l-36.984 54.566-29.5-1.5z" fill="#e6e6e6"/><path d="m491.679 133.236 11.003 51.874-140 3 29.569-63.485a15.704 15.704 0 0 1 14.917-9.059l67.087 2.917a18.639 18.639 0 0 1 17.424 14.753zM343.682 184.11l28-72-7.33-7.33-45.67 69.33 9.28 14 15.72-4z" fill="#fff"/><circle cx="744.682" cy="352.11" r="66" fill="#3f3d56"/><path d="M699.182 352.11c0-25.089 20.411-45.5 45.5-45.5s45.5 20.411 45.5 45.5-20.411 45.5-45.5 45.5-45.5-20.411-45.5-45.5zm1 0c0 24.537 19.962 44.5 44.5 44.5s44.5-19.963 44.5-44.5-19.962-44.5-44.5-44.5-44.5 19.963-44.5 44.5z" fill="#fff"/><path d="M705.682 352.11c0 21.54 17.46 39 39 39s39-17.46 39-39c0-21.539-17.46-39-39-39s-39 17.461-39 39zm64.351-9.34-6.91 4.504-2.654-4.073 9.564-.43zm-10.52 22.905 1.84-4.5 5.795 7.622-7.634-3.122zM741.82 381.11l4.862-8.248v8.248h-4.862zm0-47.752 4.862-8.248v8.248h-4.862zm-21.604 35.439 5.794-7.622 1.84 4.5-7.634 3.122zm-2.885-26.026 9.565.43-2.655 4.073-6.91-4.503z" fill="#e6e6e6"/><circle cx="190.682" cy="352.11" r="66" fill="#3f3d56"/><path d="M145.182 352.11c0-25.089 20.411-45.5 45.5-45.5s45.5 20.411 45.5 45.5-20.411 45.5-45.5 45.5-45.5-20.411-45.5-45.5zm1 0c0 24.537 19.962 44.5 44.5 44.5s44.5-19.963 44.5-44.5-19.962-44.5-44.5-44.5-44.5 19.963-44.5 44.5z" fill="#fff"/><path d="M151.682 352.11c0 21.54 17.46 39 39 39s39-17.46 39-39c0-21.539-17.46-39-39-39s-39 17.461-39 39zm64.351-9.34-6.91 4.504-2.654-4.073 9.564-.43zm-10.52 22.905 1.84-4.5 5.795 7.622-7.634-3.122zM187.82 381.11l4.862-8.248v8.248h-4.862zm0-47.752 4.862-8.248v8.248h-4.862zm-21.604 35.439 5.794-7.622 1.84 4.5-7.634 3.122zm-2.885-26.026 9.565.43-2.655 4.073-6.91-4.503z" fill="#e6e6e6"/><path fill="#3f3d56" d="M504.182 211.61h-38v-8h38z"/><g fill="#f2f2f2"><path d="M1001.788 368.654c-.354-1.083-3.039-.606-3.296-1.576-.257-.966 2.319-1.776 4.294-4.498.357-.49 2.602-3.584 1.74-4.885-1.632-2.467-12.988 3.676-15.713.229-.599-.756-.845-2.055-2.627-4.472-.709-.961-1.164-1.426-1.707-1.412-.771.02-1.047.984-2.26 2.732-1.817 2.62-2.473 2.291-3.67 4.439-.889 1.594-.994 2.612-1.635 2.672-.907.085-1.282-1.9-2.39-1.976-1.131-.079-2.263 1.882-2.824 3.414-1.053 2.875-.401 5.073-.257 7.263.157 2.38-.211 5.864-2.797 10.336l-24.392 38.862c5.238-7.923 20.108-29.526 26.099-37.45 1.73-2.288 3.588-4.585 6.449-5.017 2.754-.416 6.105.946 10.782.867.546-.01 2.066-.054 2.436-.86.306-.666-.453-1.245-.177-1.872.37-.84 2.037-.48 4.308-1.037 1.601-.393 2.69-1.043 3.625-1.602.282-.169 4.484-2.714 4.012-4.157z"/><path d="M937.902 377.728c-.634-.14-1.175 1.316-1.725 1.163-.548-.153-.202-1.65-.968-3.406-.139-.316-1.009-2.31-1.896-2.264-1.681.09-1.943 7.436-4.422 7.779-.543.075-1.252-.179-2.952-.001-.677.07-1.036.16-1.186.43-.213.384.181.798.69 1.897.76 1.649.41 1.876 1.119 3.083.525.896.995 1.242.84 1.573-.22.47-1.303.081-1.66.603-.365.533.27 1.654.86 2.371 1.108 1.347 2.375 1.66 3.491 2.222 1.214.61 2.817 1.796 4.266 4.355l12.036 23.185c-2.377-4.857-8.69-18.389-10.85-23.615-.624-1.51-1.215-3.084-.602-4.613.59-1.472 2.226-2.723 3.537-5.042.153-.27.57-1.03.28-1.444-.238-.342-.742-.137-.97-.453-.305-.424.353-1.138.735-2.413.269-.9.264-1.621.26-2.242-.002-.187-.039-2.983-.883-3.168zm12.008 5.657.378-3.493.232-.22c1.073-1.014 1.745-2.09 1.997-3.196.04-.175.07-.353.103-.534.125-.719.281-1.611.972-2.539.386-.516 1.408-1.684 2.463-1.276.284.106.476.29.61.486l.104-.104a3.841 3.841 0 0 1 1.08-.76c.237-.12.48-.245.892-.574.181-.145.326-.275.448-.384.37-.33.843-.717 1.491-.564.687.188.923.843 1.079 1.277.279.774.365 1.306.422 1.66.02.128.044.273.062.32.15.38 2.038.478 2.748.519 1.597.086 2.978.161 3.31 1.254.24.782-.258 1.636-1.519 2.603a5.7 5.7 0 0 1-1.127.664c.21.2.378.47.388.838.023.872-.871 1.542-2.659 1.993-.444.113-1.041.263-1.823.225a6.798 6.798 0 0 1-.966-.127 1.15 1.15 0 0 1-.251.474c-.398.456-1.04.571-1.913.315-.963-.269-1.723-.633-2.394-.954-.587-.28-1.092-.518-1.516-.583-.79-.11-1.525.376-2.405 1.025l-2.207 1.655zm6.296-19.895-3.475.52-.271-.169c-1.254-.781-2.464-1.158-3.598-1.121-.18.006-.36.02-.543.036-.727.06-1.63.136-2.702-.296-.598-.243-1.987-.936-1.86-2.059.031-.302.161-.535.316-.713l-.127-.075a3.842 3.842 0 0 1-1.01-.852 4.515 4.515 0 0 0-.78-.717c-.187-.138-.349-.245-.486-.336-.413-.274-.907-.633-.923-1.3.007-.711.581-1.105.961-1.367a8.416 8.416 0 0 1 1.498-.829 2.64 2.64 0 0 0 .295-.141c.329-.242-.055-2.093-.196-2.79-.321-1.566-.6-2.922.374-3.52.696-.43 1.647-.165 2.903.809.391.304.692.63.928.922.14-.254.359-.485.713-.588.837-.244 1.712.452 2.602 2.066.222.401.519.941.68 1.707a6.8 6.8 0 0 1 .122.966c.162 0 .339.032.522.124.542.269.817.861.79 1.77-.016.999-.176 1.827-.316 2.558-.121.638-.224 1.187-.18 1.614.094.791.752 1.38 1.602 2.067l2.16 1.714zm.468-10.434.378-3.493.232-.22c1.074-1.014 1.745-2.09 1.997-3.196.04-.175.071-.353.103-.535.126-.718.282-1.61.972-2.538.387-.516 1.409-1.684 2.463-1.276.285.106.477.29.61.486l.105-.104a3.841 3.841 0 0 1 1.08-.76c.236-.121.48-.245.892-.574.18-.145.325-.275.447-.384.37-.33.843-.717 1.492-.564.687.188.922.843 1.078 1.277.28.774.365 1.306.422 1.66.02.128.045.273.063.32.15.38 2.038.478 2.748.519 1.596.086 2.978.161 3.31 1.254.239.782-.258 1.635-1.52 2.603a5.7 5.7 0 0 1-1.127.664c.21.2.378.47.389.838.023.872-.872 1.542-2.66 1.993-.443.113-1.04.263-1.823.225a6.798 6.798 0 0 1-.965-.127 1.15 1.15 0 0 1-.252.474c-.398.456-1.04.571-1.912.315-.963-.269-1.724-.633-2.395-.954-.586-.28-1.092-.518-1.516-.583-.789-.11-1.524.376-2.405 1.025l-2.206 1.655z"/><path d="m945.407 419.98-.614-.606.011-.863-.011.863-.854-.09c.004-.08-.002-.269-.008-.562-.033-1.607-.135-6.497.546-14.011.476-5.245 1.27-10.57 2.362-15.828 1.093-5.266 2.228-9.184 3.14-12.334a397.533 397.533 0 0 1 2.06-6.822c1.808-5.864 3.516-11.402 4.573-17.72.237-1.41.729-4.346-.278-7.81-.583-2.01-1.583-3.902-2.972-5.62l1.344-1.086c1.533 1.9 2.638 3.994 3.287 6.225 1.115 3.842.58 7.04.323 8.578-1.077 6.429-2.802 12.02-4.628 17.94-.674 2.187-1.366 4.43-2.051 6.796-.903 3.12-2.028 7.004-3.107 12.203a138.917 138.917 0 0 0-2.334 15.633c-.672 7.42-.571 12.237-.538 13.82.017.845.02 1.022-.25 1.295z"/><path d="M949.675 340.564a3.072 3.072 0 0 1-.208-.053c-1.418-.398-2.555-1.553-3.381-3.433-.387-.885-.478-1.815-.66-3.671-.029-.287-.155-1.734 0-3.653.101-1.254.236-1.758.577-2.154.38-.44.89-.692 1.43-.82a.976.976 0 0 1 .176-.481c.444-.639 1.187-.377 1.59-.24.203.073.456.166.74.214.448.077.715-.002 1.12-.119.387-.112.868-.252 1.533-.24 1.312.018 2.283.608 2.604.802 1.687 1.014 2.269 2.63 2.943 4.503.134.375.578 1.732.682 3.479.075 1.26-.09 1.776-.28 2.145-.387.759-.979 1.11-2.449 1.85-1.536.775-2.306 1.163-2.938 1.362-1.47.461-2.393.751-3.48.509z"/></g><path d="M0 418.48c0 .66.925 1.19 2.078 1.19h991.77c1.152 0 2.078-.53 2.078-1.19 0-.66-.926-1.19-2.078-1.19H2.078c-1.153 0-2.078.53-2.078 1.19z" fill="#ccc"/><path fill="#ffb6b6" d="m503.94 410.967 13.885-.002 6.605-53.555-20.492.001.002 53.556z"/><path d="M551.511 410.652c.432.728.66 3.078.66 3.924a4.712 4.712 0 0 1-4.712 4.713h-43a3.215 3.215 0 0 1-3.214-3.215v-1.79s-2.127-5.38 2.252-12.012c0 0 5.443 5.192 13.576-2.94l2.399-4.346 17.36 12.697 9.624 1.185c2.105.26 3.972-.04 5.055 1.784z" fill="#2f2e41"/><path fill="#ffb6b6" d="m441.558 410.967 13.884-.002 6.606-53.555-20.493.001.003 53.556z"/><path d="M489.128 410.652c.433.728.66 3.078.66 3.924a4.712 4.712 0 0 1-4.712 4.713h-42.999a3.215 3.215 0 0 1-3.215-3.215v-1.79s-2.127-5.38 2.253-12.012c0 0 5.442 5.192 13.576-2.94l2.398-4.346 17.361 12.697 9.623 1.185c2.106.26 3.972-.04 5.055 1.784z" fill="#2f2e41"/><path fill="#ffb6b6" d="m501.741 45.276 2.636 24.601-30.752-2.636 5.272-22.844 22.844.879z"/><path opacity=".1" d="m501.741 45.276 2.636 24.601-30.752-2.636 5.272-22.844 22.844.879z"/><circle cx="490.759" cy="28.142" r="20.208" fill="#ffb6b6"/><path fill="#2f2e41" d="m503.938 59.773 33.827 19.769-11.083 53.596 7.569 72.048-5.272 176.604-32.51-3.514-4.392-150.246-25.48 155.517h-31.569l5.21-167.818 15.815-71.169-9.665-77.319 29.434-9.225 28.116 1.757zm1.318-25.92s1.757-6.15 5.711-5.71 4.832-3.076 3.954-4.833-2.636-10.544-2.636-10.544.879-6.15-4.393-7.029c-5.272-.878-7.03-1.757-7.908-3.514-.878-1.757-14.058-3.515-18.451-.879-4.393 2.636-7.908 7.693-10.983 9.119-3.075 1.425-5.711 4.06-3.954 8.454 1.758 4.393 4.306 12.985 4.306 12.985s4.48-1.563 5.36 1.073-2.637-.879 1.756-7.908c4.394-7.029 4.394-14.058 11.423-11.422 7.029 2.636 14.936 1.757 14.058 7.029-.879 5.272 1.757 13.18 1.757 13.18z"/><path d="M520.321 189.424c-4.229 4.478-5.346 10.29-2.496 12.981 2.85 2.691 8.588 1.242 12.818-3.238a15.415 15.415 0 0 0 3.693-6.274l17.68-19.2-9.187-8.104-16.454 19.788a15.416 15.416 0 0 0-6.054 4.047z" fill="#ffb6b6"/><path fill="#2f2e41" d="m537.41 79.103 29.772 50.723 4.41 23.156-28.67 36.389-12.129-15.438 14.335-20.95-23.156-40.8 15.437-33.08z"/><path d="M453.701 184.701v-59.805c0-9.115 7.416-16.53 16.53-16.53h91.42c9.116 0 16.531 7.415 16.531 16.53v59.805c0 9.116-7.415 16.531-16.53 16.531h-91.42c-9.115 0-16.53-7.415-16.53-16.53z" fill="#6c63ff"/><path fill="#3f3d56" d="M529.772 146.112h-31.614v-7.904h31.614zm-2.59 38.783v15.807h-25.687v-15.807zm1.206-76v15.807h-25.687v-15.807z"/><path d="M462.953 178.002c4.23 4.478 5.347 10.29 2.497 12.981-2.85 2.691-8.588 1.242-12.819-3.238a15.415 15.415 0 0 1-3.693-6.274l-17.68-19.2 9.188-8.104 16.453 19.788a15.416 15.416 0 0 1 6.054 4.047z" fill="#ffb6b6"/><path fill="#2f2e41" d="m445.865 67.68-29.772 50.724-4.411 23.156 28.67 36.388 12.13-15.437-14.336-20.951 23.157-40.8-15.438-33.08z"/><ellipse cx="75.666" cy="286.044" rx="27" ry="23.5" fill="#e6e6e6"/></svg><svg viewBox="0 0 998.5 479.016" id="02" xmlns="http://www.w3.org/2000/svg"><path d="m883.503 476.518 3.402-63.282S998.5 390.1 998.5 323.416s-182.363-74.85-200.735-44.23c-.184.306-.366.612-.548.918-22.692 38.27-9.88 87.956 28.735 110.057a154.923 154.923 0 0 0 47.344 17.631L872 475.018" fill="#ccc"/><circle cx="780" cy="68.018" r="63" fill="#ff6884"/><path d="m687.058 461.517-71.053-4.53-3.831-319.5c-.093-7.755 2.999-15.349 8.483-20.833l76.12-76.12c10.656-10.655 27.428-11.426 39.014-1.787l82.607 68.718a28.853 28.853 0 0 1 10.442 22.614l-2.838 240.281 35.904 49.866.076.106 6.083 52.723-181.007-11.538z" fill="#e6e6e6"/><path d="M699 114.926V100.11a7.1 7.1 0 0 1 7.092-7.092h20.816c3.91 0 7.092 3.182 7.092 7.092v14.816c0 3.91-3.181 7.092-7.092 7.092h-20.816a7.1 7.1 0 0 1-7.092-7.092z" fill="#6c63ff"/><path d="M655 229.926V175.11a7.1 7.1 0 0 1 7.092-7.092h30.816c3.91 0 7.092 3.182 7.092 7.092v54.816c0 3.91-3.181 7.092-7.092 7.092h-30.816a7.1 7.1 0 0 1-7.092-7.092zm69.657 128.311c-3.725-.132-6.729-3.154-6.839-6.88l-1.558-52.981a7.031 7.031 0 0 1 2.686-5.769 7.04 7.04 0 0 1 6.231-1.293l1.558.416a7.101 7.101 0 0 1 5.265 6.853v52.566c0 1.941-.77 3.754-2.167 5.103a7.027 7.027 0 0 1-5.176 1.985zm-94.491-1.985a7.034 7.034 0 0 1-2.166-5.103v-52.566a7.101 7.101 0 0 1 5.265-6.853l1.558-.416a7.038 7.038 0 0 1 6.23 1.293 7.032 7.032 0 0 1 2.687 5.769l-1.559 52.981c-.11 3.726-3.113 6.748-6.838 6.88a7.032 7.032 0 0 1-5.177-1.985zM660 350.926v-54.974a7.053 7.053 0 0 1 6.92-7.091l28.008-.683c3.882-.053 7.148 2.993 7.262 6.885l1.613 55.657a7.036 7.036 0 0 1-2.002 5.148 7.034 7.034 0 0 1-5.087 2.15h-29.622c-3.91 0-7.092-3.181-7.092-7.092z" fill="#3f3d56"/><path d="m825.548 388.492 21.952 39.026 2.52 43.89 17.48 1.11-6-52-36-50a18.417 18.417 0 0 0 .048 17.974z" fill="#ccc"/><path fill="#3f3d56" d="m778.07 459.82 71.248-.974.013 1-71.248.974zm-.629-9.271 67.555-.528.008 1-67.555.528zm-.571-8.285 64.62-1.262.02 1-64.62 1.262zm.558-8.171 62.056-2.06.034 1-62.056 2.06zm-.568-7.95 59.623-2.096.035 1-59.622 2.097zm-2.431-9.124H832.5v1h-58.071zm-1.371-6.356 56.436-.662.012 1-56.436.662zm-1.261-5.84 54.686-1.816.034 1-54.686 1.817zm-1.307-7.83 54.001-.95.018 1-54.001.95zm-1.712-6.259 51.706-1.616.031 1-51.706 1.616zm-1.533-7.214 51.25-.501.01 1-51.25.5z"/><path d="M763.5 362.426v-67.815c0-3.911 3.181-7.093 7.092-7.093h32.816c3.91 0 7.092 3.182 7.092 7.093v67.815a7.1 7.1 0 0 1-7.092 7.092h-32.816c-3.91 0-7.092-3.181-7.092-7.092z" fill="#6c63ff"/><path d="m687.058 461.517-58.09-3.7-.468-.03V412.83c0-5.686 4.625-10.312 10.31-10.312h57.379c5.685 0 10.31 4.626 10.31 10.312v48.688h-19.44z" fill="#ccc"/><path d="M767.5 239.426V187.61a7.1 7.1 0 0 1 7.092-7.092h10.816c3.91 0 7.092 3.182 7.092 7.092v51.816a7.1 7.1 0 0 1-7.092 7.092h-10.816c-3.91 0-7.092-3.181-7.092-7.092z" fill="#3f3d56"/><path d="m778.5 466.518-3-44-9-42-2.5-11.5c-5.137-3.493-12.055.393-11.745 6.598l.245 4.902 9 42 3 44" fill="#ccc"/><path d="m438.057 445.517-71.051-4.53-3.832-319.5c-.093-7.755 2.999-15.349 8.483-20.833l76.121-76.12c10.655-10.657 27.427-11.425 39.013-1.787l82.607 68.718a28.853 28.853 0 0 1 10.442 22.614l-2.838 240.281 35.904 49.866.076.106 6.083 52.723-181.008-11.538z" fill="#e6e6e6"/><path d="M450 98.926V84.11c0-3.91 3.181-7.092 7.093-7.092h20.815c3.91 0 7.092 3.182 7.092 7.092v14.816c0 3.91-3.181 7.092-7.092 7.092h-20.815A7.1 7.1 0 0 1 450 98.926z" fill="#6c63ff"/><path d="M406 213.926V159.11c0-3.91 3.181-7.092 7.093-7.092h30.815c3.91 0 7.092 3.182 7.092 7.092v54.816c0 3.91-3.182 7.092-7.092 7.092h-30.815a7.1 7.1 0 0 1-7.093-7.092zm64.567 63.465a6.036 6.036 0 0 0-2.306 4.955l1.557 52.982a6.107 6.107 0 0 0 5.874 5.909 5.986 5.986 0 0 0 4.446-1.705 6.04 6.04 0 0 0 1.862-4.383v-52.566a6.098 6.098 0 0 0-4.523-5.886l-1.558-.416a6.039 6.039 0 0 0-5.352 1.11zm-89.401 62.861a7.036 7.036 0 0 1-2.166-5.103v-52.566a7.101 7.101 0 0 1 5.264-6.853l1.559-.416a7.04 7.04 0 0 1 6.23 1.293 7.03 7.03 0 0 1 2.687 5.769l-1.559 52.981c-.109 3.726-3.112 6.748-6.837 6.88a7.036 7.036 0 0 1-5.178-1.985zM411 334.926v-54.974a7.053 7.053 0 0 1 6.92-7.091l28.008-.683.175-.002c3.814 0 6.976 3.054 7.087 6.887l1.613 55.657a7.036 7.036 0 0 1-2.002 5.148 7.034 7.034 0 0 1-5.087 2.15h-29.621a7.1 7.1 0 0 1-7.093-7.092z" fill="#3f3d56"/><path d="m576.548 372.492 21.952 39.026 2.52 43.89 17.48 1.11-6-52-36-50a18.417 18.417 0 0 0 .048 17.974z" fill="#ccc"/><path fill="#3f3d56" d="m529.07 443.82 71.248-.974.013 1-71.248.974zm-.629-9.271 67.555-.528.008 1-67.555.528zm-.571-8.285 64.62-1.262.02 1-64.62 1.262zm.558-8.171 62.056-2.06.034 1-62.056 2.06zm-.568-7.95 59.623-2.096.035 1-59.622 2.097zm-2.431-9.124H583.5v1h-58.071zm-1.371-6.356 56.436-.662.012 1-56.436.662zm-1.261-5.84 54.686-1.816.034 1-54.686 1.817zm-1.307-7.83 54.001-.95.018 1-54.001.95zm-1.712-6.259 51.706-1.616.031 1-51.706 1.616zm-1.533-7.214 51.25-.501.01 1-51.25.5z"/><path d="M514.5 346.426v-67.815c0-3.911 3.181-7.093 7.092-7.093h32.816c3.91 0 7.092 3.182 7.092 7.093v67.815a7.1 7.1 0 0 1-7.092 7.092h-32.816c-3.91 0-7.092-3.181-7.092-7.092z" fill="#6c63ff"/><path d="m438.057 445.517-58.09-3.7-.467-.03V396.83c0-5.686 4.626-10.312 10.311-10.312h57.378c5.686 0 10.31 4.626 10.31 10.312v48.688h-19.442z" fill="#ccc"/><path d="M518.5 223.426V171.61a7.1 7.1 0 0 1 7.092-7.092h10.816c3.91 0 7.092 3.182 7.092 7.092v51.816c0 3.91-3.181 7.092-7.092 7.092h-10.816a7.1 7.1 0 0 1-7.092-7.092z" fill="#3f3d56"/><path d="m529.5 450.518-3-44-9-42-2.5-11.5c-5.137-3.493-12.055.393-11.745 6.598l.245 4.902 9 42 3 44" fill="#ccc"/><path d="m189.057 429.517-71.051-4.53-3.832-319.5c-.093-7.755 2.999-15.349 8.483-20.833l76.121-76.12c10.655-10.656 27.428-11.425 39.012-1.787l82.608 68.718a28.852 28.852 0 0 1 10.442 22.614l-2.838 240.281 35.904 49.866.075.106 6.084 52.723-181.008-11.538z" fill="#e6e6e6"/><path d="M201 82.926V68.11c0-3.91 3.181-7.092 7.093-7.092h20.815c3.91 0 7.092 3.182 7.092 7.092v14.816c0 3.91-3.182 7.092-7.092 7.092h-20.815A7.1 7.1 0 0 1 201 82.926z" fill="#6c63ff"/><path d="M157 197.926V143.11c0-3.91 3.181-7.092 7.093-7.092h30.815c3.91 0 7.092 3.182 7.092 7.092v54.816c0 3.91-3.182 7.092-7.092 7.092h-30.815a7.1 7.1 0 0 1-7.093-7.092zm69.657 128.311c-3.725-.132-6.729-3.154-6.839-6.88l-1.557-52.981c-.067-2.262.912-4.365 2.685-5.769s4.044-1.874 6.23-1.293l1.56.416a7.101 7.101 0 0 1 5.264 6.853v52.566a7.04 7.04 0 0 1-2.166 5.103 7.03 7.03 0 0 1-5.177 1.985zm-91.263-66.024 1.558-.415c4.263-1.137 8.418 2.153 8.288 6.563l-1.558 52.982a6.592 6.592 0 0 1-13.182-.194v-52.566c0-2.987 2.008-5.6 4.894-6.37zM162 318.926v-54.974a7.053 7.053 0 0 1 6.92-7.091l28.008-.683c3.902-.062 7.149 2.993 7.262 6.885l1.613 55.657a7.036 7.036 0 0 1-2.002 5.148 7.034 7.034 0 0 1-5.087 2.15h-29.621a7.1 7.1 0 0 1-7.093-7.092z" fill="#3f3d56"/><path d="m327.548 356.492 21.952 39.026 2.52 43.89 17.48 1.11-6-52-36-50a18.417 18.417 0 0 0 .048 17.974z" fill="#ccc"/><path fill="#3f3d56" d="m280.07 427.82 71.248-.974.013 1-71.248.974zm-.629-9.271 67.555-.528.008 1-67.555.528zm-.571-8.285 64.62-1.262.02 1-64.62 1.262zm.558-8.171 62.056-2.06.034 1-62.056 2.06zm-.568-7.95 59.623-2.096.035 1-59.622 2.097zm-2.431-9.124H334.5v1h-58.071zm-1.371-6.356 56.436-.662.012 1-56.436.662zm-1.261-5.84 54.686-1.816.034 1-54.686 1.817zm-1.307-7.83 54.001-.95.018 1-54.001.95zm-1.712-6.259 51.706-1.616.031 1-51.706 1.616zm-1.533-7.214 51.25-.501.01 1-51.25.5z"/><path d="M265.5 330.426v-67.815a7.1 7.1 0 0 1 7.093-7.093h32.815c3.91 0 7.092 3.182 7.092 7.093v67.815c0 3.91-3.182 7.092-7.092 7.092h-32.815a7.1 7.1 0 0 1-7.093-7.092z" fill="#6c63ff"/><path d="m189.057 429.517-58.09-3.7-.467-.03V380.83c0-5.686 4.626-10.312 10.311-10.312h57.378c5.686 0 10.31 4.626 10.31 10.312v48.688h-19.442z" fill="#ccc"/><path d="M269.5 207.426V155.61c0-3.91 3.181-7.092 7.093-7.092h10.815c3.91 0 7.092 3.182 7.092 7.092v51.816c0 3.91-3.182 7.092-7.092 7.092h-10.815a7.1 7.1 0 0 1-7.093-7.092z" fill="#3f3d56"/><path d="m280.5 434.518-3-44-9-42-2.5-11.5c-5.137-3.493-12.055.393-11.745 6.598l.245 4.902 9 42 3 44m-168.997-11 3.402-63.282S212.5 337.1 212.5 270.416s-182.363-74.85-200.735-44.23c-.184.306-.366.612-.548.918-22.692 38.27-9.88 87.955 28.735 110.057a154.923 154.923 0 0 0 47.344 17.631L86 422.018" fill="#ccc"/><path fill="#ccc" d="m25.063 420.153.129-1.996 909.88 58.76-.13 1.995z"/></svg></svg>