<svg width="30" height="30" viewBox="0 0 30 30" fill="none" xmlns="http://www.w3.org/2000/svg">
<path d="M15 0.000976562C6.72965 0.000976562 0 6.72876 0 15C0 23.2713 6.72965 29.9991 15 29.9991C23.2703 29.9991 30 23.2713 30 15C30 6.72876 23.2703 0.000976562 15 0.000976562ZM15 29C7.28064 29 1.00094 22.7194 1.00094 15C1.00094 7.28068 7.28064 1.00004 15 1.00004C22.7194 1.00004 28.9991 7.28068 28.9991 15C28.9991 22.7194 22.7194 29 15 29Z" fill="white"/>
<path d="M18.2739 6.58084H15.7781C12.5994 6.54903 12.1934 8.51629 12.1934 10.6454V12.1936H10.7902C10.7268 12.1851 10.6623 12.1914 10.6017 12.2119C10.5411 12.2324 10.486 12.2666 10.4408 12.3118C10.3955 12.3571 10.3613 12.4121 10.3408 12.4727C10.3203 12.5333 10.314 12.5979 10.3225 12.6613V15.4677C10.314 15.5311 10.3203 15.5956 10.3408 15.6562C10.3613 15.7168 10.3955 15.7719 10.4408 15.8171C10.486 15.8624 10.5411 15.8966 10.6017 15.9171C10.6623 15.9376 10.7268 15.9438 10.7902 15.9354H12.1934V22.9513C12.1856 23.0148 12.1925 23.0793 12.2134 23.1398C12.2343 23.2003 12.2688 23.2552 12.3142 23.3003C12.3596 23.3454 12.4147 23.3796 12.4753 23.4002C12.5359 23.4207 12.6005 23.4272 12.664 23.419H15.5218C15.7977 23.4508 16.0213 23.2272 15.9334 22.9513L15.9352 15.9354H18.2739C18.3373 15.9438 18.4018 15.9376 18.4624 15.9171C18.523 15.8966 18.5781 15.8624 18.6233 15.8171C18.6686 15.7719 18.7028 15.7168 18.7233 15.6562C18.7438 15.5956 18.7501 15.5311 18.7416 15.4677V12.6613C18.7501 12.5979 18.7438 12.5333 18.7233 12.4727C18.7028 12.4121 18.6686 12.3571 18.6233 12.3118C18.5781 12.2666 18.523 12.2324 18.4624 12.2119C18.4018 12.1914 18.3373 12.1851 18.2739 12.1936H15.9324L15.9352 10.7904C16.026 10.1926 16.026 10.2899 16.5807 10.3227H18.2542C18.3843 10.2937 18.5227 10.3096 18.62 10.2151C18.7173 10.1206 18.7734 9.9915 18.7407 9.85493V7.04857C18.7493 6.9852 18.7432 6.92069 18.7228 6.86007C18.7024 6.79945 18.6683 6.74436 18.6231 6.69909C18.5779 6.65382 18.5229 6.6196 18.4623 6.59909C18.4018 6.57858 18.3373 6.57233 18.2739 6.58084ZM17.7734 9.33482L16.6003 9.28991C15.1476 9.28991 15.026 10.0785 15.026 10.8858L15.0222 12.6594C15.0221 12.7251 15.0349 12.7902 15.06 12.8509C15.085 12.9116 15.1218 12.9668 15.1682 13.0132C15.2146 13.0597 15.2697 13.0966 15.3304 13.1218C15.3911 13.1469 15.4561 13.1599 15.5218 13.1599H17.8061V14.9672H15.5236C15.3911 14.9672 15.2639 15.0198 15.1701 15.1134C15.0763 15.2071 15.0234 15.3341 15.0232 15.4667L15.0222 22.4836H13.1289V15.4677C13.1289 15.1917 12.9408 14.9681 12.664 14.9681H11.258V13.1608H12.664C12.7296 13.1609 12.7946 13.1481 12.8553 13.123C12.9159 13.098 12.9711 13.0613 13.0176 13.0149C13.1111 12.9204 13.1279 12.7932 13.1279 12.6604V10.6445C13.1279 8.54716 13.5517 7.5481 15.7771 7.5481H17.7725V9.33482H17.7734Z" fill="white"/>
</svg>
