<svg width="57" height="91" viewBox="0 0 57 91" fill="none" xmlns="http://www.w3.org/2000/svg">
<path d="M36.7843 1.09205C36.2294 1.71078 34.9147 3.02103 33.8653 4.02798C30.3674 7.35214 29.6558 8.54107 29.5593 11.2586C29.4869 13.4666 29.9935 15.1409 31.3082 17.0456C31.658 17.5551 31.9475 17.9433 31.9475 17.8948C31.9475 17.8584 31.7304 17.3853 31.465 16.8515C30.4518 14.8133 30.1503 12.3384 30.7051 10.5792C31.2238 8.92929 31.9837 7.93447 34.5528 5.54448C35.0956 5.04707 35.759 4.35555 36.0364 4.02798L36.5551 3.42138L36.4827 5.9691C36.4465 7.65544 36.3621 8.82011 36.2294 9.4267C35.7831 11.477 34.9147 13.1027 33.3346 14.8861C32.1887 16.1842 31.8631 16.9243 32.1767 17.5309C32.2249 17.64 32.3093 18.1011 32.3576 18.5378L32.43 19.3385L31.7424 19.7995C29.4145 21.3524 27.7741 23.5968 27.1107 26.1445C26.9298 26.8239 26.8574 27.4791 26.8574 28.5345C26.8454 30.779 27.2555 32.6473 28.2928 35.0009L28.8356 36.2383L28.6426 37.2089C28.4496 38.1916 28.3893 41.1154 28.5581 41.8797C28.6185 42.183 28.6908 42.2437 28.9924 42.2437H29.3542L29.4387 40.6786C29.7523 35.0979 31.5856 31.8587 35.8917 29.2746C39.2087 27.2849 40.1857 26.1688 42.393 21.8498C44.1299 18.4165 44.6847 17.5066 46.0236 15.7717L46.7834 14.789L45.71 15.25C43.9731 16.0022 41.4763 16.7544 38.4608 17.4338C35.566 18.0768 34.2513 18.4529 33.2502 18.9624C32.9366 19.1201 32.6471 19.2536 32.6109 19.2536C32.5747 19.2536 32.5626 18.7683 32.5988 18.1617C32.6591 16.8636 32.6712 16.8393 34.5408 14.874C35.554 13.8185 35.9761 13.2604 36.3259 12.5689C37.0979 11.0281 37.1582 10.5792 37.0737 7.60691C36.9893 4.81656 37.134 2.99677 37.6165 0.97073C37.7371 0.449055 37.8336 0.0123024 37.8216 0.000171661C37.8095 -0.0119591 37.3391 0.485451 36.7843 1.09205ZM42.3447 20.115C39.9203 24.6038 38.2317 26.5085 34.3598 29.1411C33.6 29.6628 32.7074 30.3179 32.3817 30.5848C31.1876 31.5797 29.8246 33.545 29.306 35.013C29.1854 35.3648 29.0527 35.6075 29.0165 35.5468C28.8235 35.2435 28.3048 32.7686 28.1842 31.6161C27.7862 27.7945 29.1974 24.4461 32.1646 22.2017C33.8653 20.9035 35.4092 20.3091 38.5211 19.7389C39.8479 19.4962 41.9587 18.8775 42.8634 18.4771C43.0684 18.3922 43.2373 18.3316 43.2614 18.3437C43.2735 18.3558 42.8634 19.1565 42.3447 20.115Z" fill="#151618"/>
<path d="M15.5614 4.12258C16.2808 6.85604 16.4966 10.4399 16.1489 13.793C15.7173 17.9721 16.077 19.2356 18.6427 22.6737C19.338 23.597 20.1173 24.7997 20.3931 25.3343C21.1724 26.9257 21.592 29.1854 21.604 31.9067V33.0366L21.3162 32.9151C20.6448 32.6599 19.4339 32.5506 16.3887 32.4899C14.6143 32.4534 12.78 32.3684 12.3124 32.3198C11.8568 32.259 11.4612 32.2347 11.4492 32.2469C11.4252 32.259 11.665 32.4534 11.9887 32.6842C13.3434 33.6683 14.7102 34.9439 16.2928 36.7055C17.2279 37.7381 18.3429 38.8801 18.7865 39.2324C20.6808 40.751 22.8509 41.6379 25.4765 41.9537C26.5555 42.0874 26.1239 41.6743 24.3015 40.8725C21.4002 39.5847 19.9495 38.5399 17.7195 36.1466C16.8803 35.2476 15.8612 34.2879 15.4655 34.0085L14.7462 33.5225H16.1609C19.8775 33.5225 21.9756 34.2514 23.762 36.1588C24.6492 37.0942 25.2847 38.2605 25.6084 39.5118C25.7043 39.9127 25.8122 40.265 25.8481 40.3015C25.968 40.4108 25.9321 38.8679 25.8002 38.0175C25.5244 36.256 24.1337 34.3122 22.5391 33.4618L21.8438 33.0973V31.0928C21.8438 27.108 21.4961 25.7352 19.6737 22.6251C17.2639 18.4945 16.8683 16.8666 16.9402 11.1445C16.9642 9.37083 17.0001 7.91298 17.0121 7.92513C17.0121 7.93728 17.2639 8.27744 17.5516 8.67835C17.8514 9.07926 18.9184 10.282 19.9375 11.3511C22.4073 13.9387 23.3544 15.433 23.9419 17.6806C24.6013 20.1467 24.0618 23.597 22.5032 26.9257C22.2154 27.5453 21.9996 28.0556 22.0116 28.0556C22.0356 28.0556 22.2394 27.764 22.4792 27.3995C24.3615 24.5324 25.3086 21.3009 25.1648 18.2758C25.0808 16.6236 24.7571 15.3359 24.0737 13.9023C23.3784 12.4202 22.5751 11.3754 20.2492 8.93347C18.4388 7.02612 17.192 5.61687 15.8852 4.06183L15.3816 3.4544L15.5614 4.12258Z" fill="#151618"/>
<path d="M37.1806 33.8993C34.4267 34.4911 32.5545 36.9548 32.5425 39.974C32.5425 40.5779 32.5183 40.6262 32.168 40.7469C31.54 40.9643 31.9989 41.073 33.9436 41.1576C36.7216 41.2783 38.4247 40.9523 39.8741 40.0103C40.2727 39.7566 41.2752 38.9475 42.1086 38.2108C43.7996 36.7374 44.6693 36.1094 46.0946 35.3486L47.0488 34.8413L45.8892 34.7568C45.2611 34.7206 44.1378 34.5636 43.389 34.4307C42.6401 34.2979 41.4564 34.0805 40.7559 33.9597C39.2823 33.694 38.2194 33.6699 37.1806 33.8993ZM41.1665 35.409C41.7584 35.5539 42.6763 35.7109 43.1836 35.7471L44.1258 35.8316L42.8092 36.8944C40.8042 38.5127 39.4755 39.2494 37.7725 39.6842C36.9028 39.9136 33.0135 40.5054 32.929 40.4209C32.8203 40.3122 33.1706 39.189 33.5933 38.3074C34.3301 36.7736 35.7191 35.6746 37.4705 35.2278C38.3643 34.9983 39.7654 35.0708 41.1665 35.409Z" fill="#151618"/>
<path d="M10.2356 47.1115C10.0905 53.6726 10.4291 55.8922 12.0615 59.1971C12.92 60.9288 14.3106 62.9532 15.3021 63.9045C15.5439 64.1362 15.7374 64.3557 15.7374 64.3923C15.7374 64.4411 12.7265 64.4533 9.06274 64.4289C5.38683 64.4045 2.25506 64.4289 2.09786 64.4655C1.95276 64.5021 1.75929 64.6728 1.68674 64.8313C1.57792 65.0874 1.59001 65.1728 1.77139 65.3801C1.98904 65.624 2.12205 65.624 29.0626 65.624C47.5025 65.624 56.2086 65.5874 56.3779 65.5021C56.6923 65.3313 56.6923 64.6972 56.3779 64.5264C56.2207 64.4533 53.7298 64.4045 49.1107 64.4045H42.0854L42.823 63.5142C44.927 61.0142 46.2934 58.2702 47.1882 54.7702C47.4421 53.8068 47.4663 53.3921 47.5025 48.514L47.563 43.3066H28.9416H10.3203L10.2356 47.1115Z" fill="#151618"/>
<path d="M5.21712 67.2749C9.30294 69.2149 15.6009 70.7956 21.4758 71.3584C22.5154 71.4662 22.9868 71.55 22.8055 71.5979C22.5516 71.6698 22.5395 71.6817 22.745 71.6937C22.878 71.7057 23.7 71.7656 24.5583 71.8374C28.9825 72.1607 38.4597 71.9691 38.1938 71.55C38.1575 71.4901 38.1696 71.4662 38.2421 71.5021C38.3026 71.538 38.5201 71.5261 38.7136 71.4662C39.052 71.3704 39.052 71.3704 38.5806 71.3464C38.2905 71.3345 38.907 71.1908 40.0916 70.9872C43.7785 70.3645 46.8127 69.6101 49.3028 68.7C50.7292 68.1731 53.4974 66.9756 53.6908 66.784C53.7513 66.7241 44.3104 66.6762 28.91 66.6882L4.0083 66.7002L5.21712 67.2749Z" fill="#151618"/>
<path d="M4.53223 85.918H4.375C4.37044 85.918 4.35677 85.9202 4.33398 85.9248C4.31576 85.9294 4.29525 85.9362 4.27246 85.9453C4.24967 85.9499 4.22689 85.9544 4.2041 85.959C4.18132 85.9635 4.16764 85.9658 4.16309 85.9658C3.93066 85.9886 3.69596 86.0023 3.45898 86.0068C3.22201 86.016 2.98503 86.0205 2.74805 86.0205C2.69792 86.0205 2.63411 86.0182 2.55664 86.0137C2.48372 86.0137 2.41309 86.0046 2.34473 85.9863C2.27637 85.9635 2.21712 85.9316 2.16699 85.8906C2.11686 85.8496 2.0918 85.7904 2.0918 85.7129C2.0918 85.6536 2.10547 85.5944 2.13281 85.5352C2.16016 85.4759 2.19889 85.4349 2.24902 85.4121C2.2946 85.4076 2.37435 85.403 2.48828 85.3984C2.60221 85.3939 2.7207 85.3893 2.84375 85.3848C2.97135 85.3757 3.09212 85.3688 3.20605 85.3643C3.31999 85.3551 3.39974 85.346 3.44531 85.3369C3.47266 85.3369 3.50911 85.3369 3.55469 85.3369C3.60026 85.3324 3.64583 85.3255 3.69141 85.3164C3.74154 85.3027 3.78483 85.2868 3.82129 85.2686C3.8623 85.2503 3.89421 85.2253 3.91699 85.1934C3.97168 85.0794 3.99902 84.9587 3.99902 84.8311V84.6191V84.0723C3.99902 84.0586 4.0013 84.0267 4.00586 83.9766C4.01497 83.9264 4.02181 83.8717 4.02637 83.8125C4.03548 83.7533 4.0446 83.6963 4.05371 83.6416C4.06283 83.5869 4.06738 83.5527 4.06738 83.5391C4.09017 83.0651 4.10384 82.5889 4.1084 82.1104C4.11296 81.6318 4.11523 81.1556 4.11523 80.6816C4.11523 80.4811 4.11296 80.2852 4.1084 80.0938C4.10384 79.9023 4.10156 79.7109 4.10156 79.5195C4.10156 79.4512 4.10156 79.3395 4.10156 79.1846C4.10612 79.0251 4.1084 78.861 4.1084 78.6924C4.1084 78.5192 4.1084 78.3574 4.1084 78.207C4.11296 78.0521 4.11523 77.945 4.11523 77.8857C4.09245 77.7946 4.06055 77.7194 4.01953 77.6602C3.98307 77.5964 3.93294 77.5348 3.86914 77.4756C3.84635 77.471 3.80534 77.4665 3.74609 77.4619C3.69141 77.4528 3.63216 77.446 3.56836 77.4414C3.50911 77.4323 3.44987 77.4255 3.39062 77.4209C3.33594 77.4163 3.2972 77.4141 3.27441 77.4141C3.2653 77.4141 3.24251 77.4186 3.20605 77.4277C3.17415 77.4323 3.1377 77.4391 3.09668 77.4482C3.06022 77.4528 3.02376 77.4596 2.9873 77.4688C2.95085 77.4733 2.92806 77.4756 2.91895 77.4756C2.8916 77.4801 2.83464 77.4824 2.74805 77.4824C2.66602 77.4824 2.57715 77.4824 2.48145 77.4824C2.3903 77.4824 2.30371 77.4824 2.22168 77.4824C2.13965 77.4824 2.0804 77.4801 2.04395 77.4756C1.97559 77.5029 1.90039 77.5234 1.81836 77.5371C1.73633 77.5462 1.65885 77.5758 1.58594 77.626C1.58594 77.6351 1.57227 77.6533 1.54492 77.6807C1.51758 77.708 1.49935 77.7262 1.49023 77.7354C1.45378 77.7764 1.40365 77.8333 1.33984 77.9062C1.2806 77.9746 1.22135 78.0452 1.16211 78.1182C1.10286 78.1911 1.04818 78.2549 0.998047 78.3096C0.952474 78.3643 0.927409 78.3939 0.922852 78.3984C0.890951 78.4395 0.859049 78.4964 0.827148 78.5693C0.799805 78.6377 0.767904 78.7061 0.731445 78.7744C0.694987 78.8382 0.651693 78.8952 0.601562 78.9453C0.551432 78.9954 0.489909 79.0205 0.416992 79.0205C0.362305 79.0205 0.323568 79.0068 0.300781 78.9795C0.277995 78.9476 0.259766 78.9111 0.246094 78.8701C0.246094 78.8564 0.246094 78.8359 0.246094 78.8086C0.246094 78.7767 0.243815 78.7448 0.239258 78.7129C0.239258 78.6764 0.239258 78.6423 0.239258 78.6104C0.239258 78.5739 0.239258 78.5488 0.239258 78.5352C0.239258 78.5215 0.239258 78.501 0.239258 78.4736C0.239258 78.4417 0.239258 78.4121 0.239258 78.3848C0.243815 78.3529 0.246094 78.3255 0.246094 78.3027C0.246094 78.2754 0.246094 78.2594 0.246094 78.2549C0.250651 78.2412 0.259766 78.207 0.273438 78.1523C0.291667 78.0931 0.309896 78.0316 0.328125 77.9678C0.346354 77.904 0.362305 77.8447 0.375977 77.79C0.394206 77.7354 0.407878 77.7012 0.416992 77.6875C0.416992 77.6738 0.421549 77.6442 0.430664 77.5986C0.439779 77.5531 0.448893 77.5052 0.458008 77.4551C0.47168 77.4004 0.483073 77.3525 0.492188 77.3115C0.501302 77.266 0.508138 77.2363 0.512695 77.2227C0.512695 77.2135 0.519531 77.1885 0.533203 77.1475C0.551432 77.1064 0.569661 77.0609 0.587891 77.0107C0.60612 76.9606 0.62207 76.915 0.635742 76.874C0.653971 76.833 0.663086 76.8079 0.663086 76.7988C0.676758 76.7624 0.69043 76.7214 0.704102 76.6758C0.722331 76.6257 0.742839 76.5801 0.765625 76.5391C0.792969 76.498 0.82487 76.4639 0.861328 76.4365C0.897786 76.4046 0.941081 76.3887 0.991211 76.3887C1.06868 76.3887 1.13021 76.4092 1.17578 76.4502C1.22591 76.4912 1.27148 76.5368 1.3125 76.5869C1.35352 76.637 1.39453 76.6895 1.43555 76.7441C1.47656 76.7943 1.52669 76.8285 1.58594 76.8467C1.68164 76.8467 1.7819 76.8444 1.88672 76.8398C1.99154 76.8353 2.09635 76.833 2.20117 76.833C2.39714 76.833 2.59082 76.8376 2.78223 76.8467C2.97363 76.8558 3.16276 76.8763 3.34961 76.9082C3.34961 76.9082 3.35872 76.9128 3.37695 76.9219C3.39518 76.9264 3.41341 76.9333 3.43164 76.9424C3.45443 76.9469 3.47493 76.9515 3.49316 76.9561C3.51595 76.9606 3.52962 76.9629 3.53418 76.9629H3.75293C3.87142 76.9629 3.97852 76.9515 4.07422 76.9287C4.17448 76.9059 4.28613 76.8945 4.40918 76.8945C4.42741 76.8945 4.45247 76.8945 4.48438 76.8945C4.52083 76.8945 4.55729 76.8945 4.59375 76.8945C4.63021 76.8945 4.66211 76.8968 4.68945 76.9014C4.7168 76.9014 4.73503 76.9036 4.74414 76.9082C4.76237 76.9082 4.79883 76.9128 4.85352 76.9219C4.91276 76.9264 4.97656 76.9333 5.04492 76.9424C5.11328 76.9469 5.1748 76.9515 5.22949 76.9561C5.28874 76.9606 5.32747 76.9629 5.3457 76.9629C5.38216 76.9492 5.42546 76.9378 5.47559 76.9287C5.53027 76.9196 5.60091 76.9128 5.6875 76.9082C5.77865 76.9036 5.89258 76.9014 6.0293 76.9014C6.16602 76.8968 6.33691 76.8945 6.54199 76.8945L7.7793 76.9082C7.85677 76.9082 7.93652 76.8831 8.01855 76.833C8.10059 76.7783 8.18262 76.7168 8.26465 76.6484C8.34668 76.5755 8.42643 76.5049 8.50391 76.4365C8.58594 76.3682 8.66569 76.3203 8.74316 76.293H8.8252C8.95736 76.293 9.05078 76.3636 9.10547 76.5049C9.11003 76.5596 9.11914 76.6621 9.13281 76.8125C9.14648 76.9583 9.16016 77.1133 9.17383 77.2773C9.19206 77.4414 9.21029 77.5964 9.22852 77.7422C9.24674 77.888 9.26042 77.9906 9.26953 78.0498C9.26953 78.0589 9.27181 78.0749 9.27637 78.0977C9.28092 78.1204 9.28548 78.1478 9.29004 78.1797C9.29915 78.207 9.30599 78.2344 9.31055 78.2617C9.3151 78.2845 9.31738 78.2982 9.31738 78.3027V78.4053C9.31738 78.5238 9.31283 78.6309 9.30371 78.7266C9.2946 78.8223 9.2832 78.9316 9.26953 79.0547C9.2513 79.0911 9.22852 79.1162 9.20117 79.1299C9.17839 79.139 9.1556 79.1436 9.13281 79.1436C9.11914 79.1436 9.10547 79.1367 9.0918 79.123C9.07812 79.1185 9.06673 79.1117 9.05762 79.1025C8.98926 79.0706 8.93001 79.0251 8.87988 78.9658C8.83431 78.9066 8.79329 78.8428 8.75684 78.7744C8.72493 78.7061 8.69531 78.6354 8.66797 78.5625C8.64062 78.485 8.61328 78.4144 8.58594 78.3506C8.50846 78.1546 8.38086 77.9974 8.20312 77.8789C8.02995 77.7604 7.84993 77.6602 7.66309 77.5781C7.5446 77.528 7.42839 77.5029 7.31445 77.5029C7.20052 77.5029 7.07747 77.4938 6.94531 77.4756C6.9362 77.4756 6.90202 77.4665 6.84277 77.4482C6.78809 77.4255 6.75163 77.4141 6.7334 77.4141H6.42578H6.07715C6.04069 77.4141 5.98828 77.4232 5.91992 77.4414C5.85156 77.4551 5.8151 77.4665 5.81055 77.4756C5.79688 77.4938 5.78092 77.512 5.7627 77.5303C5.73079 77.5713 5.71029 77.6032 5.70117 77.626C5.68294 77.6579 5.66243 77.7012 5.63965 77.7559C5.61686 77.806 5.60547 77.8333 5.60547 77.8379C5.60091 77.8516 5.59635 77.8766 5.5918 77.9131C5.58724 77.945 5.58268 77.9792 5.57812 78.0156C5.57812 78.0521 5.57585 78.0885 5.57129 78.125C5.56673 78.1569 5.56217 78.1797 5.55762 78.1934C5.55762 78.2663 5.5599 78.3916 5.56445 78.5693C5.56901 78.7471 5.57129 78.9385 5.57129 79.1436C5.57129 79.3486 5.56901 79.5423 5.56445 79.7246C5.5599 79.9023 5.55762 80.0231 5.55762 80.0869C5.55762 80.3193 5.53939 80.5472 5.50293 80.7705C5.47103 80.9893 5.45508 81.2148 5.45508 81.4473C5.45508 81.6979 5.46191 81.9486 5.47559 82.1992C5.49382 82.4453 5.50293 82.6982 5.50293 82.958C5.50293 83.2725 5.49382 83.5892 5.47559 83.9082C5.46191 84.2272 5.45508 84.5462 5.45508 84.8652C5.45508 84.9609 5.47559 85.0361 5.5166 85.0908C5.56217 85.1455 5.61914 85.1865 5.6875 85.2139C5.75586 85.2412 5.83105 85.2594 5.91309 85.2686C5.99967 85.2777 6.08171 85.2845 6.15918 85.2891C6.19564 85.2936 6.2526 85.2982 6.33008 85.3027C6.41211 85.3073 6.49642 85.3118 6.58301 85.3164C6.67415 85.321 6.75846 85.3255 6.83594 85.3301C6.91341 85.3346 6.9681 85.3369 7 85.3369C7.08659 85.3688 7.15039 85.4189 7.19141 85.4873C7.23698 85.5557 7.25977 85.6309 7.25977 85.7129C7.25977 85.8177 7.23014 85.8997 7.1709 85.959C7.11165 86.0137 7.03646 86.0706 6.94531 86.1299H6.93164C6.76302 86.1299 6.60579 86.1162 6.45996 86.0889C6.31868 86.0661 6.16829 86.0433 6.00879 86.0205C5.52116 85.9521 5.02897 85.918 4.53223 85.918ZM9.85742 86C9.85742 85.9818 9.84375 85.9567 9.81641 85.9248C9.79362 85.8883 9.77995 85.8587 9.77539 85.8359V85.8086V85.8018C9.78451 85.7835 9.80501 85.7562 9.83691 85.7197C9.86882 85.6833 9.90299 85.6468 9.93945 85.6104C9.98047 85.5693 10.0169 85.5329 10.0488 85.501C10.0853 85.4691 10.1104 85.4463 10.124 85.4326C10.1331 85.4235 10.1628 85.4144 10.2129 85.4053C10.2676 85.3916 10.3063 85.3848 10.3291 85.3848H10.8145C10.8281 85.3848 10.8464 85.3825 10.8691 85.3779C10.8965 85.3688 10.9215 85.362 10.9443 85.3574C10.9717 85.3483 10.9945 85.3392 11.0127 85.3301C11.0355 85.321 11.0469 85.3164 11.0469 85.3164C11.1107 85.2845 11.1471 85.2344 11.1562 85.166C11.1699 85.0931 11.1768 85.0247 11.1768 84.9609V84.8516C11.1768 84.6921 11.1722 84.5417 11.1631 84.4004C11.1585 84.2546 11.1562 84.1019 11.1562 83.9424V83.8945C11.1562 83.8809 11.1585 83.8558 11.1631 83.8193C11.1676 83.7829 11.1722 83.7441 11.1768 83.7031C11.1859 83.6576 11.195 83.6165 11.2041 83.5801C11.2132 83.5436 11.2201 83.5186 11.2246 83.5049V80.5244C11.2246 80.4333 11.2087 80.3604 11.1768 80.3057C11.1449 80.251 11.1038 80.21 11.0537 80.1826C11.0036 80.1507 10.9443 80.1302 10.876 80.1211C10.8122 80.112 10.7438 80.1074 10.6709 80.1074H10.3906C10.263 80.1074 10.1559 80.0915 10.0693 80.0596C9.98275 80.0277 9.93945 79.9502 9.93945 79.8271C9.93945 79.7861 9.93945 79.7497 9.93945 79.7178C9.94401 79.6859 9.9554 79.6426 9.97363 79.5879C10.1924 79.597 10.4066 79.5902 10.6162 79.5674C10.8258 79.5446 11.0378 79.5332 11.252 79.5332H11.4297C11.4479 79.5378 11.4844 79.5423 11.5391 79.5469C11.5983 79.5514 11.6576 79.556 11.7168 79.5605C11.7806 79.5651 11.8398 79.5697 11.8945 79.5742C11.9492 79.5788 11.988 79.5833 12.0107 79.5879H15.2236C15.3604 79.5879 15.4583 79.6243 15.5176 79.6973C15.5768 79.7656 15.6201 79.8522 15.6475 79.957V80.3467V80.75C15.6475 80.7773 15.6429 80.8275 15.6338 80.9004C15.6247 80.9688 15.6133 81.0439 15.5996 81.126C15.5905 81.2035 15.5791 81.2809 15.5654 81.3584C15.5563 81.4313 15.5495 81.4837 15.5449 81.5156C15.5358 81.5293 15.5199 81.5498 15.4971 81.5771C15.4743 81.5999 15.4583 81.6113 15.4492 81.6113C15.4492 81.6204 15.4447 81.625 15.4355 81.625H15.4287H15.4082C15.3945 81.625 15.3877 81.6204 15.3877 81.6113C15.3102 81.5566 15.251 81.4951 15.21 81.4268C15.1689 81.3538 15.1348 81.2786 15.1074 81.2012C15.0801 81.1237 15.055 81.0462 15.0322 80.9688C15.0094 80.8913 14.9753 80.8184 14.9297 80.75C14.9206 80.7318 14.891 80.7021 14.8408 80.6611C14.7952 80.6156 14.7702 80.5905 14.7656 80.5859C14.7565 80.5768 14.736 80.5518 14.7041 80.5107C14.6768 80.4697 14.6449 80.4264 14.6084 80.3809C14.5765 80.3307 14.5446 80.2852 14.5127 80.2441C14.4854 80.2031 14.4671 80.1781 14.458 80.1689C14.4398 80.1279 14.4193 80.1074 14.3965 80.1074C14.3919 80.1074 14.376 80.1051 14.3486 80.1006C14.3258 80.096 14.2985 80.0915 14.2666 80.0869C14.2393 80.0778 14.2119 80.071 14.1846 80.0664C14.1618 80.0618 14.1504 80.0573 14.1504 80.0527C14.1367 80.0527 14.1117 80.0482 14.0752 80.0391C14.0387 80.0299 13.9977 80.0208 13.9521 80.0117C13.9111 80.0026 13.8724 79.9935 13.8359 79.9844C13.7995 79.9707 13.7767 79.9616 13.7676 79.957H13.7334C13.7152 79.957 13.6901 79.9639 13.6582 79.9775C13.6263 79.9867 13.6035 79.9912 13.5898 79.9912H13.5693C13.5557 79.9867 13.5169 79.9821 13.4531 79.9775C13.3939 79.973 13.3278 79.9707 13.2549 79.9707C13.182 79.9661 13.1136 79.9639 13.0498 79.9639C12.9906 79.9593 12.9541 79.957 12.9404 79.957H12.9199C12.8379 79.957 12.7695 79.973 12.7148 80.0049C12.6602 80.0368 12.6146 80.0778 12.5781 80.1279C12.5462 80.1781 12.5166 80.235 12.4893 80.2988C12.4665 80.3581 12.4437 80.4173 12.4209 80.4766C12.4163 80.5267 12.4072 80.6087 12.3936 80.7227C12.3844 80.8366 12.373 80.9574 12.3594 81.085C12.3503 81.2126 12.3411 81.3333 12.332 81.4473C12.3229 81.5612 12.3184 81.641 12.3184 81.6865V81.7412V81.7754C12.3184 81.7982 12.3206 81.8369 12.3252 81.8916C12.3298 81.9463 12.3343 82.0055 12.3389 82.0693C12.3434 82.1286 12.348 82.1878 12.3525 82.2471C12.3617 82.3018 12.3685 82.3382 12.373 82.3564C12.4049 82.3975 12.4414 82.4385 12.4824 82.4795C12.528 82.5205 12.5758 82.5479 12.626 82.5615H13.002C13.1569 82.5615 13.2913 82.5592 13.4053 82.5547C13.5238 82.5501 13.665 82.5365 13.8291 82.5137C13.8337 82.5046 13.8405 82.4886 13.8496 82.4658C13.8587 82.443 13.8701 82.4202 13.8838 82.3975C13.8975 82.3747 13.9089 82.3542 13.918 82.3359C13.9271 82.3177 13.9339 82.3063 13.9385 82.3018C13.9567 82.2699 13.9795 82.2243 14.0068 82.165C14.0342 82.1012 14.0615 82.0397 14.0889 81.9805C14.1162 81.9167 14.139 81.862 14.1572 81.8164C14.18 81.7708 14.1937 81.7458 14.1982 81.7412C14.2074 81.723 14.2165 81.6842 14.2256 81.625C14.2347 81.5612 14.2438 81.5247 14.2529 81.5156C14.2894 81.4746 14.3372 81.4473 14.3965 81.4336C14.4557 81.4199 14.515 81.4131 14.5742 81.4131C14.638 81.4131 14.6768 81.4382 14.6904 81.4883C14.7087 81.5339 14.7178 81.5863 14.7178 81.6455V81.8164V81.8984C14.7178 81.9395 14.7132 81.9805 14.7041 82.0215C14.695 82.0579 14.679 82.0944 14.6562 82.1309C14.6517 82.1719 14.6471 82.2402 14.6426 82.3359C14.638 82.4316 14.6335 82.5319 14.6289 82.6367C14.6243 82.7415 14.6198 82.8418 14.6152 82.9375C14.6107 83.0286 14.6084 83.0924 14.6084 83.1289V83.3066V83.7168C14.6038 83.7259 14.5993 83.7464 14.5947 83.7783C14.5902 83.8102 14.5856 83.8467 14.5811 83.8877C14.5811 83.9242 14.5788 83.9606 14.5742 83.9971C14.5697 84.0335 14.5651 84.0586 14.5605 84.0723C14.5104 84.1087 14.4648 84.1361 14.4238 84.1543C14.3874 84.1725 14.3418 84.1816 14.2871 84.1816C14.2507 84.1816 14.2165 84.168 14.1846 84.1406C14.1527 84.1087 14.123 84.07 14.0957 84.0244C14.0684 83.9788 14.0456 83.9333 14.0273 83.8877C14.0091 83.8376 13.9977 83.792 13.9932 83.751C13.9886 83.7373 13.9818 83.7077 13.9727 83.6621C13.9681 83.612 13.9635 83.5596 13.959 83.5049C13.9544 83.4456 13.9499 83.391 13.9453 83.3408C13.9408 83.2907 13.9385 83.2542 13.9385 83.2314C13.9248 83.2132 13.8997 83.1973 13.8633 83.1836C13.8314 83.1654 13.7995 83.1471 13.7676 83.1289C13.7402 83.1198 13.6969 83.1084 13.6377 83.0947C13.5785 83.0811 13.5146 83.0697 13.4463 83.0605C13.3825 83.0469 13.321 83.0378 13.2617 83.0332C13.207 83.0241 13.1706 83.0195 13.1523 83.0195C13.1387 83.0195 13.1136 83.0195 13.0771 83.0195C13.0452 83.015 13.0065 83.0127 12.9609 83.0127C12.9199 83.0127 12.8789 83.0127 12.8379 83.0127C12.7969 83.0081 12.765 83.0059 12.7422 83.0059C12.7285 83.0059 12.7057 83.0081 12.6738 83.0127C12.6465 83.0127 12.6169 83.0127 12.585 83.0127C12.5576 83.0127 12.5326 83.015 12.5098 83.0195C12.487 83.0195 12.4733 83.0195 12.4688 83.0195L12.373 83.1289V83.3613C12.373 83.6302 12.3639 83.89 12.3457 84.1406C12.3275 84.3867 12.3184 84.6442 12.3184 84.9131C12.3184 85.0498 12.3298 85.1501 12.3525 85.2139C12.3753 85.2777 12.4118 85.3232 12.4619 85.3506C12.512 85.3779 12.5758 85.3984 12.6533 85.4121C12.7308 85.4258 12.8265 85.4486 12.9404 85.4805C12.9495 85.4805 12.9655 85.4873 12.9883 85.501C13.0111 85.5146 13.027 85.5283 13.0361 85.542H13.5693H14.0752C14.0843 85.542 14.1048 85.5397 14.1367 85.5352C14.1686 85.526 14.2028 85.5192 14.2393 85.5146C14.2757 85.5055 14.3076 85.4987 14.335 85.4941C14.3669 85.485 14.3874 85.4805 14.3965 85.4805H14.7246H14.8545C14.8636 85.4805 14.8796 85.4736 14.9023 85.46C14.9251 85.4417 14.9479 85.4235 14.9707 85.4053C14.998 85.3825 15.0208 85.362 15.0391 85.3438C15.0573 85.3255 15.0687 85.3164 15.0732 85.3164C15.1051 85.3027 15.1302 85.2959 15.1484 85.2959C15.1712 85.2913 15.1895 85.2891 15.2031 85.2891C15.2168 85.2845 15.2305 85.2777 15.2441 85.2686C15.2578 85.2549 15.2715 85.2344 15.2852 85.207C15.3353 85.1341 15.3717 85.0589 15.3945 84.9814C15.4173 84.904 15.4469 84.8265 15.4834 84.749C15.5016 84.7354 15.5244 84.708 15.5518 84.667C15.5791 84.6214 15.5951 84.5918 15.5996 84.5781C15.6042 84.5781 15.6178 84.5713 15.6406 84.5576C15.6634 84.5394 15.6862 84.5212 15.709 84.5029C15.7318 84.4801 15.7523 84.4596 15.7705 84.4414C15.7887 84.4186 15.8001 84.4027 15.8047 84.3936C15.8092 84.3799 15.8184 84.3617 15.832 84.3389C15.8503 84.3115 15.8685 84.2842 15.8867 84.2568C15.9049 84.2249 15.9209 84.1976 15.9346 84.1748C15.9528 84.1475 15.9642 84.1292 15.9688 84.1201C15.9688 84.1156 15.9756 84.1064 15.9893 84.0928C15.9984 84.0882 16.0075 84.0814 16.0166 84.0723C16.0166 84.0632 16.0189 84.0586 16.0234 84.0586H16.0371C16.1055 84.0586 16.1465 84.0859 16.1602 84.1406C16.1738 84.1908 16.1807 84.2432 16.1807 84.2979V84.4414C16.1807 84.4642 16.1829 84.5189 16.1875 84.6055C16.1921 84.6921 16.1943 84.7855 16.1943 84.8857C16.1989 84.9814 16.2035 85.0726 16.208 85.1592C16.2126 85.2458 16.2148 85.2982 16.2148 85.3164V85.3369C16.2148 85.3962 16.2035 85.4645 16.1807 85.542C16.1579 85.6149 16.126 85.6855 16.085 85.7539C16.0439 85.8223 15.9938 85.8792 15.9346 85.9248C15.8799 85.9704 15.8206 85.9954 15.7568 86C15.7249 85.9954 15.6657 85.9909 15.5791 85.9863C15.4971 85.9818 15.4082 85.9772 15.3125 85.9727C15.2168 85.9681 15.1257 85.9635 15.0391 85.959C14.9525 85.9544 14.891 85.9476 14.8545 85.9385H14.7246H14.6084C14.5856 85.9476 14.5332 85.9567 14.4512 85.9658C14.3691 85.9704 14.2803 85.9749 14.1846 85.9795C14.0934 85.984 14.0046 85.9886 13.918 85.9932C13.8359 85.9977 13.7858 86 13.7676 86H11.1768C11.1631 86.0046 11.1403 86.0091 11.1084 86.0137C11.0811 86.0182 11.0492 86.0205 11.0127 86.0205C10.9808 86.0251 10.9489 86.0273 10.917 86.0273C10.8851 86.0319 10.8623 86.0342 10.8486 86.0342C10.8486 86.0433 10.8327 86.0479 10.8008 86.0479C10.7689 86.0479 10.7393 86.0456 10.7119 86.041C10.6846 86.0365 10.6663 86.0342 10.6572 86.0342C10.639 86.0479 10.6025 86.0638 10.5479 86.082C10.4932 86.1003 10.4544 86.1094 10.4316 86.1094C10.4089 86.1094 10.3701 86.1048 10.3154 86.0957C10.2653 86.0866 10.2106 86.0752 10.1514 86.0615C10.0921 86.0524 10.0352 86.041 9.98047 86.0273C9.92578 86.0182 9.88477 86.0091 9.85742 86ZM18.8945 83.293C18.8945 83.3568 18.9242 83.4023 18.9834 83.4297C19.0426 83.457 19.0973 83.4707 19.1475 83.4707H19.5098C19.5599 83.4707 19.61 83.473 19.6602 83.4775C19.7103 83.4821 19.7604 83.4844 19.8105 83.4844C19.929 83.4844 20.0316 83.4661 20.1182 83.4297C20.2048 83.3887 20.248 83.2998 20.248 83.1631V83.0469C20.207 82.8372 20.1455 82.6299 20.0635 82.4248C19.9814 82.2152 19.904 82.0124 19.8311 81.8164C19.8219 81.7845 19.8083 81.7503 19.79 81.7139C19.7764 81.6729 19.7581 81.6364 19.7354 81.6045C19.7126 81.568 19.6875 81.5384 19.6602 81.5156C19.6328 81.4928 19.6032 81.4814 19.5713 81.4814C19.512 81.4814 19.4642 81.5065 19.4277 81.5566C19.3958 81.6068 19.3685 81.666 19.3457 81.7344C19.3275 81.8027 19.3115 81.8734 19.2979 81.9463C19.2842 82.0146 19.2682 82.0693 19.25 82.1104C19.2363 82.1514 19.2113 82.2243 19.1748 82.3291C19.1429 82.4339 19.1087 82.5456 19.0723 82.6641C19.0358 82.778 18.9993 82.8874 18.9629 82.9922C18.931 83.097 18.9082 83.1699 18.8945 83.2109V83.293ZM17.3018 85.9658H17.2676C17.2585 85.9658 17.2357 85.9704 17.1992 85.9795C17.1628 85.984 17.1217 85.9909 17.0762 86C17.0306 86.0046 16.9873 86.0091 16.9463 86.0137C16.9098 86.0182 16.887 86.0205 16.8779 86.0205H16.8369C16.8096 86.0205 16.7868 86.0091 16.7686 85.9863C16.7503 85.9635 16.7367 85.9385 16.7275 85.9111C16.7184 85.8792 16.7139 85.8496 16.7139 85.8223C16.7093 85.7904 16.707 85.7699 16.707 85.7607V85.7402C16.707 85.6582 16.7344 85.6035 16.7891 85.5762C16.8483 85.5488 16.9053 85.5238 16.96 85.501C16.9691 85.501 16.9919 85.4941 17.0283 85.4805C17.0648 85.4622 17.1035 85.444 17.1445 85.4258C17.1901 85.4076 17.2311 85.3916 17.2676 85.3779C17.304 85.3597 17.3268 85.346 17.3359 85.3369C17.3405 85.3324 17.3542 85.321 17.377 85.3027C17.3997 85.2799 17.4248 85.2549 17.4521 85.2275C17.4795 85.2002 17.5046 85.1729 17.5273 85.1455C17.5547 85.1182 17.5775 85.0954 17.5957 85.0771C17.6003 85.068 17.6071 85.0566 17.6162 85.043C17.6344 85.0156 17.6436 84.9951 17.6436 84.9814C17.6436 84.9723 17.6481 84.945 17.6572 84.8994C17.6709 84.8538 17.6823 84.8265 17.6914 84.8174C17.8145 84.5713 17.9375 84.3229 18.0605 84.0723C18.1836 83.8171 18.2998 83.5618 18.4092 83.3066C18.4229 83.293 18.4411 83.2542 18.4639 83.1904C18.4912 83.1221 18.5094 83.0742 18.5186 83.0469C18.5231 83.0378 18.5345 83.0104 18.5527 82.9648C18.571 82.9147 18.5892 82.8646 18.6074 82.8145C18.6257 82.7598 18.6416 82.7096 18.6553 82.6641C18.6735 82.6185 18.6826 82.5911 18.6826 82.582C18.6872 82.5684 18.7008 82.5365 18.7236 82.4863C18.751 82.4362 18.7783 82.3815 18.8057 82.3223C18.8376 82.263 18.8649 82.2061 18.8877 82.1514C18.915 82.0967 18.9333 82.0625 18.9424 82.0488C18.9788 81.9668 19.013 81.8939 19.0449 81.8301C19.0814 81.7617 19.1156 81.682 19.1475 81.5908C19.1657 81.5544 19.1885 81.5133 19.2158 81.4678C19.2477 81.4222 19.2773 81.3743 19.3047 81.3242C19.332 81.2695 19.3548 81.2171 19.373 81.167C19.3958 81.1169 19.4072 81.069 19.4072 81.0234V80.9277C19.4072 80.9095 19.4004 80.8799 19.3867 80.8389C19.3776 80.7933 19.373 80.7682 19.373 80.7637C19.373 80.7318 19.3913 80.6908 19.4277 80.6406C19.4642 80.5905 19.4915 80.5586 19.5098 80.5449C19.5189 80.5404 19.5394 80.5312 19.5713 80.5176C19.6077 80.5039 19.6442 80.488 19.6807 80.4697C19.7171 80.4515 19.749 80.4355 19.7764 80.4219C19.8083 80.4082 19.8265 80.3991 19.8311 80.3945C19.8402 80.3854 19.8584 80.3672 19.8857 80.3398C19.9131 80.3125 19.9427 80.2829 19.9746 80.251C20.0111 80.2145 20.043 80.1803 20.0703 80.1484C20.1022 80.112 20.125 80.0869 20.1387 80.0732C20.1432 80.0687 20.1523 80.055 20.166 80.0322C20.1797 80.0049 20.1956 79.9798 20.2139 79.957C20.2321 79.9297 20.2526 79.9069 20.2754 79.8887C20.2982 79.8659 20.3232 79.8568 20.3506 79.8613C20.3962 79.875 20.4349 79.916 20.4668 79.9844C20.5033 80.0527 20.5329 80.1279 20.5557 80.21C20.583 80.2874 20.6058 80.3649 20.624 80.4424C20.6423 80.5153 20.6582 80.5654 20.6719 80.5928C20.6764 80.6156 20.6833 80.6475 20.6924 80.6885C20.7061 80.7295 20.7174 80.7705 20.7266 80.8115C20.7402 80.8525 20.7516 80.889 20.7607 80.9209C20.7699 80.9528 20.7744 80.971 20.7744 80.9756C20.779 80.9893 20.7858 81.0212 20.7949 81.0713C20.804 81.1214 20.8132 81.1761 20.8223 81.2354C20.8359 81.2946 20.8473 81.3493 20.8564 81.3994C20.8656 81.445 20.8701 81.4723 20.8701 81.4814C20.8747 81.4951 20.8861 81.5384 20.9043 81.6113C20.9271 81.6842 20.9521 81.7686 20.9795 81.8643C21.0068 81.96 21.0342 82.0557 21.0615 82.1514C21.0889 82.2425 21.1117 82.3154 21.1299 82.3701C21.1663 82.4932 21.2119 82.6162 21.2666 82.7393C21.3213 82.8577 21.3623 82.9785 21.3896 83.1016C21.4124 83.2064 21.4261 83.2907 21.4307 83.3545C21.4398 83.4137 21.4626 83.4867 21.499 83.5732C21.5036 83.5824 21.5127 83.6029 21.5264 83.6348C21.5446 83.6621 21.5628 83.694 21.5811 83.7305C21.5993 83.7624 21.6152 83.7943 21.6289 83.8262C21.6426 83.8581 21.6517 83.8809 21.6562 83.8945C21.6562 83.9036 21.6585 83.9196 21.6631 83.9424C21.6676 83.9652 21.6722 83.9925 21.6768 84.0244C21.6859 84.0518 21.6927 84.0791 21.6973 84.1064C21.7018 84.1292 21.7064 84.1452 21.7109 84.1543C21.7109 84.1589 21.7155 84.1748 21.7246 84.2021C21.7337 84.2249 21.7451 84.2523 21.7588 84.2842C21.7725 84.3115 21.7839 84.3389 21.793 84.3662C21.8066 84.389 21.8158 84.4004 21.8203 84.4004C21.8431 84.5189 21.8727 84.6465 21.9092 84.7832C21.9456 84.9199 22.0026 85.0407 22.0801 85.1455C22.1165 85.2002 22.1826 85.2458 22.2783 85.2822C22.3786 85.3187 22.4788 85.3551 22.5791 85.3916C22.6839 85.4281 22.7751 85.4691 22.8525 85.5146C22.93 85.5602 22.9688 85.6195 22.9688 85.6924C22.9688 85.7699 22.9482 85.8314 22.9072 85.877C22.8708 85.918 22.8229 85.9499 22.7637 85.9727C22.7044 85.9954 22.6383 86.0091 22.5654 86.0137C22.4925 86.0182 22.4242 86.0205 22.3604 86.0205H22.2236H22.0801C22.0072 86.0205 21.8796 86.0182 21.6973 86.0137C21.515 86.0091 21.319 86.0046 21.1094 86C20.9043 85.9909 20.7083 85.984 20.5215 85.9795C20.3392 85.9704 20.2116 85.9658 20.1387 85.9658C20.0885 85.9476 20.0589 85.9271 20.0498 85.9043C20.0407 85.877 20.0361 85.8382 20.0361 85.7881V85.7402C20.0361 85.7311 20.0384 85.722 20.043 85.7129C20.084 85.6263 20.141 85.5693 20.2139 85.542C20.2868 85.5101 20.362 85.485 20.4395 85.4668C20.5215 85.4486 20.6012 85.4281 20.6787 85.4053C20.7562 85.3779 20.82 85.3232 20.8701 85.2412L20.8838 85.1934L20.8701 85.1455C20.8656 85.1045 20.8542 85.0475 20.8359 84.9746C20.8223 84.9017 20.8063 84.8288 20.7881 84.7559C20.7744 84.6829 20.7607 84.6191 20.7471 84.5645C20.7334 84.5052 20.7243 84.471 20.7197 84.4619C20.7106 84.4528 20.6969 84.43 20.6787 84.3936C20.6605 84.3571 20.64 84.3161 20.6172 84.2705C20.599 84.2249 20.5785 84.1816 20.5557 84.1406C20.5374 84.0951 20.5215 84.0609 20.5078 84.0381C20.4577 83.9606 20.387 83.915 20.2959 83.9014C20.2093 83.8831 20.1227 83.874 20.0361 83.874H19.8994C19.7354 83.874 19.5804 83.8854 19.4346 83.9082C19.2933 83.931 19.1429 83.9424 18.9834 83.9424C18.9515 83.9424 18.9196 83.9401 18.8877 83.9355C18.8558 83.931 18.8239 83.9287 18.792 83.9287C18.7601 83.9606 18.7441 83.9857 18.7441 84.0039C18.735 84.0085 18.7236 84.0267 18.71 84.0586C18.7008 84.0859 18.6895 84.1178 18.6758 84.1543C18.6667 84.1862 18.6553 84.2181 18.6416 84.25C18.6325 84.2773 18.6279 84.2933 18.6279 84.2979C18.6279 84.307 18.612 84.3343 18.5801 84.3799C18.5527 84.4255 18.5322 84.4528 18.5186 84.4619C18.4639 84.5758 18.432 84.6943 18.4229 84.8174C18.4137 84.9359 18.4092 85.0589 18.4092 85.1865C18.4092 85.2594 18.432 85.3141 18.4775 85.3506C18.5231 85.3825 18.5801 85.4076 18.6484 85.4258C18.7168 85.444 18.7897 85.46 18.8672 85.4736C18.9447 85.4827 19.0176 85.4987 19.0859 85.5215C19.1543 85.5397 19.2113 85.5693 19.2568 85.6104C19.3024 85.6514 19.3252 85.7106 19.3252 85.7881C19.3252 85.9385 19.2546 86.0319 19.1133 86.0684C19.0951 86.0684 19.0609 86.0661 19.0107 86.0615C18.9652 86.057 18.9173 86.0524 18.8672 86.0479C18.8171 86.0433 18.7692 86.0387 18.7236 86.0342C18.6781 86.0296 18.6462 86.0251 18.6279 86.0205H18.1426H17.9512C17.9375 86.0205 17.901 86.0182 17.8418 86.0137C17.7826 86.0091 17.7165 86.0046 17.6436 86C17.5706 85.9909 17.5046 85.984 17.4453 85.9795C17.3861 85.9704 17.3496 85.9658 17.3359 85.9658H17.3018ZM24.2607 86C24.2516 86 24.2243 86.0046 24.1787 86.0137C24.1377 86.0273 24.1149 86.0342 24.1104 86.0342H24.083C24.0238 86.0342 23.9645 86.0319 23.9053 86.0273C23.8506 86.0228 23.8005 86.0114 23.7549 85.9932C23.7139 85.9749 23.6797 85.9476 23.6523 85.9111C23.625 85.8747 23.6113 85.8245 23.6113 85.7607V85.6582C23.6159 85.6126 23.6706 85.5807 23.7754 85.5625C23.8848 85.5397 24.0055 85.526 24.1377 85.5215C24.2699 85.5124 24.3952 85.5055 24.5137 85.501C24.6322 85.4919 24.7028 85.4736 24.7256 85.4463C24.7301 85.4235 24.7347 85.403 24.7393 85.3848C24.7438 85.3665 24.7484 85.3506 24.7529 85.3369C24.7575 85.3232 24.7598 85.3118 24.7598 85.3027C24.7598 85.2845 24.762 85.2572 24.7666 85.2207C24.7757 85.1797 24.7826 85.1387 24.7871 85.0977C24.7962 85.0521 24.8031 85.0111 24.8076 84.9746C24.8122 84.9382 24.8145 84.9131 24.8145 84.8994C24.8145 84.863 24.8167 84.7878 24.8213 84.6738C24.8258 84.5553 24.8304 84.4277 24.835 84.291C24.8395 84.1543 24.8441 84.0221 24.8486 83.8945C24.8532 83.7669 24.8555 83.6758 24.8555 83.6211C24.8555 83.5983 24.8555 83.5573 24.8555 83.498C24.86 83.4342 24.8623 83.3659 24.8623 83.293C24.8623 83.2201 24.86 83.154 24.8555 83.0947C24.8555 83.0355 24.8555 82.9899 24.8555 82.958L24.8896 82.8691C24.8896 82.8646 24.8919 82.819 24.8965 82.7324C24.901 82.6413 24.9056 82.5342 24.9102 82.4111C24.9193 82.2881 24.9261 82.1628 24.9307 82.0352C24.9398 81.9076 24.9443 81.8027 24.9443 81.7207V81.2559V80.7705C24.9443 80.7523 24.9398 80.7249 24.9307 80.6885C24.9261 80.652 24.9215 80.6156 24.917 80.5791C24.9124 80.5381 24.9056 80.5039 24.8965 80.4766C24.8919 80.4447 24.8896 80.4242 24.8896 80.415C24.8669 80.3467 24.8213 80.2988 24.7529 80.2715C24.6891 80.2396 24.6117 80.2168 24.5205 80.2031C24.4339 80.1895 24.3405 80.1826 24.2402 80.1826C24.1445 80.1781 24.0557 80.1689 23.9736 80.1553C23.8916 80.1416 23.8232 80.1188 23.7686 80.0869C23.7184 80.0505 23.6934 79.9958 23.6934 79.9229C23.6934 79.8818 23.707 79.8454 23.7344 79.8135C23.7617 79.777 23.7936 79.7451 23.8301 79.7178C23.8665 79.6904 23.9053 79.6699 23.9463 79.6562C23.9919 79.638 24.0306 79.6289 24.0625 79.6289C24.1263 79.6289 24.2038 79.638 24.2949 79.6562C24.3861 79.6745 24.4567 79.679 24.5068 79.6699C24.5205 79.6699 24.5479 79.6676 24.5889 79.6631C24.6299 79.6585 24.6732 79.654 24.7188 79.6494C24.7689 79.6449 24.8145 79.6403 24.8555 79.6357C24.901 79.6312 24.9307 79.6289 24.9443 79.6289C24.9671 79.6289 25.0195 79.6312 25.1016 79.6357C25.1836 79.6403 25.2702 79.6449 25.3613 79.6494C25.457 79.654 25.5459 79.6608 25.6279 79.6699C25.71 79.6745 25.7624 79.679 25.7852 79.6836H25.8672H25.9287C25.9378 79.679 25.9583 79.6745 25.9902 79.6699C26.0221 79.6608 26.054 79.654 26.0859 79.6494C26.1224 79.6449 26.1543 79.6403 26.1816 79.6357C26.2135 79.6312 26.2318 79.6289 26.2363 79.6289H26.5781C26.5827 79.6289 26.5986 79.6266 26.626 79.6221C26.6533 79.6175 26.6807 79.613 26.708 79.6084C26.7399 79.6038 26.7673 79.5993 26.79 79.5947C26.8174 79.5902 26.8333 79.5879 26.8379 79.5879H26.8652C26.8743 79.5879 26.8812 79.5879 26.8857 79.5879C26.8949 79.5833 26.904 79.5811 26.9131 79.5811C26.9678 79.5811 27.0225 79.5833 27.0771 79.5879C27.1318 79.5924 27.182 79.6038 27.2275 79.6221C27.2731 79.6357 27.3096 79.6608 27.3369 79.6973C27.3688 79.7337 27.3848 79.7839 27.3848 79.8477C27.3848 79.8613 27.3802 79.8818 27.3711 79.9092C27.362 79.932 27.3574 79.9479 27.3574 79.957C27.321 79.9798 27.264 80.014 27.1865 80.0596C27.109 80.1006 27.0452 80.1257 26.9951 80.1348C26.9769 80.1348 26.9359 80.1393 26.8721 80.1484C26.8128 80.153 26.749 80.1598 26.6807 80.1689C26.6123 80.1735 26.5485 80.1803 26.4893 80.1895C26.43 80.194 26.3936 80.1963 26.3799 80.1963C26.3434 80.2008 26.3115 80.2168 26.2842 80.2441C26.2614 80.2669 26.2454 80.2965 26.2363 80.333C26.1953 80.5381 26.168 80.7409 26.1543 80.9414C26.1452 81.1419 26.1406 81.347 26.1406 81.5566V82.2129V82.4316C26.1406 82.4362 26.1361 82.4635 26.127 82.5137C26.1224 82.5592 26.1156 82.6117 26.1064 82.6709C26.1019 82.7256 26.0951 82.778 26.0859 82.8281C26.0814 82.8783 26.0791 82.9102 26.0791 82.9238V83.9629V84.3594C26.0791 84.373 26.0768 84.4027 26.0723 84.4482C26.0677 84.4938 26.0632 84.5417 26.0586 84.5918C26.054 84.6419 26.0495 84.6875 26.0449 84.7285C26.0404 84.7695 26.0381 84.7946 26.0381 84.8037V84.8379V84.8994C26.0381 84.9085 26.0449 84.9336 26.0586 84.9746C26.0723 85.0111 26.0791 85.0339 26.0791 85.043C26.0791 85.0521 26.0723 85.068 26.0586 85.0908C26.0449 85.109 26.0381 85.125 26.0381 85.1387C26.0335 85.1523 26.0312 85.166 26.0312 85.1797C26.0267 85.1888 26.0244 85.2002 26.0244 85.2139C26.0244 85.223 26.0244 85.2321 26.0244 85.2412C26.0244 85.3278 26.0495 85.4098 26.0996 85.4873C26.1543 85.5602 26.2227 85.5967 26.3047 85.5967H26.3457C26.4779 85.5739 26.6146 85.5534 26.7559 85.5352C26.9017 85.5124 27.0407 85.501 27.1729 85.501H28.3281C28.3464 85.501 28.376 85.4987 28.417 85.4941C28.4626 85.4896 28.5059 85.485 28.5469 85.4805C28.5879 85.4759 28.6243 85.4714 28.6562 85.4668C28.6882 85.4577 28.7064 85.4508 28.7109 85.4463C28.7201 85.4417 28.7383 85.4281 28.7656 85.4053C28.793 85.3779 28.8226 85.3483 28.8545 85.3164C28.891 85.2799 28.9229 85.2458 28.9502 85.2139C28.9821 85.182 29.0049 85.1569 29.0186 85.1387C29.0186 85.1341 29.0231 85.1227 29.0322 85.1045C29.0413 85.0817 29.0505 85.0612 29.0596 85.043C29.0687 85.0202 29.0778 84.9997 29.0869 84.9814C29.096 84.9632 29.1029 84.9518 29.1074 84.9473C29.1074 84.9427 29.1143 84.9359 29.1279 84.9268C29.1462 84.9131 29.1644 84.8994 29.1826 84.8857C29.2008 84.8721 29.2168 84.8607 29.2305 84.8516C29.2487 84.8424 29.2601 84.8379 29.2646 84.8379L29.2988 84.8037C29.3079 84.7992 29.3262 84.7741 29.3535 84.7285C29.3809 84.6784 29.3945 84.6488 29.3945 84.6396C29.4128 84.6214 29.4355 84.5941 29.4629 84.5576C29.4948 84.5166 29.5267 84.4756 29.5586 84.4346C29.5951 84.389 29.627 84.348 29.6543 84.3115C29.6816 84.2705 29.7021 84.2432 29.7158 84.2295C29.734 84.2067 29.7454 84.193 29.75 84.1885C29.7591 84.1839 29.7819 84.1816 29.8184 84.1816C29.8913 84.1816 29.9482 84.2113 29.9893 84.2705C30.0303 84.3252 30.0599 84.3913 30.0781 84.4688C30.0964 84.5462 30.1055 84.626 30.1055 84.708C30.11 84.7855 30.1123 84.8493 30.1123 84.8994C30.1123 84.9222 30.1123 84.9495 30.1123 84.9814C30.1123 85.0133 30.1123 85.0452 30.1123 85.0771C30.1123 85.109 30.11 85.1364 30.1055 85.1592C30.1055 85.182 30.1055 85.1934 30.1055 85.1934C30.1055 85.2025 30.0986 85.2275 30.085 85.2686C30.0713 85.305 30.0645 85.3278 30.0645 85.3369C30.0553 85.4417 30.0508 85.5329 30.0508 85.6104C30.0508 85.6833 30.0394 85.7471 30.0166 85.8018C29.9984 85.8564 29.9619 85.902 29.9072 85.9385C29.8571 85.9749 29.7728 86.0068 29.6543 86.0342C29.6133 86.0387 29.5381 86.041 29.4287 86.041C29.3193 86.0456 29.2008 86.0479 29.0732 86.0479C28.9502 86.0479 28.8317 86.0479 28.7178 86.0479C28.6084 86.0479 28.5309 86.0479 28.4854 86.0479C28.4033 86.0479 28.2985 86.0479 28.1709 86.0479C28.0433 86.0479 27.918 86.0479 27.7949 86.0479C27.6764 86.0479 27.5716 86.0456 27.4805 86.041C27.3893 86.041 27.3415 86.0387 27.3369 86.0342C27.3141 86.0342 27.2686 86.0319 27.2002 86.0273C27.1364 86.0273 27.0635 86.0251 26.9814 86.0205C26.904 86.0205 26.8265 86.0182 26.749 86.0137C26.6761 86.0091 26.6191 86.0046 26.5781 86C26.5736 86 26.5599 85.9977 26.5371 85.9932C26.5143 85.9886 26.4893 85.984 26.4619 85.9795C26.4346 85.9749 26.4095 85.9704 26.3867 85.9658C26.3639 85.9613 26.3503 85.9567 26.3457 85.9521H26.3047H26.2363C26.2135 85.9567 26.168 85.9613 26.0996 85.9658C26.0312 85.9704 25.9583 85.9749 25.8809 85.9795C25.8034 85.984 25.7282 85.9886 25.6553 85.9932C25.5869 85.9977 25.5436 86 25.5254 86H25.0674C25.0583 86 25.0264 86.0046 24.9717 86.0137C24.9215 86.0273 24.8942 86.0342 24.8896 86.0342C24.8577 86.0524 24.819 86.0615 24.7734 86.0615C24.7324 86.0661 24.7005 86.0684 24.6777 86.0684C24.6641 86.0684 24.6367 86.0638 24.5957 86.0547C24.5547 86.0501 24.5091 86.0433 24.459 86.0342C24.4134 86.0251 24.3701 86.016 24.3291 86.0068C24.2881 86.0023 24.2653 86 24.2607 86ZM31.4932 80.5859C31.4795 80.4993 31.4613 80.431 31.4385 80.3809C31.4157 80.3262 31.3861 80.2829 31.3496 80.251C31.3132 80.2145 31.2676 80.1826 31.2129 80.1553C31.1582 80.1279 31.0898 80.0938 31.0078 80.0527C30.9577 80.0299 30.9053 80.014 30.8506 80.0049C30.8005 79.9912 30.7686 79.9798 30.7549 79.9707C30.7275 79.9388 30.707 79.8955 30.6934 79.8408C30.6797 79.7816 30.6729 79.7383 30.6729 79.7109C30.6729 79.7018 30.6729 79.6836 30.6729 79.6562C30.6774 79.6243 30.6888 79.6016 30.707 79.5879C30.7161 79.5833 30.7412 79.5765 30.7822 79.5674C30.8232 79.5583 30.8551 79.5492 30.8779 79.54C30.9235 79.5355 30.9736 79.5309 31.0283 79.5264C31.0876 79.5218 31.1423 79.5195 31.1924 79.5195C31.2699 79.5195 31.3496 79.5264 31.4316 79.54C31.5137 79.5492 31.6208 79.5651 31.7529 79.5879H32.0127C32.0993 79.5879 32.1813 79.5879 32.2588 79.5879C32.3363 79.5879 32.4115 79.5856 32.4844 79.5811C32.5573 79.5765 32.6302 79.5719 32.7031 79.5674C32.776 79.5628 32.8558 79.5537 32.9424 79.54C32.9561 79.54 32.9834 79.5332 33.0244 79.5195C33.0654 79.5059 33.0905 79.499 33.0996 79.499H33.1475C33.2523 79.499 33.348 79.5173 33.4346 79.5537C33.5257 79.5902 33.5713 79.6654 33.5713 79.7793C33.5713 79.8568 33.5439 79.916 33.4893 79.957C33.4346 79.998 33.3685 80.0345 33.291 80.0664C33.2181 80.0983 33.1429 80.1302 33.0654 80.1621C32.9925 80.1895 32.9355 80.2282 32.8945 80.2783C32.849 80.3285 32.8125 80.39 32.7852 80.4629C32.7578 80.5312 32.735 80.6064 32.7168 80.6885C32.7031 80.766 32.694 80.8434 32.6895 80.9209C32.6849 80.9984 32.6826 81.0667 32.6826 81.126C32.6826 81.1989 32.6917 81.2581 32.71 81.3037C32.7327 81.3493 32.7441 81.404 32.7441 81.4678C32.7441 81.4814 32.7419 81.502 32.7373 81.5293C32.7373 81.5521 32.7305 81.568 32.7168 81.5771C32.7168 81.5863 32.7145 81.6113 32.71 81.6523C32.7054 81.6934 32.7008 81.7389 32.6963 81.7891C32.6963 81.8346 32.694 81.8779 32.6895 81.9189C32.6849 81.96 32.6826 81.9873 32.6826 82.001V82.6025C32.6826 82.6253 32.6735 82.6641 32.6553 82.7188C32.6416 82.7734 32.6325 82.8099 32.6279 82.8281V82.9033V82.9717C32.6279 82.9808 32.6302 83.0036 32.6348 83.04C32.6439 83.0765 32.6507 83.1152 32.6553 83.1562C32.6644 83.1973 32.6712 83.236 32.6758 83.2725C32.6803 83.3089 32.6826 83.3317 32.6826 83.3408C32.6872 83.3636 32.6895 83.4046 32.6895 83.4639C32.694 83.5186 32.6986 83.5778 32.7031 83.6416C32.7077 83.7008 32.71 83.7578 32.71 83.8125C32.7145 83.8672 32.7168 83.9059 32.7168 83.9287C32.7214 83.9652 32.7305 84.013 32.7441 84.0723C32.7578 84.127 32.7715 84.1839 32.7852 84.2432C32.8034 84.3024 32.8216 84.3594 32.8398 84.4141C32.8581 84.4688 32.8763 84.512 32.8945 84.5439C32.9128 84.5895 32.9447 84.6465 32.9902 84.7148C33.0404 84.7832 33.0951 84.8516 33.1543 84.9199C33.2135 84.9837 33.2728 85.0407 33.332 85.0908C33.3958 85.141 33.4551 85.1729 33.5098 85.1865C33.5189 85.1865 33.5394 85.1956 33.5713 85.2139C33.6032 85.2275 33.6305 85.2344 33.6533 85.2344C33.6852 85.2344 33.7012 85.2367 33.7012 85.2412C33.7513 85.2458 33.7969 85.2572 33.8379 85.2754C33.8789 85.2891 33.9176 85.305 33.9541 85.3232C33.9906 85.3369 34.0293 85.3506 34.0703 85.3643C34.1113 85.3779 34.1569 85.3848 34.207 85.3848H34.3027C34.3073 85.3802 34.3232 85.3711 34.3506 85.3574C34.3779 85.3438 34.4053 85.3301 34.4326 85.3164C34.4645 85.3027 34.4919 85.2913 34.5146 85.2822C34.542 85.2731 34.5579 85.2686 34.5625 85.2686H34.6719C34.7174 85.2549 34.7653 85.2412 34.8154 85.2275C34.8519 85.2184 34.8906 85.2116 34.9316 85.207C34.9727 85.1979 35.0046 85.1911 35.0273 85.1865C35.1504 85.1455 35.2598 85.0703 35.3555 84.9609C35.4557 84.847 35.5355 84.7445 35.5947 84.6533C35.5993 84.6442 35.6061 84.6237 35.6152 84.5918C35.6289 84.5599 35.6403 84.528 35.6494 84.4961C35.6631 84.4596 35.6745 84.4255 35.6836 84.3936C35.6927 84.3617 35.6973 84.3411 35.6973 84.332C35.752 84.1908 35.793 84.0426 35.8203 83.8877C35.8477 83.7327 35.8659 83.5755 35.875 83.416C35.8841 83.252 35.891 83.0902 35.8955 82.9307C35.9001 82.7712 35.9092 82.6162 35.9229 82.4658C35.9229 82.4613 35.9251 82.4476 35.9297 82.4248C35.9342 82.3975 35.9365 82.3701 35.9365 82.3428C35.9411 82.3109 35.9456 82.2835 35.9502 82.2607C35.9548 82.2334 35.957 82.2152 35.957 82.2061V81.9189V81.6113C35.9525 81.5749 35.9456 81.5088 35.9365 81.4131C35.9274 81.3174 35.916 81.2148 35.9023 81.1055C35.8932 80.9961 35.8841 80.8936 35.875 80.7979C35.8704 80.6976 35.8682 80.627 35.8682 80.5859C35.859 80.5632 35.8408 80.5199 35.8135 80.4561C35.7861 80.3877 35.7633 80.3444 35.7451 80.3262C35.7406 80.3034 35.7337 80.2806 35.7246 80.2578C35.7155 80.2305 35.7064 80.2168 35.6973 80.2168C35.6654 80.1849 35.6357 80.1689 35.6084 80.1689C35.5856 80.1689 35.5651 80.1712 35.5469 80.1758C35.5332 80.1803 35.5173 80.1826 35.499 80.1826C35.4762 80.1826 35.4557 80.1781 35.4375 80.1689C35.3236 80.1462 35.2188 80.1188 35.123 80.0869C35.0319 80.055 34.9476 79.9889 34.8701 79.8887C34.861 79.8659 34.8542 79.8499 34.8496 79.8408C34.8496 79.8317 34.8496 79.8112 34.8496 79.7793C34.8496 79.7702 34.8519 79.7611 34.8564 79.752C34.861 79.7383 34.8656 79.7269 34.8701 79.7178C34.943 79.6266 35.0319 79.5719 35.1367 79.5537C35.2415 79.5309 35.3509 79.5195 35.4648 79.5195C35.5469 79.5195 35.6289 79.5241 35.7109 79.5332C35.793 79.5378 35.8727 79.54 35.9502 79.54C35.9867 79.54 36.0391 79.5332 36.1074 79.5195C36.1803 79.5059 36.2419 79.499 36.292 79.499H36.7158C36.7568 79.499 36.8047 79.4967 36.8594 79.4922C36.9186 79.4876 36.9779 79.4854 37.0371 79.4854C37.1283 79.4854 37.2171 79.4922 37.3037 79.5059C37.3903 79.5195 37.4632 79.5469 37.5225 79.5879C37.5316 79.6016 37.5361 79.6266 37.5361 79.6631C37.5407 79.6995 37.543 79.7223 37.543 79.7314C37.543 79.8226 37.5202 79.8932 37.4746 79.9434C37.4336 79.9889 37.3789 80.0254 37.3105 80.0527C37.2467 80.0755 37.1761 80.0938 37.0986 80.1074C37.0257 80.1211 36.9574 80.1416 36.8936 80.1689C36.8206 80.2008 36.7614 80.251 36.7158 80.3193C36.6702 80.3877 36.6475 80.4629 36.6475 80.5449C36.6475 80.6178 36.6543 80.6816 36.668 80.7363C36.6862 80.791 36.6953 80.8548 36.6953 80.9277V81.0439C36.6953 81.0576 36.6862 81.0872 36.668 81.1328C36.6543 81.1784 36.6475 81.2035 36.6475 81.208V81.3789V81.7754C36.6429 81.8255 36.6383 81.9121 36.6338 82.0352C36.6292 82.1582 36.6224 82.2904 36.6133 82.4316C36.6087 82.5684 36.6042 82.6982 36.5996 82.8213C36.5951 82.9443 36.5905 83.0309 36.5859 83.0811C36.5632 83.1266 36.5472 83.1722 36.5381 83.2178C36.529 83.2588 36.5221 83.3021 36.5176 83.3477C36.513 83.3887 36.5085 83.4297 36.5039 83.4707C36.5039 83.5117 36.4971 83.555 36.4834 83.6006C36.4788 83.6143 36.472 83.6393 36.4629 83.6758C36.4538 83.7077 36.4424 83.7441 36.4287 83.7852C36.4196 83.8262 36.4105 83.8649 36.4014 83.9014C36.3923 83.9333 36.3877 83.9538 36.3877 83.9629C36.3786 83.972 36.3717 83.9948 36.3672 84.0312C36.3626 84.0632 36.3581 84.0973 36.3535 84.1338C36.3535 84.1657 36.349 84.1976 36.3398 84.2295C36.3353 84.2568 36.3307 84.2705 36.3262 84.2705C36.3262 84.2842 36.3102 84.3161 36.2783 84.3662C36.2464 84.4118 36.2282 84.4391 36.2236 84.4482C36.2145 84.4574 36.1986 84.487 36.1758 84.5371C36.153 84.5872 36.1257 84.6419 36.0938 84.7012C36.0664 84.7604 36.0391 84.8151 36.0117 84.8652C35.9844 84.9154 35.9661 84.9473 35.957 84.9609C35.875 85.1159 35.7679 85.2549 35.6357 85.3779C35.5081 85.501 35.3714 85.6263 35.2256 85.7539C35.2074 85.7676 35.18 85.7881 35.1436 85.8154C35.1071 85.8382 35.0684 85.8633 35.0273 85.8906C34.9909 85.918 34.9567 85.943 34.9248 85.9658C34.8929 85.984 34.8747 85.9954 34.8701 86H34.6719C34.5853 86.0091 34.5078 86.0182 34.4395 86.0273C34.3757 86.041 34.3118 86.0524 34.248 86.0615C34.1842 86.0752 34.1182 86.0866 34.0498 86.0957C33.9814 86.1048 33.904 86.1094 33.8174 86.1094H33.4072C33.3571 86.0866 33.3047 86.0706 33.25 86.0615C33.1953 86.0524 33.1406 86.0433 33.0859 86.0342C33.0358 86.0296 32.9857 86.0205 32.9355 86.0068C32.8854 85.9977 32.8376 85.9795 32.792 85.9521C32.7783 85.9476 32.7487 85.9316 32.7031 85.9043C32.6576 85.8724 32.6051 85.8359 32.5459 85.7949C32.4912 85.7539 32.4365 85.7152 32.3818 85.6787C32.3271 85.6377 32.2861 85.6035 32.2588 85.5762L32.2109 85.542C32.1745 85.4827 32.1357 85.4326 32.0947 85.3916C32.0537 85.346 32.0127 85.3027 31.9717 85.2617C31.9307 85.2207 31.8896 85.1774 31.8486 85.1318C31.8122 85.0817 31.7803 85.0247 31.7529 84.9609C31.6572 84.7422 31.5889 84.5075 31.5479 84.2568C31.5114 84.0016 31.4932 83.751 31.4932 83.5049C31.4886 83.4502 31.484 83.375 31.4795 83.2793C31.4795 83.179 31.4795 83.0651 31.4795 82.9375C31.4795 82.8053 31.4795 82.6641 31.4795 82.5137C31.4795 82.3633 31.4795 82.2083 31.4795 82.0488C31.4795 81.8939 31.4795 81.7412 31.4795 81.5908C31.4795 81.4404 31.4795 81.3014 31.4795 81.1738C31.4795 81.0417 31.4795 80.9255 31.4795 80.8252C31.484 80.7204 31.4886 80.6406 31.4932 80.5859ZM42.1025 80.5586C42.139 80.5404 42.1641 80.5085 42.1777 80.4629C42.1914 80.4173 42.1982 80.3717 42.1982 80.3262C42.1982 80.2305 42.1618 80.1644 42.0889 80.1279C42.0205 80.0869 41.943 80.0573 41.8564 80.0391C41.7744 80.0163 41.6969 79.9935 41.624 79.9707C41.5557 79.9434 41.5215 79.8955 41.5215 79.8271C41.5215 79.8044 41.5306 79.7861 41.5488 79.7725C41.5671 79.7542 41.5898 79.7406 41.6172 79.7314C41.6445 79.7178 41.6719 79.7064 41.6992 79.6973C41.7311 79.6882 41.7585 79.679 41.7812 79.6699C41.804 79.6608 41.8405 79.6517 41.8906 79.6426C41.9453 79.6335 41.9772 79.6289 41.9863 79.6289H43.1895C43.2715 79.5924 43.3512 79.5719 43.4287 79.5674C43.5062 79.5583 43.5837 79.5537 43.6611 79.5537C43.7204 79.5537 43.7751 79.556 43.8252 79.5605C43.8799 79.5605 43.9255 79.5674 43.9619 79.5811C44.0029 79.5947 44.0348 79.6198 44.0576 79.6562C44.0804 79.6927 44.0918 79.7451 44.0918 79.8135C44.0918 79.9092 44.0645 79.9821 44.0098 80.0322C43.9596 80.0824 43.8958 80.1211 43.8184 80.1484C43.7409 80.1712 43.6589 80.1895 43.5723 80.2031C43.4902 80.2168 43.4173 80.2327 43.3535 80.251C43.1484 80.3239 42.9661 80.4219 42.8066 80.5449C42.6517 80.6634 42.5036 80.8092 42.3623 80.9824C42.3486 80.9961 42.3236 81.0257 42.2871 81.0713C42.2507 81.1123 42.2096 81.1579 42.1641 81.208C42.123 81.2581 42.0843 81.306 42.0479 81.3516C42.0114 81.3926 41.9863 81.4199 41.9727 81.4336C41.9544 81.4564 41.9339 81.4837 41.9111 81.5156C41.8883 81.5475 41.861 81.5749 41.8291 81.5977C41.7699 81.6478 41.7129 81.7116 41.6582 81.7891C41.6035 81.8665 41.5579 81.9417 41.5215 82.0146C41.5033 82.0465 41.4873 82.0762 41.4736 82.1035C41.4645 82.1309 41.46 82.1673 41.46 82.2129C41.46 82.3086 41.485 82.4089 41.5352 82.5137C41.5853 82.6185 41.6331 82.7165 41.6787 82.8076C41.6969 82.835 41.7197 82.876 41.7471 82.9307C41.7744 82.9808 41.8018 83.0309 41.8291 83.0811C41.8564 83.1312 41.8792 83.1768 41.8975 83.2178C41.9202 83.2588 41.9339 83.2839 41.9385 83.293C41.943 83.3021 41.959 83.3294 41.9863 83.375C42.0182 83.416 42.0524 83.4639 42.0889 83.5186C42.1253 83.5687 42.1572 83.6165 42.1846 83.6621C42.2165 83.7077 42.237 83.7373 42.2461 83.751L42.4102 84.0586C42.4648 84.1862 42.5218 84.3138 42.5811 84.4414C42.6403 84.5645 42.7041 84.6852 42.7725 84.8037C42.8408 84.9176 42.9183 85.027 43.0049 85.1318C43.0915 85.2367 43.1917 85.3369 43.3057 85.4326C43.3467 85.4645 43.3991 85.4919 43.4629 85.5146C43.5267 85.5329 43.5882 85.5534 43.6475 85.5762C43.7113 85.599 43.7637 85.6309 43.8047 85.6719C43.8503 85.7083 43.873 85.763 43.873 85.8359C43.873 85.9271 43.8434 85.984 43.7842 86.0068C43.7295 86.0342 43.6657 86.0479 43.5928 86.0479C43.5518 86.0479 43.5085 86.0456 43.4629 86.041C43.4219 86.0365 43.3854 86.0342 43.3535 86.0342C43.3353 86.0433 43.2897 86.0501 43.2168 86.0547C43.1439 86.0638 43.0641 86.0729 42.9775 86.082C42.8955 86.0911 42.818 86.098 42.7451 86.1025C42.6722 86.1071 42.6266 86.1094 42.6084 86.1094H42.5742C42.5697 86.1094 42.5537 86.1071 42.5264 86.1025C42.499 86.098 42.4694 86.0911 42.4375 86.082C42.4102 86.0729 42.3805 86.0638 42.3486 86.0547C42.3213 86.0501 42.3053 86.0433 42.3008 86.0342C42.278 86.0342 42.2301 86.0319 42.1572 86.0273C42.0889 86.0228 42.0137 86.0182 41.9316 86.0137C41.8542 86.0137 41.7812 86.0114 41.7129 86.0068C41.6445 86.0023 41.6012 86 41.583 86C41.5648 86 41.526 85.9954 41.4668 85.9863C41.4121 85.9727 41.3757 85.9613 41.3574 85.9521V85.9043C41.3574 85.8314 41.3734 85.7812 41.4053 85.7539C41.4417 85.7266 41.4782 85.7038 41.5146 85.6855C41.5557 85.6628 41.5921 85.6354 41.624 85.6035C41.6605 85.5716 41.6787 85.5146 41.6787 85.4326C41.6787 85.387 41.665 85.3141 41.6377 85.2139C41.6104 85.1136 41.5716 85.0042 41.5215 84.8857C41.4759 84.7627 41.4235 84.6374 41.3643 84.5098C41.3096 84.3822 41.2503 84.266 41.1865 84.1611C41.1273 84.0563 41.0703 83.9697 41.0156 83.9014C40.9609 83.833 40.9131 83.7988 40.8721 83.7988C40.7946 83.7988 40.7308 83.8216 40.6807 83.8672C40.6305 83.9082 40.5872 83.9606 40.5508 84.0244C40.5143 84.0837 40.4824 84.1475 40.4551 84.2158C40.4277 84.2842 40.4004 84.3434 40.373 84.3936C40.3594 84.4163 40.3252 84.471 40.2705 84.5576C40.2158 84.6396 40.1543 84.7308 40.0859 84.8311C40.0221 84.9313 39.9606 85.0247 39.9014 85.1113C39.8467 85.1979 39.8125 85.2503 39.7988 85.2686C39.7897 85.2731 39.7783 85.2891 39.7646 85.3164C39.7555 85.3392 39.7464 85.3551 39.7373 85.3643V85.4121C39.7373 85.4759 39.7646 85.5215 39.8193 85.5488C39.874 85.5762 39.9378 85.6012 40.0107 85.624C40.0837 85.6423 40.1566 85.6673 40.2295 85.6992C40.307 85.7266 40.3662 85.7721 40.4072 85.8359C40.4072 85.8952 40.3913 85.9362 40.3594 85.959C40.332 85.9772 40.2979 85.9909 40.2568 86H38.3428C38.3063 86 38.2835 85.9863 38.2744 85.959C38.2699 85.9271 38.2676 85.9043 38.2676 85.8906V85.8359C38.3223 85.7721 38.3838 85.7197 38.4521 85.6787C38.5251 85.6377 38.598 85.6012 38.6709 85.5693C38.7484 85.5374 38.8258 85.5078 38.9033 85.4805C38.9808 85.4486 39.0537 85.4098 39.1221 85.3643C39.1403 85.346 39.1768 85.3118 39.2314 85.2617C39.2861 85.207 39.3431 85.1501 39.4023 85.0908C39.4661 85.0316 39.5254 84.9746 39.5801 84.9199C39.6393 84.8652 39.6803 84.8265 39.7031 84.8037C39.8216 84.667 39.9219 84.5257 40.0039 84.3799C40.0905 84.2295 40.1748 84.0768 40.2568 83.9219C40.266 83.9082 40.2865 83.8877 40.3184 83.8604C40.3503 83.8285 40.3685 83.8079 40.373 83.7988C40.3867 83.7806 40.4049 83.7555 40.4277 83.7236C40.4551 83.6872 40.4779 83.653 40.4961 83.6211C40.5189 83.5892 40.5371 83.5618 40.5508 83.5391C40.569 83.5117 40.5781 83.4958 40.5781 83.4912C40.5781 83.4912 40.5781 83.4798 40.5781 83.457C40.5827 83.4297 40.585 83.4001 40.585 83.3682C40.5895 83.3363 40.5918 83.3066 40.5918 83.2793C40.5964 83.2474 40.5986 83.2246 40.5986 83.2109C40.5986 83.1973 40.5964 83.1768 40.5918 83.1494C40.5918 83.1221 40.5895 83.0924 40.585 83.0605C40.585 83.0286 40.5827 82.999 40.5781 82.9717C40.5781 82.9398 40.5781 82.9193 40.5781 82.9102C40.4505 82.8327 40.3548 82.7438 40.291 82.6436C40.2272 82.5387 40.168 82.4202 40.1133 82.2881C40.1087 82.2744 40.0951 82.2493 40.0723 82.2129C40.0495 82.1764 40.0267 82.14 40.0039 82.1035C39.9811 82.0625 39.9583 82.026 39.9355 81.9941C39.9173 81.9577 39.9059 81.9372 39.9014 81.9326C39.8831 81.8962 39.8558 81.8392 39.8193 81.7617C39.7874 81.6842 39.7601 81.6296 39.7373 81.5977C39.7282 81.5931 39.7191 81.5794 39.71 81.5566C39.7008 81.5293 39.6917 81.502 39.6826 81.4746C39.6735 81.4473 39.6644 81.4199 39.6553 81.3926C39.6507 81.3652 39.6462 81.347 39.6416 81.3379L39.6279 81.3242C39.6234 81.3197 39.6165 81.3174 39.6074 81.3174C39.6029 81.3128 39.5983 81.306 39.5938 81.2969C39.5755 81.2832 39.5596 81.2695 39.5459 81.2559C39.4548 81.1419 39.3818 81.0234 39.3271 80.9004C39.277 80.7773 39.2087 80.6634 39.1221 80.5586C39.0628 80.4902 39.0013 80.431 38.9375 80.3809C38.8737 80.3262 38.8076 80.276 38.7393 80.2305C38.6755 80.1849 38.6094 80.1393 38.541 80.0938C38.4727 80.0482 38.4066 79.9958 38.3428 79.9365C38.3063 79.9137 38.2835 79.8864 38.2744 79.8545C38.2699 79.818 38.2676 79.7816 38.2676 79.7451C38.2676 79.695 38.279 79.6631 38.3018 79.6494C38.3245 79.6357 38.361 79.6289 38.4111 79.6289H38.4385C38.4385 79.6289 38.4476 79.6312 38.4658 79.6357C38.4886 79.6403 38.5114 79.6449 38.5342 79.6494C38.5615 79.654 38.5843 79.6585 38.6025 79.6631C38.6253 79.6676 38.6413 79.6699 38.6504 79.6699H38.6846C38.9762 79.6699 39.2633 79.6608 39.5459 79.6426C39.833 79.6243 40.1201 79.6152 40.4072 79.6152C40.5166 79.6152 40.5964 79.6289 40.6465 79.6562C40.7012 79.679 40.7285 79.7428 40.7285 79.8477C40.7285 79.9388 40.7103 80.0026 40.6738 80.0391C40.6374 80.071 40.5964 80.096 40.5508 80.1143C40.5052 80.1325 40.4642 80.1553 40.4277 80.1826C40.3913 80.21 40.373 80.2646 40.373 80.3467C40.373 80.3831 40.3867 80.431 40.4141 80.4902C40.4414 80.5449 40.4642 80.5837 40.4824 80.6064C40.4961 80.6292 40.5257 80.6862 40.5713 80.7773C40.6214 80.8639 40.6738 80.9596 40.7285 81.0645C40.7878 81.1647 40.8424 81.2581 40.8926 81.3447C40.9427 81.4313 40.9746 81.486 40.9883 81.5088C41.0202 81.5544 41.0475 81.5908 41.0703 81.6182C41.0977 81.6455 41.1296 81.6592 41.166 81.6592C41.2207 81.6592 41.2822 81.6364 41.3506 81.5908C41.4235 81.5407 41.5169 81.4723 41.6309 81.3857C41.6764 81.3493 41.722 81.2923 41.7676 81.2148C41.8177 81.1328 41.8633 81.0508 41.9043 80.9688C41.9453 80.8822 41.9818 80.8001 42.0137 80.7227C42.0501 80.6452 42.0798 80.5905 42.1025 80.5586ZM50.7705 85.9863C50.7523 85.9863 50.7249 85.9886 50.6885 85.9932C50.6566 85.9932 50.6224 85.9932 50.5859 85.9932C50.554 85.9932 50.5244 85.9954 50.4971 86C50.4697 86 50.4561 86 50.4561 86L50.292 86.0615L49.4512 86.0137H47.6602C47.5918 85.9909 47.5326 85.9749 47.4824 85.9658C47.4368 85.9567 47.3822 85.9521 47.3184 85.9521C47.2682 85.9521 47.2295 85.9544 47.2021 85.959C47.1748 85.9635 47.1383 85.9772 47.0928 86C47.0472 86 46.9697 85.9977 46.8604 85.9932C46.7555 85.9886 46.6439 85.9863 46.5254 85.9863C46.4069 85.9863 46.293 85.9886 46.1836 85.9932C46.0788 85.9977 46.0081 86 45.9717 86C45.958 86 45.9329 86.0023 45.8965 86.0068C45.8646 86.0114 45.8281 86.0137 45.7871 86.0137C45.7507 86.0182 45.7142 86.0228 45.6777 86.0273C45.6458 86.0319 45.6253 86.0342 45.6162 86.0342C45.6025 86.0387 45.5866 86.041 45.5684 86.041C45.5547 86.0456 45.541 86.0479 45.5273 86.0479C45.5182 86.0479 45.5091 86.0479 45.5 86.0479C45.377 86.0479 45.2835 86.0342 45.2197 86.0068C45.1605 85.984 45.1081 85.9111 45.0625 85.7881C45.0443 85.7881 45.0352 85.7835 45.0352 85.7744C45.0306 85.7699 45.0306 85.763 45.0352 85.7539C45.0352 85.7174 45.0465 85.6787 45.0693 85.6377C45.0967 85.5921 45.1286 85.5511 45.165 85.5146C45.2061 85.4782 45.2471 85.4486 45.2881 85.4258C45.3337 85.3984 45.377 85.3848 45.418 85.3848H46.0674C46.0765 85.3848 46.1061 85.3597 46.1562 85.3096C46.2064 85.2549 46.2474 85.2139 46.2793 85.1865C46.2884 85.1774 46.2975 85.1592 46.3066 85.1318C46.3203 85.0999 46.3271 85.0771 46.3271 85.0635C46.3818 84.7946 46.4137 84.528 46.4229 84.2637C46.432 83.9993 46.4365 83.7236 46.4365 83.4365C46.4365 83.4137 46.4365 83.3636 46.4365 83.2861C46.4411 83.2041 46.4434 83.1084 46.4434 82.999C46.4479 82.8896 46.4525 82.7757 46.457 82.6572C46.4616 82.5342 46.4639 82.418 46.4639 82.3086C46.4684 82.1992 46.4707 82.1058 46.4707 82.0283C46.4753 81.9463 46.4775 81.8916 46.4775 81.8643V81.4951C46.4775 81.1305 46.4707 80.7705 46.457 80.415C46.4434 80.0596 46.4365 79.7064 46.4365 79.3555V79.3076C46.4365 79.2939 46.4388 79.2598 46.4434 79.2051C46.4479 79.1458 46.4525 79.0843 46.457 79.0205C46.4616 78.9567 46.4661 78.8975 46.4707 78.8428C46.4753 78.7881 46.4775 78.7539 46.4775 78.7402C46.4821 78.6992 46.4867 78.6286 46.4912 78.5283C46.4958 78.4235 46.5003 78.3141 46.5049 78.2002C46.5094 78.0817 46.514 77.9723 46.5186 77.8721C46.5231 77.7718 46.5254 77.7012 46.5254 77.6602C46.5026 77.5918 46.4889 77.5212 46.4844 77.4482C46.4798 77.3708 46.473 77.2979 46.4639 77.2295C46.4548 77.1566 46.4365 77.0882 46.4092 77.0244C46.3818 76.9606 46.3385 76.9059 46.2793 76.8604C46.252 76.8558 46.2041 76.8512 46.1357 76.8467C46.0674 76.8421 45.9945 76.8398 45.917 76.8398C45.8441 76.8353 45.7734 76.8307 45.7051 76.8262C45.6367 76.8216 45.5911 76.8171 45.5684 76.8125C45.4954 76.8034 45.4157 76.792 45.3291 76.7783C45.2425 76.7601 45.1628 76.735 45.0898 76.7031C45.0169 76.6667 44.9554 76.6188 44.9053 76.5596C44.8597 76.5003 44.8369 76.4229 44.8369 76.3271L44.8643 76.3135C44.8734 76.3089 44.8802 76.3044 44.8848 76.2998C44.8893 76.2952 44.8962 76.293 44.9053 76.293C45.0146 76.2292 45.1126 76.1882 45.1992 76.1699C45.2858 76.1471 45.3975 76.1357 45.5342 76.1357H45.5684C45.582 76.1494 45.5957 76.1608 45.6094 76.1699C45.6367 76.1882 45.6549 76.1973 45.6641 76.1973C45.8919 76.2155 46.1198 76.2292 46.3477 76.2383C46.5755 76.2428 46.8057 76.2451 47.0381 76.2451C47.2295 76.2451 47.4163 76.2428 47.5986 76.2383C47.7809 76.2337 47.9609 76.2314 48.1387 76.2314H49.6494C49.6676 76.2314 49.6973 76.2292 49.7383 76.2246C49.7793 76.2201 49.8226 76.2178 49.8682 76.2178C49.9183 76.2132 49.9661 76.2087 50.0117 76.2041C50.0573 76.1995 50.0915 76.1973 50.1143 76.1973H50.1621H50.2031C50.2168 76.1973 50.2487 76.1995 50.2988 76.2041C50.349 76.2087 50.4036 76.2132 50.4629 76.2178C50.5221 76.2178 50.5768 76.2201 50.627 76.2246C50.6816 76.2292 50.7158 76.2314 50.7295 76.2314H51.543C51.5794 76.236 51.6318 76.2406 51.7002 76.2451C51.7731 76.2497 51.8438 76.2542 51.9121 76.2588C51.985 76.2633 52.0488 76.2702 52.1035 76.2793C52.1582 76.2839 52.1878 76.2884 52.1924 76.293C52.1969 76.293 52.2152 76.2998 52.2471 76.3135C52.279 76.3271 52.3132 76.3454 52.3496 76.3682C52.3906 76.3864 52.4294 76.4069 52.4658 76.4297C52.5068 76.4525 52.5387 76.473 52.5615 76.4912C52.6071 76.5186 52.6436 76.5846 52.6709 76.6895C52.7028 76.7897 52.7279 76.9014 52.7461 77.0244C52.7643 77.1475 52.778 77.2682 52.7871 77.3867C52.8008 77.5052 52.8122 77.5964 52.8213 77.6602C52.8213 77.6829 52.8236 77.724 52.8281 77.7832C52.8372 77.8379 52.8441 77.8971 52.8486 77.9609C52.8532 78.0247 52.8577 78.0863 52.8623 78.1455C52.8669 78.2048 52.8691 78.2458 52.8691 78.2686V78.4531V78.6445C52.8464 78.6855 52.8167 78.7129 52.7803 78.7266C52.7438 78.7357 52.7051 78.7402 52.6641 78.7402H52.6162C52.5661 78.7083 52.5296 78.6764 52.5068 78.6445C52.484 78.6126 52.4658 78.5807 52.4521 78.5488C52.4385 78.5124 52.4248 78.4759 52.4111 78.4395C52.402 78.403 52.3838 78.3643 52.3564 78.3232C52.3564 78.3187 52.3473 78.3096 52.3291 78.2959C52.3154 78.2777 52.2995 78.2594 52.2812 78.2412C52.263 78.223 52.2448 78.207 52.2266 78.1934C52.2083 78.1751 52.1969 78.1637 52.1924 78.1592C52.1286 78.068 52.0648 77.9655 52.001 77.8516C51.9417 77.7331 51.8711 77.6237 51.7891 77.5234C51.7845 77.5143 51.7686 77.4984 51.7412 77.4756C51.7184 77.4528 51.7025 77.4323 51.6934 77.4141C51.6888 77.4049 51.6729 77.3981 51.6455 77.3936C51.6182 77.3844 51.5999 77.3753 51.5908 77.3662C51.5361 77.3298 51.4928 77.2887 51.4609 77.2432C51.429 77.1976 51.3949 77.1543 51.3584 77.1133C51.3265 77.0677 51.29 77.0244 51.249 76.9834C51.208 76.9424 51.151 76.9082 51.0781 76.8809C51.0417 76.8809 50.971 76.8786 50.8662 76.874C50.766 76.8649 50.6589 76.8581 50.5449 76.8535C50.431 76.8444 50.3216 76.8376 50.2168 76.833C50.1165 76.8239 50.0459 76.8171 50.0049 76.8125H49.6494C49.6449 76.8125 49.6243 76.8102 49.5879 76.8057C49.556 76.7965 49.5195 76.7897 49.4785 76.7852C49.4375 76.776 49.3988 76.7692 49.3623 76.7646C49.3258 76.7555 49.3031 76.751 49.2939 76.751H49.1914H49.0957C49.0775 76.751 49.0365 76.7555 48.9727 76.7646C48.9134 76.7692 48.8473 76.776 48.7744 76.7852C48.7061 76.7897 48.64 76.7965 48.5762 76.8057C48.5169 76.8102 48.4805 76.8125 48.4668 76.8125H48.0635C48.0452 76.8125 48.0247 76.8193 48.002 76.833C47.9792 76.8421 47.9678 76.8512 47.9678 76.8604V77.708C47.9632 77.8538 47.9427 77.9928 47.9062 78.125C47.8698 78.2572 47.8516 78.3916 47.8516 78.5283C47.8516 78.7334 47.8607 78.9408 47.8789 79.1504C47.9017 79.3555 47.9131 79.5651 47.9131 79.7793C47.9131 79.9251 47.9017 80.0732 47.8789 80.2236C47.8607 80.374 47.8516 80.529 47.8516 80.6885V80.7363C47.8652 80.75 47.8835 80.7705 47.9062 80.7979C47.929 80.8206 47.9495 80.832 47.9678 80.832H48.1387H48.3164C48.3255 80.832 48.346 80.8298 48.3779 80.8252C48.4098 80.8161 48.444 80.8092 48.4805 80.8047C48.5169 80.7956 48.5488 80.7887 48.5762 80.7842C48.6081 80.7751 48.6263 80.7705 48.6309 80.7705H49.2393C49.2712 80.7705 49.3281 80.7682 49.4102 80.7637C49.4967 80.7591 49.5856 80.7568 49.6768 80.7568C49.7725 80.7523 49.8613 80.7477 49.9434 80.7432C50.0254 80.7386 50.0824 80.7363 50.1143 80.7363C50.1826 80.6771 50.2327 80.5905 50.2646 80.4766C50.2965 80.3581 50.3285 80.2601 50.3604 80.1826C50.3649 80.1689 50.3695 80.137 50.374 80.0869C50.3831 80.0322 50.3923 79.9753 50.4014 79.916C50.4105 79.8568 50.4196 79.8021 50.4287 79.752C50.4378 79.6973 50.4469 79.6631 50.4561 79.6494C50.4561 79.6449 50.4606 79.6335 50.4697 79.6152C50.4834 79.5924 50.4971 79.5719 50.5107 79.5537C50.5244 79.5309 50.5358 79.5104 50.5449 79.4922C50.5586 79.474 50.5677 79.4626 50.5723 79.458C50.5905 79.3988 50.6019 79.335 50.6064 79.2666C50.611 79.1982 50.6224 79.1367 50.6406 79.082C50.6589 79.0228 50.6885 78.9749 50.7295 78.9385C50.7705 78.902 50.8366 78.8838 50.9277 78.8838C51.028 78.8838 51.0941 78.9066 51.126 78.9521C51.1579 78.9977 51.1738 79.0729 51.1738 79.1777C51.1738 79.2142 51.1715 79.2415 51.167 79.2598C51.1624 79.2734 51.1533 79.3053 51.1396 79.3555C51.1396 79.36 51.1374 79.3714 51.1328 79.3896C51.1283 79.4079 51.126 79.4284 51.126 79.4512C51.126 79.4876 51.1283 79.5218 51.1328 79.5537C51.1374 79.5811 51.1396 79.6016 51.1396 79.6152C51.1351 79.6426 51.1305 79.6995 51.126 79.7861C51.1214 79.8727 51.1146 79.973 51.1055 80.0869C51.0964 80.2008 51.0872 80.3239 51.0781 80.4561C51.069 80.5837 51.0599 80.7067 51.0508 80.8252C51.0417 80.9391 51.0326 81.0394 51.0234 81.126C51.0189 81.2126 51.0143 81.2718 51.0098 81.3037C51.0098 81.3128 51.012 81.3561 51.0166 81.4336C51.0212 81.5065 51.0234 81.5817 51.0234 81.6592C51.0234 81.6956 51.0189 81.7367 51.0098 81.7822C51.0007 81.8232 50.9938 81.8506 50.9893 81.8643C50.9893 81.8643 50.9847 81.8757 50.9756 81.8984C50.971 81.9212 50.9642 81.9486 50.9551 81.9805C50.9505 82.0078 50.9437 82.0352 50.9346 82.0625C50.93 82.0853 50.9277 82.1012 50.9277 82.1104C50.9277 82.124 50.93 82.1559 50.9346 82.2061C50.9391 82.2562 50.9437 82.3109 50.9482 82.3701C50.9574 82.4248 50.9642 82.4772 50.9688 82.5273C50.9733 82.5729 50.9756 82.6025 50.9756 82.6162C50.9756 82.6344 50.9756 82.6618 50.9756 82.6982C50.9801 82.7301 50.9824 82.7643 50.9824 82.8008C50.9824 82.8327 50.9824 82.8646 50.9824 82.8965C50.987 82.9284 50.9893 82.9535 50.9893 82.9717C50.9893 83.0492 50.9801 83.1198 50.9619 83.1836C50.9482 83.2474 50.9163 83.318 50.8662 83.3955C50.8617 83.4183 50.8389 83.4434 50.7979 83.4707C50.7614 83.4935 50.7386 83.5049 50.7295 83.5049C50.7204 83.5049 50.6953 83.4935 50.6543 83.4707C50.6133 83.4434 50.5859 83.4183 50.5723 83.3955C50.4948 83.3317 50.4401 83.2428 50.4082 83.1289C50.3809 83.015 50.3626 82.8919 50.3535 82.7598C50.3444 82.623 50.3398 82.484 50.3398 82.3428C50.3398 82.2015 50.3307 82.0716 50.3125 81.9531C50.2988 81.8301 50.2692 81.7275 50.2236 81.6455C50.1781 81.5635 50.1051 81.5133 50.0049 81.4951C49.9684 81.5042 49.9115 81.5088 49.834 81.5088C49.7565 81.5088 49.6722 81.5088 49.5811 81.5088C49.4854 81.5088 49.3942 81.5088 49.3076 81.5088C49.2256 81.5088 49.1709 81.5042 49.1436 81.4951C49.1208 81.4951 49.0843 81.4928 49.0342 81.4883C48.984 81.4837 48.9316 81.4814 48.877 81.4814C48.8268 81.4769 48.7767 81.4723 48.7266 81.4678C48.681 81.4632 48.6491 81.4609 48.6309 81.4609C48.6263 81.4473 48.6081 81.4313 48.5762 81.4131C48.5443 81.3949 48.5238 81.3857 48.5146 81.3857H48.4463C48.3278 81.3857 48.2139 81.4154 48.1045 81.4746C47.9997 81.5293 47.9359 81.6182 47.9131 81.7412C47.9085 81.7731 47.8971 81.8369 47.8789 81.9326C47.8652 82.0238 47.8493 82.124 47.8311 82.2334C47.8174 82.3428 47.8014 82.4499 47.7832 82.5547C47.7695 82.6549 47.7604 82.7301 47.7559 82.7803V82.8213V82.8691C47.7559 82.9056 47.7581 82.9648 47.7627 83.0469C47.7673 83.1289 47.7718 83.2178 47.7764 83.3135C47.7809 83.4046 47.7855 83.4935 47.79 83.5801C47.7992 83.6621 47.8037 83.7191 47.8037 83.751C47.8265 83.7874 47.8402 83.8148 47.8447 83.833C47.8493 83.8512 47.8516 83.8717 47.8516 83.8945C47.8516 84.0723 47.8424 84.2454 47.8242 84.4141C47.806 84.5827 47.7969 84.7604 47.7969 84.9473C47.7969 84.9655 47.7969 85.0042 47.7969 85.0635C47.8014 85.1227 47.8037 85.1637 47.8037 85.1865C47.8083 85.1956 47.8197 85.2116 47.8379 85.2344C47.8561 85.2526 47.8743 85.2731 47.8926 85.2959C47.9154 85.3141 47.9382 85.3324 47.9609 85.3506C47.9837 85.3688 47.9997 85.3802 48.0088 85.3848C48.0133 85.3939 48.0339 85.4007 48.0703 85.4053C48.1113 85.4098 48.1569 85.4144 48.207 85.4189C48.2572 85.4189 48.305 85.4235 48.3506 85.4326C48.4007 85.4372 48.4395 85.4417 48.4668 85.4463C48.5215 85.4463 48.6149 85.4486 48.7471 85.4531C48.8838 85.4577 49.0273 85.4622 49.1777 85.4668C49.3327 85.4714 49.4762 85.4759 49.6084 85.4805C49.7451 85.4805 49.8408 85.4805 49.8955 85.4805C49.9502 85.5033 50.0049 85.5192 50.0596 85.5283C50.1188 85.5374 50.1758 85.542 50.2305 85.542H50.4219H50.7295C50.734 85.542 50.75 85.5397 50.7773 85.5352C50.8047 85.526 50.8343 85.5192 50.8662 85.5146C50.9027 85.5055 50.9346 85.4987 50.9619 85.4941C50.9893 85.485 51.0052 85.4805 51.0098 85.4805H52.3086C52.3587 85.4668 52.4066 85.4417 52.4521 85.4053C52.4977 85.3643 52.541 85.321 52.582 85.2754C52.623 85.2253 52.6595 85.1751 52.6914 85.125C52.7233 85.0703 52.7507 85.0225 52.7734 84.9814C52.7871 84.9678 52.8053 84.9359 52.8281 84.8857C52.8555 84.8356 52.8805 84.7832 52.9033 84.7285C52.9307 84.6693 52.9557 84.6146 52.9785 84.5645C53.0013 84.5143 53.015 84.4847 53.0195 84.4756C53.0286 84.4619 53.0492 84.4346 53.0811 84.3936C53.113 84.3525 53.1289 84.3275 53.1289 84.3184C53.1335 84.3092 53.1426 84.2842 53.1562 84.2432C53.1699 84.2021 53.1768 84.1771 53.1768 84.168C53.1813 84.1634 53.1927 84.1497 53.2109 84.127C53.2337 84.1042 53.2565 84.0814 53.2793 84.0586C53.3021 84.0358 53.3226 84.013 53.3408 83.9902C53.359 83.9674 53.3704 83.9515 53.375 83.9424C53.3796 83.9378 53.3887 83.9242 53.4023 83.9014C53.4206 83.874 53.4365 83.8444 53.4502 83.8125C53.4684 83.776 53.4821 83.7441 53.4912 83.7168C53.5049 83.6849 53.514 83.6644 53.5186 83.6553C53.5277 83.637 53.5527 83.6097 53.5938 83.5732C53.6393 83.5368 53.6644 83.514 53.6689 83.5049C53.6781 83.4958 53.6895 83.4889 53.7031 83.4844C53.7168 83.4753 53.7282 83.4661 53.7373 83.457C53.751 83.4479 53.7646 83.4411 53.7783 83.4365C53.7965 83.4456 53.8239 83.4684 53.8604 83.5049C53.8968 83.5413 53.9242 83.5687 53.9424 83.5869V83.6211C53.9424 83.6758 53.9333 83.7282 53.915 83.7783C53.9014 83.8285 53.8945 83.8786 53.8945 83.9287C53.8945 83.9925 53.9014 84.0495 53.915 84.0996C53.9333 84.1452 53.9424 84.1999 53.9424 84.2637V84.3184C53.9424 84.332 53.9333 84.3571 53.915 84.3936C53.9014 84.43 53.8945 84.4574 53.8945 84.4756V85.2754C53.89 85.3301 53.8831 85.4007 53.874 85.4873C53.8649 85.5693 53.8467 85.6491 53.8193 85.7266C53.792 85.7995 53.7533 85.8633 53.7031 85.918C53.653 85.9727 53.5869 86 53.5049 86H53.4707C53.457 85.9954 53.4342 85.9909 53.4023 85.9863C53.3704 85.9818 53.3385 85.9772 53.3066 85.9727C53.2747 85.9681 53.2451 85.9635 53.2178 85.959C53.195 85.9544 53.1813 85.9521 53.1768 85.9521L53.1357 85.9248C53.1084 85.9066 53.0947 85.8952 53.0947 85.8906H53.0537H53.0195C52.86 85.9453 52.7096 85.9727 52.5684 85.9727C52.4271 85.9727 52.279 85.9818 52.124 86C52.1104 86 52.0853 86.0023 52.0488 86.0068C52.0124 86.0114 51.9714 86.016 51.9258 86.0205C51.8848 86.0296 51.846 86.0387 51.8096 86.0479C51.7731 86.057 51.7503 86.0638 51.7412 86.0684H51.707C51.625 86.0684 51.5475 86.057 51.4746 86.0342C51.4062 86.0114 51.3265 86 51.2354 86C51.2262 86 51.2012 86 51.1602 86C51.1237 85.9954 51.0804 85.9932 51.0303 85.9932C50.9847 85.9932 50.9368 85.9932 50.8867 85.9932C50.8411 85.9886 50.8024 85.9863 50.7705 85.9863Z" fill="#151618"/>
</svg>
