<svg width="80" height="80" fill="none" xmlns="http://www.w3.org/2000/svg"><g clip-path="url(#clip0_5_2)" fill="#D4C17F"><path d="M53.39 4.622c.182 0 .366-.037.543-.117.382-.171.768-.332 1.16-.48a1.332 1.332 0 00.774-1.72 1.337 1.337 0 00-1.72-.775c-.44.168-.877.35-1.304.541a1.332 1.332 0 00.546 2.55zm-.057 28.916c.738 0 1.334-.596 1.334-1.333v-.231c0-.35.022-.695.066-1.033a1.333 1.333 0 00-1.146-1.496 1.324 1.324 0 00-1.498 1.148c-.058.45-.09.916-.09 1.381v.23a1.334 1.334 0 001.334 1.334zm-6.666.329c.737 0 1.333-.597 1.333-1.333v-1.355a1.333 1.333 0 10-2.667 0v1.355c0 .736.596 1.333 1.334 1.333zm7.656-21.089c-.43.236-.85.49-1.254.761a1.332 1.332 0 101.481 2.216c.344-.228.697-.442 1.06-.642.644-.355.88-1.167.525-1.811a1.335 1.335 0 00-1.812-.524zm-18.913-.136a1.33 1.33 0 001.837.42 1.332 1.332 0 00.421-1.837 23.51 23.51 0 00-.788-1.178 1.333 1.333 0 00-2.17 1.552c.245.34.478.688.7 1.043zm24.378-9.82c.055 0 .112-.004.168-.01.412-.053.83-.093 1.25-.122a1.334 1.334 0 001.244-1.42A1.338 1.338 0 0061.031.03c-.475.03-.944.077-1.408.136a1.333 1.333 0 00.165 2.656zm-4.944 21.9a1.335 1.335 0 001.956 1.813c.277-.299.583-.581.908-.84a1.332 1.332 0 00.215-1.873 1.332 1.332 0 00-1.874-.215c-.43.341-.836.718-1.205 1.115zm-12.092-11.66a1.33 1.33 0 001.837-.42c.223-.355.456-.703.7-1.043a1.333 1.333 0 00-2.17-1.552 22.59 22.59 0 00-.787 1.178 1.333 1.333 0 00.42 1.837zm10.581 26.912c.738 0 1.334-.597 1.334-1.333v-.667a1.333 1.333 0 10-2.667 0v.667c0 .736.596 1.333 1.333 1.333zm-6.694-12.883a1.337 1.337 0 001.503-1.141c.054-.411.127-.816.218-1.216a1.333 1.333 0 00-2.601-.59 17.32 17.32 0 00-.262 1.447 1.334 1.334 0 001.142 1.5zm-9.078-9.911c.134.394.254.793.364 1.198a1.335 1.335 0 001.636.936c.166-.044.31-.124.439-.219a1.317 1.317 0 00.79.267c.584 0 1.123-.39 1.285-.984.11-.405.229-.804.363-1.199a1.333 1.333 0 00-.832-1.692c-.64-.218-1.314.095-1.606.687-.292-.592-.967-.905-1.607-.687a1.332 1.332 0 00-.832 1.692zm10.224-8.972c.311 0 .623-.108.875-.326.316-.275.64-.542.97-.796a1.333 1.333 0 00-1.625-2.114c-.374.288-.74.587-1.094.898a1.333 1.333 0 00.874 2.338zm1.036 9.334c-.293.39-.57.792-.83 1.205a1.335 1.335 0 001.126 2.044c.443 0 .876-.22 1.13-.622a14.7 14.7 0 01.705-1.022 1.335 1.335 0 00-2.13-1.605zm12.482-6.848a16.73 16.73 0 00-1.458.175 1.334 1.334 0 00.432 2.631 14.47 14.47 0 011.231-.148 1.334 1.334 0 001.227-1.433 1.32 1.32 0 00-1.432-1.225zm4.933-7.774c.415.067.828.146 1.236.235a1.333 1.333 0 10.57-2.604c-.458-.101-.92-.188-1.387-.263a1.33 1.33 0 00-1.526 1.107 1.33 1.33 0 001.107 1.525zm2.281 8.732a17.46 17.46 0 00-1.401-.435 1.34 1.34 0 00-1.63.947 1.334 1.334 0 00.947 1.631c.401.105.796.228 1.183.368a1.333 1.333 0 10.901-2.51zm-6.393 9.668a1.333 1.333 0 00-1.265 1.398c.036.736.613 1.296 1.397 1.265a8.33 8.33 0 011.237.033 1.334 1.334 0 10.273-2.653 10.736 10.736 0 00-1.642-.043zM77.681 8.872a1.331 1.331 0 001.884.087c.544-.496.583-1.34.087-1.884-.16-.175-.323-.347-.487-.515a1.333 1.333 0 00-1.907 1.867c.145.145.286.295.423.445zM57.333 50.64h-16a1.333 1.333 0 100 2.667h16c3.739 0 6.667-2.928 6.667-6.667v-2.666c0-.736-.596-1.334-1.333-1.334H17.333c-.737 0-1.333.598-1.333 1.334v2.666c0 3.739 2.928 6.667 6.667 6.667h12v6.667a1.333 1.333 0 102.666 0v-8c0-.736-.596-1.334-1.333-1.334H22.667c-2.244 0-4-1.757-4-4v-1.333h42.666v1.333c0 2.243-1.756 4-4 4zm13.314-19.238c.013.188.02.38.02.572a1.333 1.333 0 102.666 0c0-.256-.01-.51-.028-.762a1.326 1.326 0 00-1.424-1.235 1.334 1.334 0 00-1.234 1.425zm-2.817-7.319a1.335 1.335 0 00.12 1.883c.309.272.598.57.86.884a1.333 1.333 0 002.049-1.707 10.63 10.63 0 00-1.147-1.178 1.333 1.333 0 00-1.881.118zm-26.497 6.483a1.333 1.333 0 10-2.666 0v1.482a1.333 1.333 0 102.666 0v-1.482zM40 36.64c-.737 0-1.333.598-1.333 1.334v.666a1.333 1.333 0 102.666 0v-.666c0-.736-.596-1.334-1.333-1.334zm5.333 2a1.333 1.333 0 102.667 0v-.666a1.333 1.333 0 10-2.667 0v.666zm-4-14.666c0-.21.003-.419.01-.628a1.326 1.326 0 00-.83-1.263c-.051-.022-.109-.022-.162-.038-.1-.027-.195-.067-.303-.07l-.04-.001-.008.001-.008-.001-.04.001c-.108.003-.204.043-.303.07-.053.016-.112.016-.161.038a1.325 1.325 0 00-.83 1.263c.006.21.009.417.009.628v.667a1.333 1.333 0 102.666 0v-.667zM32 38.64a1.333 1.333 0 102.667 0v-.666a1.333 1.333 0 10-2.667 0v.666zm1.333-4.773c.738 0 1.334-.597 1.334-1.333v-1.355a1.333 1.333 0 10-2.667 0v1.355c0 .736.596 1.333 1.333 1.333zM28 38.64v-.666a1.333 1.333 0 10-2.666 0v.666a1.333 1.333 0 102.666 0zM9.312 27.022a1.333 1.333 0 001.879-.172 7.8 7.8 0 01.86-.884c.552-.488.605-1.33.118-1.883a1.33 1.33 0 00-1.881-.119c-.412.363-.799.76-1.148 1.18a1.336 1.336 0 00.172 1.878z"/><path d="M73.333 63.974h-28v-6.667a1.333 1.333 0 10-2.666 0v8c0 .736.596 1.333 1.333 1.333h28v6.667c0 2.205-1.795 4-4 4H12c-2.205 0-4-1.795-4-4V66.64h30.777a1.333 1.333 0 100-2.666H6.667c-.738 0-1.334.597-1.334 1.333v8A6.674 6.674 0 0012 79.974h56a6.674 6.674 0 006.667-6.667v-8c0-.736-.596-1.333-1.334-1.333z"/><path d="M32 70.64v2.667a1.333 1.333 0 102.667 0V70.64a1.333 1.333 0 10-2.667 0zM1.393 25.975l-.048-.001c-.713 0-1.306.566-1.33 1.286-.01.238-.015.475-.015.714a1.333 1.333 0 102.667 0c0-.208.005-.414.012-.62a1.332 1.332 0 00-1.286-1.379zm5.76-8.561c.299-.288.61-.563.93-.824a1.332 1.332 0 10-1.687-2.066c-.377.31-.744.634-1.093.973a1.333 1.333 0 101.85 1.917zm-3.525 2.189a1.334 1.334 0 00-1.79.595c-.218.434-.42.881-.602 1.336a1.334 1.334 0 002.476.99c.153-.385.324-.762.51-1.132a1.332 1.332 0 00-.594-1.789zM6.03 5.563c.225 0 .454-.057.663-.177.362-.208.728-.404 1.103-.587.66-.325.932-1.125.608-1.785a1.335 1.335 0 00-1.785-.608c-.427.21-.846.432-1.256.668a1.334 1.334 0 00.666 2.49zM18.667 70.64v2.667a1.333 1.333 0 102.666 0V70.64a1.333 1.333 0 10-2.666 0zm59.354-47.373a1.334 1.334 0 00.743-1.733 16.986 16.986 0 00-.603-1.336 1.332 1.332 0 10-2.383 1.195c.186.369.357.746.51 1.132a1.333 1.333 0 001.733.742zm1.964 3.993c-.024-.737-.677-1.328-1.378-1.285a1.332 1.332 0 00-1.286 1.379c.007.206.012.412.012.62a1.333 1.333 0 102.667 0c0-.239-.005-.476-.015-.714zM74.636 3.074c-.41-.236-.828-.459-1.255-.668a1.338 1.338 0 00-1.785.608c-.324.66-.052 1.46.608 1.785.375.183.741.379 1.101.587a1.335 1.335 0 001.33-2.312zM61.333 73.307V70.64a1.333 1.333 0 10-2.666 0v2.667a1.333 1.333 0 102.666 0zm-13.333 0V70.64a1.333 1.333 0 10-2.666 0v2.667a1.333 1.333 0 102.666 0zm25.604-58.783a1.333 1.333 0 00-1.688 2.065c.321.262.632.537.93.825a1.332 1.332 0 101.85-1.917c-.348-.34-.715-.663-1.092-.973zM8.119 29.977a1.321 1.321 0 00-1.426 1.235 11.34 11.34 0 00-.026.762 1.333 1.333 0 102.666 0c0-.192.007-.384.02-.572a1.334 1.334 0 00-1.234-1.425zm18.294-.532a1.334 1.334 0 00-1.146 1.495c.044.339.066.683.066 1.034v.23a1.332 1.332 0 102.667 0v-.23c0-.466-.03-.93-.09-1.382a1.327 1.327 0 00-1.497-1.147zm-1.506-25.42c.392.147.778.309 1.16.48a1.333 1.333 0 001.09-2.433 24.46 24.46 0 00-1.305-.542 1.338 1.338 0 00-1.718.775 1.332 1.332 0 00.773 1.72zm-.517 11.088c.362.2.717.414 1.06.642a1.333 1.333 0 101.481-2.216c-.406-.27-.824-.525-1.254-.761a1.335 1.335 0 00-1.812.524 1.335 1.335 0 00.526 1.81zM1.333 9.307c.362 0 .723-.147.986-.435.137-.15.279-.3.422-.445A1.334 1.334 0 00.835 6.561c-.164.168-.327.34-.487.514a1.334 1.334 0 00.985 2.232zm20.959 16.388c.325.259.63.541.908.84a1.334 1.334 0 101.956-1.813c-.37-.398-.775-.774-1.205-1.115a1.333 1.333 0 10-1.659 2.088zm7.461-5.527a1.331 1.331 0 001.84.419c.622-.393.81-1.217.417-1.84a18.475 18.475 0 00-.831-1.205 1.336 1.336 0 00-1.868-.263 1.335 1.335 0 00-.263 1.868c.25.33.484.67.705 1.021zm.617-13.082c.33.254.654.521.97.796.252.22.564.326.875.326a1.333 1.333 0 00.875-2.339c-.355-.31-.72-.609-1.095-.897a1.334 1.334 0 00-1.625 2.113zm-18.129-3.9c.095 0 .19-.01.286-.03.41-.09.822-.169 1.237-.236a1.331 1.331 0 001.107-1.525A1.327 1.327 0 0013.345.288c-.468.075-.93.162-1.388.263a1.333 1.333 0 00.284 2.635zm6.552-.496c.422.03.839.07 1.251.121a1.333 1.333 0 10.333-2.645A23.175 23.175 0 0018.971.03a1.34 1.34 0 00-1.42 1.241 1.334 1.334 0 001.242 1.419zm13.852 20.45a1.333 1.333 0 00-1.006 1.594c.092.4.164.805.22 1.216a1.336 1.336 0 001.501 1.141 1.334 1.334 0 001.143-1.5c-.067-.488-.155-.97-.262-1.447a1.337 1.337 0 00-1.596-1.005zm-20.712-8.898c.15 0 .302-.026.451-.079.387-.14.781-.262 1.183-.368a1.335 1.335 0 00.948-1.63 1.338 1.338 0 00-1.631-.948c-.473.125-.941.272-1.401.436a1.333 1.333 0 00.45 2.589zm6.559-.89c.415.032.824.082 1.23.148a1.33 1.33 0 001.53-1.099 1.334 1.334 0 00-1.097-1.532 16.805 16.805 0 00-1.458-.175 1.332 1.332 0 10-.205 2.658zm-2.124 10.671c.045 0 .092-.001.139-.007a8.317 8.317 0 011.237-.033 1.315 1.315 0 001.397-1.265 1.333 1.333 0 00-1.265-1.398 10.7 10.7 0 00-1.643.043 1.334 1.334 0 00.135 2.66z"/></g><defs><clipPath id="clip0_5_2"><path fill="#fff" d="M0 0h80v80H0z"/></clipPath></defs></svg>