<svg width="38" height="20" fill="none" xmlns="http://www.w3.org/2000/svg"><path d="M37.483 18.062a2.358 2.358 0 00-.127-.228c-.649-1.095-1.889-2.44-3.72-4.034l-.038-.036-.02-.018-.019-.019h-.02c-.83-.742-1.356-1.24-1.577-1.496-.403-.487-.493-.98-.273-1.479.156-.377.74-1.174 1.753-2.39.532-.646.954-1.162 1.266-1.552 2.246-2.799 3.22-4.587 2.92-5.366l-.115-.182c-.078-.11-.28-.21-.604-.301-.325-.091-.74-.106-1.246-.045l-5.608.036c-.091-.03-.221-.028-.39.009l-.253.055-.098.046-.077.055a.845.845 0 00-.215.191 1.235 1.235 0 00-.194.32 29.007 29.007 0 01-2.084 4.106c-.48.754-.921 1.408-1.324 1.962-.403.553-.74.961-1.013 1.223a6.927 6.927 0 01-.74.63c-.22.158-.389.225-.506.2a14.98 14.98 0 01-.331-.073 1.247 1.247 0 01-.438-.447 1.912 1.912 0 01-.224-.712 7.394 7.394 0 01-.068-.74c-.006-.206-.004-.498.01-.875.013-.378.02-.633.02-.767 0-.462.009-.964.028-1.506l.049-1.286c.013-.317.02-.651.02-1.004s-.024-.63-.069-.83a2.715 2.715 0 00-.204-.585 1.005 1.005 0 00-.399-.438 2.339 2.339 0 00-.652-.246c-.688-.146-1.565-.225-2.63-.237-2.414-.025-3.965.121-4.653.438a2.58 2.58 0 00-.74.547c-.234.268-.267.414-.098.438.78.11 1.33.371 1.655.785l.117.219c.091.158.182.438.273.84.09.401.15.845.175 1.332.065.888.065 1.648 0 2.281a25.534 25.534 0 01-.185 1.478c-.059.353-.146.64-.263.858a3.566 3.566 0 01-.234.402.325.325 0 01-.097.09 1.509 1.509 0 01-.526.092c-.182 0-.402-.085-.662-.255a4.57 4.57 0 01-.808-.703c-.279-.298-.594-.715-.944-1.25a21.409 21.409 0 01-1.09-1.898l-.312-.53c-.195-.34-.461-.836-.799-1.487a27.813 27.813 0 01-.895-1.89 1.215 1.215 0 00-.468-.583l-.097-.055A1.363 1.363 0 007.31.997a2.175 2.175 0 00-.448-.119L1.527.914c-.545 0-.915.116-1.11.347l-.078.11C.3 1.43.28 1.529.28 1.663c0 .134.04.298.117.493A58.661 58.661 0 002.938 7.12c.916 1.594 1.71 2.878 2.386 3.85a45.599 45.599 0 002.064 2.757c.701.864 1.165 1.417 1.392 1.66.227.244.406.426.536.548l.487.438c.311.292.769.642 1.372 1.05a24.05 24.05 0 002.006 1.205c.734.395 1.587.717 2.561.966.974.25 1.921.35 2.843.302h2.24c.454-.037.798-.17 1.032-.402l.077-.091c.052-.073.101-.186.146-.337.046-.153.068-.32.068-.502a5.65 5.65 0 01.127-1.415c.097-.42.207-.736.331-.949.124-.213.263-.392.419-.538.155-.146.266-.234.331-.265a1.33 1.33 0 01.155-.063c.312-.098.679-.003 1.101.283.422.286.818.639 1.188 1.058.37.42.814.892 1.334 1.415.52.523.974.912 1.363 1.168l.39.219c.26.146.597.28 1.012.401.415.122.778.152 1.09.092l4.985-.073c.493 0 .877-.077 1.15-.229.272-.152.434-.32.486-.502.052-.182.055-.389.01-.62a2.174 2.174 0 00-.137-.484z" fill="#fff"/></svg>