<svg width="80" height="80" fill="none" xmlns="http://www.w3.org/2000/svg"><path d="M20 68.001H1.333a1.333 1.333 0 100 2.667H20A1.333 1.333 0 1020 68zm-4-2.669c8.823 0 16-7.179 16-16 0-4.418-1.761-8.53-4.96-11.583a1.335 1.335 0 00-1.841 1.93 13.227 13.227 0 014.134 9.653c0 7.352-5.981 13.333-13.333 13.333S2.667 56.684 2.667 49.332c0-7.354 5.981-13.334 13.333-13.334a1.333 1.333 0 100-2.666c-8.822 0-16 7.177-16 16 0 8.821 7.177 16 16 16z" fill="#D4C17F"/><path d="M22.667 27.998h.676L15.64 46.701a2.662 2.662 0 00-2.307 2.63A2.67 2.67 0 0016 51.999a2.67 2.67 0 002.667-2.666c0-.611-.214-1.166-.56-1.616l7.524-18.27 8.438 12.252a1.33 1.33 0 001.854.343c.608-.419.76-1.248.341-1.855L27.87 27.998h2.798c2.205 0 4-1.794 4-4s-1.795-4-4-4h-8c-.738 0-1.333.596-1.333 1.334v5.333c0 .736.595 1.333 1.333 1.333zM24 22.665h6.667a1.334 1.334 0 010 2.667H24v-2.667zm38.667 12c0 .736.596 1.333 1.333 1.333 7.352 0 13.333 5.98 13.333 13.334 0 7.352-5.981 13.333-13.333 13.333s-13.333-5.982-13.333-13.333c0-3.996 1.77-7.747 4.857-10.294a1.334 1.334 0 00-1.699-2.057A15.962 15.962 0 0048 49.331c0 8.822 7.177 16 16 16s16-7.178 16-16-7.177-16-16-16c-.737 0-1.333.597-1.333 1.334zM41.333 68.001H28a1.333 1.333 0 100 2.667h13.333a1.333 1.333 0 100-2.667z" fill="#D4C17F"/><path d="M41.333 42.854v-4.189a1.333 1.333 0 100-2.667h-2.666a1.333 1.333 0 100 2.667v4.19c-2.295.595-4 2.665-4 5.143 0 2.478 1.705 4.547 4 5.145v4.189a1.333 1.333 0 100 2.666h2.666a1.333 1.333 0 100-2.666v-4.19c2.295-.597 4-2.666 4-5.144s-1.705-4.548-4-5.144zM40 50.665a2.67 2.67 0 01-2.667-2.667A2.67 2.67 0 0140 45.332a2.67 2.67 0 012.667 2.666A2.67 2.67 0 0140 50.665zm21.945-3.013a2.646 2.646 0 00-.612 1.68A2.67 2.67 0 0064 51.998a2.67 2.67 0 002.667-2.666c0-1.32-.967-2.41-2.226-2.623l-6.017-16.044h9.519c1.596 0 2.524-1.276 2.698-2.405l1.332-6.667a1.331 1.331 0 00-1.306-1.595h-12a1.332 1.332 0 100 2.667H69.04l-1.019 5.101c-.02.092-.077.222-.078.232H57.424L53.25 16.864c-.002-.006-.006-.008-.007-.014-.003-.005-.002-.01-.003-.014l-2.667-6.667a1.334 1.334 0 00-2.477.99l2.43 6.068-5.015 8.776a1.331 1.331 0 001.156 1.995 1.33 1.33 0 001.158-.672l3.925-6.868 3.208 8.556-10.161 11.43a1.332 1.332 0 101.992 1.773l9.228-10.38 5.93 15.815zm16.722 20.349H57.333a1.333 1.333 0 100 2.667h21.334a1.333 1.333 0 100-2.667zm-26.667 0h-2.667a1.333 1.333 0 100 2.667H52A1.333 1.333 0 1052 68z" fill="#D4C17F"/></svg>