<svg width="23" height="20" fill="none" xmlns="http://www.w3.org/2000/svg"><g clip-path="url(#clip0_3_108)" fill="#fff"><path d="M15.378 0H7.376C3.693 0 .707 2.799.707 6.25v7.5c0 3.451 2.986 6.25 6.668 6.25h8.003c3.682 0 6.668-2.799 6.668-6.25v-7.5c0-3.451-2.986-6.25-6.668-6.25zm4.668 13.75c0 2.413-2.094 4.375-4.668 4.375H7.376c-2.575 0-4.668-1.962-4.668-4.375v-7.5c0-2.413 2.093-4.375 4.667-4.375h8.003c2.574 0 4.668 1.962 4.668 4.375v7.5z"/><path d="M11.377 5C8.43 5 6.042 7.239 6.042 10s2.388 5 5.335 5c2.946 0 5.334-2.239 5.334-5s-2.388-5-5.334-5zm0 8.125c-1.838 0-3.335-1.402-3.335-3.125 0-1.724 1.497-3.125 3.335-3.125 1.837 0 3.334 1.401 3.334 3.125 0 1.723-1.497 3.125-3.335 3.125zm5.734-7.834c.393 0 .711-.298.711-.666 0-.368-.318-.666-.71-.666-.393 0-.711.298-.711.666 0 .368.318.666.71.666z"/></g><defs><clipPath id="clip0_3_108"><path fill="#fff" transform="translate(.707)" d="M0 0h21.339v20H0z"/></clipPath></defs></svg>