<svg width="80" height="80" fill="none" xmlns="http://www.w3.org/2000/svg"><g clip-path="url(#clip0_3_2)" fill="#D4C17F"><path d="M73.333 45.333c.738 0 1.334-.597 1.334-1.333v-5.333c0-.736-.596-1.334-1.334-1.334h-6.666V36A1.333 1.333 0 1064 36v1.333H26.667V36A1.334 1.334 0 0024 36v1.333h-6.667c-.735 0-1.333.598-1.333 1.334V44c0 .736.598 1.333 1.333 1.333h56zm-54.666-2.666V40H72v2.667H18.667zM48 29.333c-2.156 0-3.55 1.639-3.701 1.827a1.326 1.326 0 00.188 1.861 1.34 1.34 0 001.874-.17c.006-.01.728-.85 1.639-.85.91 0 1.632.84 1.632.84a1.332 1.332 0 001.876.194 1.332 1.332 0 00.193-1.875c-.152-.188-1.545-1.827-3.701-1.827z"/><path d="M73.333 56c.738 0 1.334-.597 1.334-1.333v-5.334c0-.736-.596-1.333-1.334-1.333h-6.666v-1.333a1.333 1.333 0 10-2.667 0V48H26.667v-1.333a1.334 1.334 0 00-2.667 0V48h-6.667c-.735 0-1.333.597-1.333 1.333v5.334c0 .736.598 1.333 1.333 1.333h56zm-54.666-2.667v-2.666H72v2.666H18.667zm36.298-27.16a1.33 1.33 0 001.876.195 1.332 1.332 0 00.194-1.875c-.152-.188-1.546-1.826-3.702-1.826-2.156 0-3.55 1.638-3.701 1.826a1.326 1.326 0 00.188 1.862c.565.47 1.401.386 1.873-.17.007-.01.73-.852 1.64-.852.911 0 1.632.84 1.632.84zM1.34 17.467c.068.681.641 1.2 1.327 1.2h8c.685 0 1.258-.519 1.326-1.2l1.334-13.334A1.333 1.333 0 0012 2.667H8V1.333a1.334 1.334 0 00-2.666 0v1.334h-4A1.332 1.332 0 00.007 4.133L1.34 17.467zm9.187-12.134L9.46 16H3.873L2.807 5.333h7.72z"/><path d="M37.333 30.667c0 1.49.61 2.877 1.716 3.902a1.33 1.33 0 001.884-.07c.5-.54.47-1.385-.07-1.886A2.628 2.628 0 0140 30.667a2.67 2.67 0 011.75-2.491 1.336 1.336 0 00.445-2.23A2.628 2.628 0 0141.334 24c0-1.387 1.092-2.547 2.486-2.643a1.332 1.332 0 00.892-2.23A2.654 2.654 0 0144 17.333c0-1.386 1.092-2.546 2.485-2.642a1.332 1.332 0 00.892-2.231 2.66 2.66 0 01-.71-1.793c0-1.192.812-2.244 1.973-2.559a1.332 1.332 0 00.89-1.783 2.689 2.689 0 01-.197-.992A2.67 2.67 0 0152 2.667a2.67 2.67 0 012.667 2.666c0 .332-.067.666-.196.992a1.332 1.332 0 00.89 1.783 2.664 2.664 0 011.973 2.559 2.66 2.66 0 01-.711 1.793 1.334 1.334 0 00.892 2.23c1.393.097 2.485 1.257 2.485 2.643a2.66 2.66 0 01-.71 1.794 1.334 1.334 0 00.892 2.23c1.393.096 2.485 1.256 2.485 2.643 0 .74-.305 1.432-.863 1.947a1.335 1.335 0 00.447 2.229 2.67 2.67 0 011.75 2.49 1.333 1.333 0 102.666 0 5.334 5.334 0 00-1.979-4.129A5.26 5.26 0 0065.334 24c0-2.085-1.227-3.918-3.016-4.784a5.25 5.25 0 00.35-1.883c0-2.085-1.228-3.917-3.017-4.784a5.25 5.25 0 00.35-1.883 5.33 5.33 0 00-2.715-4.629A5.34 5.34 0 0052 0a5.339 5.339 0 00-5.285 6.037A5.33 5.33 0 0044 10.667c0 .648.12 1.285.35 1.882-1.79.867-3.017 2.699-3.017 4.784 0 .648.12 1.286.35 1.883-1.79.867-3.016 2.699-3.016 4.784 0 .903.224 1.768.645 2.538a5.333 5.333 0 00-1.979 4.129z"/><path d="M50.159 18.561a1.338 1.338 0 001.741-.72 2.06 2.06 0 01.1-.204c.038.067.072.136.097.199a1.335 1.335 0 002.472-1.004c-.148-.361-.96-2.165-2.569-2.165-1.608 0-2.421 1.804-2.57 2.165a1.33 1.33 0 00.729 1.73zm28.508 58.772H57.333a1.333 1.333 0 100 2.667h21.334a1.333 1.333 0 100-2.667zm0-18.666h-12v-1.334a1.333 1.333 0 10-2.667 0v1.334H26.667v-1.334a1.334 1.334 0 00-2.667 0v1.334H12c-.736 0-1.333.597-1.333 1.333v5.333c0 .736.597 1.334 1.333 1.334h4v6.666a1.334 1.334 0 002.667 0v-6.666H72v6.666a1.333 1.333 0 102.667 0v-6.666h4c.737 0 1.333-.598 1.333-1.334V60c0-.736-.596-1.333-1.333-1.333zM77.333 64h-64v-2.667h64V64z"/><path d="M20 77.333H8V22.667a1.334 1.334 0 00-2.667 0v54.666h-4a1.334 1.334 0 000 2.667H20a1.334 1.334 0 000-2.667zm32 0h-2.667a1.333 1.333 0 100 2.667H52a1.333 1.333 0 100-2.667zm-10.667 0H28A1.334 1.334 0 0028 80h13.333a1.333 1.333 0 100-2.667z"/></g><defs><clipPath id="clip0_3_2"><path fill="#fff" d="M0 0h80v80H0z"/></clipPath></defs></svg>