<svg width="80" height="80" fill="none" xmlns="http://www.w3.org/2000/svg"><g clip-path="url(#clip0_3_18)" fill="#D4C17F"><path d="M57.333 74.667H20c-.736 0-1.333.597-1.333 1.333v2.667a1.334 1.334 0 002.666 0v-1.334h36a1.334 1.334 0 000-2.666zm-28-41.334c0 .736.598 1.334 1.334 1.334H36c.736 0 1.333-.598 1.333-1.334v-8c0-.736-.597-1.333-1.333-1.333h-5.333c-.736 0-1.334.597-1.334 1.333v8zM32 26.667h2.667V32H32v-5.333zM17.333 16h-16C.597 16 0 16.597 0 17.333V44a1.334 1.334 0 002.667 0V18.667h14.666a1.334 1.334 0 000-2.667zM64 65.333c0 .736.597 1.334 1.333 1.334h5.334c.736 0 1.333-.598 1.333-1.334v-8c0-.736-.597-1.333-1.333-1.333h-5.334c-.736 0-1.333.597-1.333 1.333v8zm2.667-6.666h2.666V64h-2.666v-5.333zM6.667 48C.076 48 0 65.16 0 65.333c0 3.22 2.295 5.912 5.333 6.532v6.802a1.334 1.334 0 002.667 0v-6.802c3.038-.62 5.333-3.312 5.333-6.532 0-.173-.076-17.333-6.666-17.333zm0 21.333c-2.206 0-4-1.794-4-4 0-6.642 1.784-14.666 4-14.666s4 8.024 4 14.666c0 2.206-1.795 4-4 4zm8-29.333H9.333C8.597 40 8 40.597 8 41.333V44a1.334 1.334 0 002.667 0v-1.333h2.666v6.666a1.334 1.334 0 002.667 0v-8c0-.736-.597-1.333-1.333-1.333zm50.666-5.333h5.334c.736 0 1.333-.598 1.333-1.334v-8c0-.735-.597-1.333-1.333-1.333h-5.334c-.736 0-1.333.598-1.333 1.333v8c0 .736.597 1.334 1.333 1.334zm1.334-8h2.666V32h-2.666v-5.333z"/><path d="M14.667 24H9.333C8.597 24 8 24.597 8 25.333v8c0 .736.597 1.334 1.333 1.334h5.334c.736 0 1.333-.598 1.333-1.334v-8c0-.736-.597-1.333-1.333-1.333zm-1.334 8h-2.666v-5.333h2.666V32zm29.334 1.333c0 .736.597 1.334 1.333 1.334h5.333c.736 0 1.334-.598 1.334-1.334v-8c0-.736-.598-1.333-1.334-1.333H44c-.736 0-1.333.597-1.333 1.333v8zm2.666-6.666H48V32h-2.667v-5.333zM78.667 16h-16a1.334 1.334 0 000 2.667h14.666v53.578A3.946 3.946 0 0076 72c-.23 0-.46.02-.685.06a5.295 5.295 0 00-4.648-2.727 5.295 5.295 0 00-4.648 2.727A4.005 4.005 0 0061.334 76c0 2.205 1.794 4 4 4H76c2.205 0 4-1.795 4-4V17.333c0-.736-.597-1.333-1.333-1.333zM76 77.333H65.333A1.335 1.335 0 0164 76c0-.735.599-1.333 1.333-1.333.256 0 .499.073.723.217.365.235.821.277 1.224.115.403-.163.7-.512.797-.935A2.65 2.65 0 0170.667 72a2.65 2.65 0 012.59 2.064c.096.423.394.772.796.935.402.162.859.12 1.225-.115.867-.56 2.055.125 2.055 1.116 0 .735-.598 1.333-1.333 1.333zM44 18.667h5.333c.736 0 1.334-.598 1.334-1.334v-8c0-.735-.598-1.333-1.334-1.333H44c-.736 0-1.333.598-1.333 1.333v8c0 .736.597 1.334 1.333 1.334zm1.333-8H48V16h-2.667v-5.333zm-2.666 38.666c0 .736.597 1.334 1.333 1.334h5.333c.736 0 1.334-.598 1.334-1.334v-8c0-.736-.598-1.333-1.334-1.333H44c-.736 0-1.333.597-1.333 1.333v8zm2.666-6.666H48V48h-2.667v-5.333zm-14.666-24H36c.736 0 1.333-.598 1.333-1.334v-8C37.333 8.598 36.736 8 36 8h-5.333c-.736 0-1.334.598-1.334 1.333v8c0 .736.598 1.334 1.334 1.334zm1.333-8h2.667V16H32v-5.333zm7.053 53.72a1.4 1.4 0 00-.386.946c0 .347.146.694.386.947.254.24.6.387.947.387s.693-.147.947-.387a1.4 1.4 0 00.386-.947 1.4 1.4 0 00-.386-.946c-.507-.494-1.387-.494-1.894 0zm-9.72-15.054c0 .736.598 1.334 1.334 1.334H36c.736 0 1.333-.598 1.333-1.334v-8c0-.736-.597-1.333-1.333-1.333h-5.333c-.736 0-1.334.597-1.334 1.333v8zM32 42.667h2.667V48H32v-5.333z"/><path d="M26.667 57.333c0 .736.597 1.334 1.333 1.334h4v12a1.334 1.334 0 002.667 0v-12h10.666v12a1.334 1.334 0 002.667 0v-12h4A1.334 1.334 0 0052 56H28c-.736 0-1.333.597-1.333 1.333zm37.333-8c0 .736.597 1.334 1.333 1.334h5.334c.736 0 1.333-.598 1.333-1.334v-8c0-.736-.597-1.333-1.333-1.333h-5.334c-.736 0-1.333.597-1.333 1.333v8zm2.667-6.666h2.666V48h-2.666v-5.333z"/><path d="M57.333 0H22.667c-.736 0-1.334.597-1.334 1.333v69.334a1.334 1.334 0 002.667 0v-68h32v68a1.334 1.334 0 002.667 0V1.333C58.667.597 58.069 0 57.333 0z"/></g><defs><clipPath id="clip0_3_18"><path fill="#fff" d="M0 0h80v80H0z"/></clipPath></defs></svg>