<svg width="134" height="66" fill="none" xmlns="http://www.w3.org/2000/svg"><path d="M1.441 37V12.39H4.5v21.587h10.16V37H1.441zm15.188-5.203v-8.684c0-1.101.492-2.18 1.476-3.234 1.22-1.266 2.743-1.899 4.57-1.899v2.848c-1.382 0-2.343.574-2.882 1.723a2.475 2.475 0 00-.246 1.055v7.734c0 .867.398 1.605 1.195 2.215a3.137 3.137 0 001.934.633v2.847c-2.227 0-3.95-.902-5.168-2.707-.586-.89-.88-1.734-.88-2.531zm7.558 5.238v-2.847c1.243 0 2.133-.563 2.672-1.688.188-.375.282-.738.282-1.09v-7.805c0-.96-.41-1.722-1.23-2.285a3.204 3.204 0 00-1.759-.492V17.98c2.157 0 3.82.88 4.992 2.637.587.867.88 1.7.88 2.496v8.684c0 1.148-.493 2.262-1.477 3.34-1.149 1.242-2.602 1.875-4.36 1.898zm7.981-14.625v-2.883h2.32v-2.039c0-1.312.434-2.508 1.301-3.586.961-1.125 2.203-1.699 3.727-1.722h1.3l-.668 2.847h-.668c-1.335.07-2.015.891-2.039 2.461v2.075l2.391-.036v2.883h-2.39V37h-2.954V22.41h-2.32zm9.633-1.37v-2.85h2.32v-6.08h2.988v6.082h2.25v2.883h-2.25v10.09c0 1.664.68 2.59 2.04 2.777.257.047.515.07.773.07h.492L51.082 37h-1.266c-2.882-.023-4.652-1.102-5.308-3.234-.235-.797-.352-1.782-.352-2.953l-.035-9.774h-2.32zM52.664 37V12.39h3.059v10.723h3.164v2.989h-3.164V37h-3.059zm7.98-10.898v-2.989h3.13V12.391h3.093V37h-3.094V26.102h-3.129zm8.965 5.695v-8.684c0-1.101.493-2.18 1.477-3.234 1.219-1.266 2.742-1.899 4.57-1.899v2.848c-1.383 0-2.344.574-2.883 1.723a2.476 2.476 0 00-.246 1.055v7.734c0 .867.399 1.605 1.196 2.215a3.137 3.137 0 001.933.633v2.847c-2.226 0-3.949-.902-5.168-2.707-.586-.89-.879-1.734-.879-2.531zm7.559 5.238v-2.847c1.242 0 2.133-.563 2.672-1.688.187-.375.281-.738.281-1.09v-7.805c0-.96-.41-1.722-1.23-2.285a3.204 3.204 0 00-1.758-.492V17.98c2.156 0 3.82.88 4.992 2.637.586.867.879 1.7.879 2.496v8.684c0 1.148-.492 2.262-1.477 3.34-1.148 1.242-2.601 1.875-4.359 1.898zm8.508-5.097V18.015h2.988v13.57c0 .844.422 1.547 1.266 2.11a3.446 3.446 0 001.863.527v2.953c-2.25 0-3.984-.88-5.203-2.637-.61-.89-.914-1.758-.914-2.602zm7.664 5.238v-2.953c1.266 0 2.191-.504 2.777-1.512.211-.375.317-.75.317-1.125v-13.57h2.988v13.922c0 1.101-.504 2.19-1.512 3.269-1.219 1.29-2.742 1.945-4.57 1.969zm8.121-5.168l2.777-.528c0 1.055.551 1.887 1.653 2.497.539.257 1.054.398 1.547.421v2.778c-2.274 0-3.973-.82-5.098-2.461-.586-.867-.879-1.77-.879-2.707zm.176-8.649c0-2.132.972-3.715 2.918-4.746.937-.492 1.875-.738 2.812-.738v2.742c-1.078 0-1.91.445-2.496 1.336-.305.445-.457.914-.457 1.406 0 .75.586 1.36 1.758 1.828.89.375 2.613.868 5.168 1.477 1.594.328 2.73 1.113 3.41 2.355.352.657.527 1.395.527 2.215 0 2.25-.902 3.914-2.707 4.993-1.054.632-2.261.949-3.621.949v-2.778c1.078 0 1.981-.375 2.707-1.125.516-.539.774-1.171.774-1.898 0-.938-.926-1.688-2.778-2.25-.468-.14-1.218-.34-2.25-.598-1.101-.258-1.898-.468-2.39-.633-1.782-.703-2.86-1.769-3.235-3.199a6.192 6.192 0 01-.14-1.336zm7.277-2.707v-2.777c2.016 0 3.645.75 4.887 2.25.773.96 1.16 1.969 1.16 3.023l-2.777.457c0-1.289-.704-2.19-2.11-2.707-.422-.164-.808-.246-1.16-.246zm8.438 11.145v-8.719c.023-1.078.539-2.144 1.546-3.2 1.219-1.241 2.696-1.874 4.43-1.898v2.778c-1.125 0-2.004.492-2.637 1.476-.257.422-.386.809-.386 1.16v2.391h7.875v-2.39c0-1.055-.539-1.829-1.618-2.32a3.478 3.478 0 00-1.511-.352V17.98c1.617 0 3.058.574 4.324 1.722 1.055 1.008 1.594 2.121 1.617 3.34v5.59h-10.687v3.164c0 .656.375 1.265 1.125 1.828.609.422 1.254.633 1.933.633V37c-2.133 0-3.808-.867-5.027-2.602-.656-.914-.984-1.78-.984-2.601zM125.051 37v-2.777c1.406 0 2.461-.61 3.164-1.828a3.9 3.9 0 00.316-.739l2.496.914c-.422 1.617-1.382 2.836-2.882 3.657a6.447 6.447 0 01-3.094.773zM2.892 58.584L.348 54.48h.96l2.304 3.78h1.596v-3.78h.924v3.78h1.596l2.292-3.78h.972l-2.556 4.104L11.304 63h-.972l-2.484-3.996H6.132V63h-.924v-3.996H3.492L1.008 63H.036l2.856-4.416zm11.812 3.156l5.28-7.26h.696V63h-.84v-7.14L14.644 63h-.768v-8.52h.828v7.26zm11.508-5.004a28.924 28.924 0 01-.372 2.892c-.144.8-.328 1.456-.552 1.968-.216.504-.48.876-.792 1.116a1.729 1.729 0 01-1.08.348l-.144-.804c.16-.008.312-.04.456-.096.152-.056.296-.156.432-.3.136-.152.264-.356.384-.612.12-.264.232-.6.336-1.008.104-.416.196-.916.276-1.5a30.48 30.48 0 00.228-2.076l.18-2.184h4.332V63h-.828v-7.776h-2.736l-.12 1.512zm10.745 6.324c-.592 0-1.136-.12-1.632-.36a4.188 4.188 0 01-1.26-.972 4.494 4.494 0 01-.816-1.392 4.574 4.574 0 01.012-3.228c.208-.52.492-.98.852-1.38.36-.4.784-.716 1.272-.948a3.54 3.54 0 011.584-.36c.592 0 1.132.128 1.62.384a3.92 3.92 0 011.26.984c.352.408.624.872.816 1.392a4.443 4.443 0 01-.024 3.204c-.2.52-.48.98-.84 1.38a4.116 4.116 0 01-1.26.948 3.642 3.642 0 01-1.584.348zm-3.156-4.32c0 .464.076.912.228 1.344.152.424.368.804.648 1.14.28.328.612.592.996.792a2.83 2.83 0 001.284.288c.48 0 .916-.104 1.308-.312a3.19 3.19 0 00.996-.816c.272-.336.48-.716.624-1.14a3.814 3.814 0 00-.012-2.628 3.553 3.553 0 00-.648-1.14 3.148 3.148 0 00-.996-.78c-.384-.2-.808-.3-1.272-.3-.48 0-.916.104-1.308.312-.392.2-.724.468-.996.804a3.874 3.874 0 00-.636 1.14 4.005 4.005 0 00-.216 1.296zm15.456-6.732a1.16 1.16 0 01-.492.924c-.304.224-.728.336-1.272.336s-.972-.112-1.284-.336a1.17 1.17 0 01-.48-.924h.516c0 .104.032.204.096.3s.152.18.264.252c.112.072.244.132.396.18.152.04.32.06.504.06.344 0 .628-.072.852-.216.232-.152.364-.344.396-.576h.504zm-4.44 9.732l5.28-7.26h.696V63h-.84v-7.14L44.757 63h-.768v-8.52h.828v7.26zm14.915-3.48h1.296l2.784-3.78h.96l-2.988 4.104 3.3 4.416h-.96L61.1 59.004h-1.368V63h-.828v-8.52h.828v3.78zm10.922 4.8c-.591 0-1.135-.12-1.632-.36a4.188 4.188 0 01-1.26-.972 4.494 4.494 0 01-.816-1.392 4.574 4.574 0 01.013-3.228c.207-.52.492-.98.852-1.38.36-.4.783-.716 1.271-.948a3.54 3.54 0 011.585-.36c.591 0 1.132.128 1.62.384a3.92 3.92 0 011.26.984c.352.408.624.872.816 1.392a4.443 4.443 0 01-.025 3.204c-.2.52-.48.98-.84 1.38a4.116 4.116 0 01-1.26.948 3.642 3.642 0 01-1.584.348zM67.5 58.74c0 .464.076.912.228 1.344.151.424.367.804.647 1.14.28.328.613.592.997.792a2.83 2.83 0 001.284.288c.48 0 .915-.104 1.308-.312a3.19 3.19 0 00.996-.816c.272-.336.48-.716.623-1.14a3.814 3.814 0 00-.011-2.628 3.553 3.553 0 00-.648-1.14 3.148 3.148 0 00-.996-.78c-.385-.2-.809-.3-1.273-.3-.48 0-.915.104-1.307.312-.392.2-.724.468-.996.804a3.874 3.874 0 00-.636 1.14 4.005 4.005 0 00-.216 1.296zM85.222 63v-6.996l-3.108 5.412h-.492l-3.108-5.412V63h-.84v-8.52h.864l3.324 5.832 3.348-5.832h.852V63h-.84zm4.463-8.52h6.576V63h-.84v-7.776h-4.908V63h-.828v-8.52zm12.102 2.256a28.924 28.924 0 01-.372 2.892c-.144.8-.328 1.456-.552 1.968-.216.504-.48.876-.792 1.116a1.729 1.729 0 01-1.08.348l-.144-.804c.16-.008.312-.04.456-.096.152-.056.296-.156.432-.3.136-.152.264-.356.384-.612.12-.264.232-.6.336-1.008.104-.416.196-.916.276-1.5a30.48 30.48 0 00.228-2.076l.18-2.184h4.332V63h-.828v-7.776h-2.736l-.12 1.512zm13.037 5.52V63H109.1v-8.52h5.616v.744h-4.776v3.072h4.164v.708h-4.164v3.252h4.884zm3.868-3.996h1.296l2.784-3.78h.96l-2.988 4.104 3.3 4.416h-.96l-3.024-3.996h-1.368V63h-.828v-8.52h.828v3.78zm6.915.42c0-.512.088-1.02.264-1.524.184-.512.448-.968.792-1.368a3.96 3.96 0 011.272-.972c.504-.256 1.076-.384 1.716-.384.76 0 1.408.172 1.944.516.544.344.944.792 1.2 1.344l-.66.408a2.457 2.457 0 00-.504-.708 2.654 2.654 0 00-.624-.468 2.51 2.51 0 00-.696-.252 3.109 3.109 0 00-.708-.084c-.512 0-.964.104-1.356.312a3.19 3.19 0 00-.996.816 3.615 3.615 0 00-.6 1.14c-.136.416-.204.84-.204 1.272 0 .472.08.924.24 1.356.168.432.392.816.672 1.152.288.328.624.592 1.008.792.392.192.816.288 1.272.288.24 0 .484-.028.732-.084a3.03 3.03 0 001.392-.78c.2-.2.368-.44.504-.72l.696.36c-.136.32-.328.604-.576.852-.248.24-.524.444-.828.612a4.103 4.103 0 01-.972.384 3.92 3.92 0 01-.996.132c-.584 0-1.12-.128-1.608-.384a4.262 4.262 0 01-1.26-.996 4.854 4.854 0 01-.828-1.404 4.673 4.673 0 01-.288-1.608z" fill="#fff"/></svg>