<svg width="25" height="25" viewBox="0 0 25 25" fill="none" xmlns="http://www.w3.org/2000/svg">
<g clip-path="url(#clip0_107_824)">
<path d="M24.9999 5.52804C24.0652 5.94443 23.0726 6.21628 22.0562 6.33429C23.1268 5.69262 23.9284 4.68447 24.3124 3.49679C23.3054 4.09349 22.2043 4.5146 21.0562 4.7421C20.5757 4.23077 19.9954 3.82354 19.3512 3.54563C18.7069 3.26772 18.0125 3.12506 17.3108 3.12648C16.538 3.12567 15.775 3.29966 15.0789 3.63542C14.3828 3.97118 13.7717 4.46003 13.2912 5.06537C12.8108 5.67071 12.4734 6.37688 12.3045 7.13102C12.1355 7.88516 12.1393 8.66775 12.3155 9.42023C10.276 9.31775 8.28083 8.78751 6.45952 7.86394C4.63822 6.94036 3.03149 5.6441 1.74365 4.05929C1.08763 5.18795 0.88646 6.52421 1.18111 7.79599C1.47576 9.06777 2.24407 10.1794 3.32959 10.9046C2.51498 10.8783 1.71821 10.6593 1.00459 10.2655V10.3296C1.00431 11.5143 1.41406 12.6625 2.16428 13.5793C2.9145 14.4962 3.95893 15.1251 5.12021 15.3593C4.36368 15.5655 3.57001 15.596 2.7999 15.4484C3.12858 16.4669 3.76668 17.3575 4.62535 17.9964C5.48402 18.6352 6.52052 18.9904 7.59053 19.0124C6.52613 19.8486 5.30722 20.4666 4.00363 20.8309C2.70003 21.1953 1.33736 21.2989 -0.00634766 21.1359C2.33954 22.6441 5.0704 23.4442 7.85928 23.4405C17.2921 23.4405 22.4546 15.6233 22.4546 8.84523C22.4546 8.62023 22.4499 8.40148 22.4405 8.18116C23.4456 7.45827 24.3121 6.56004 24.9983 5.5296L24.9999 5.52804Z" fill="#111111"/>
</g>
<defs>
<clipPath id="clip0_107_824">
<rect width="25" height="25" fill="white"/>
</clipPath>
</defs>
</svg>
