<svg width="25" height="25" viewBox="0 0 25 25" fill="none" xmlns="http://www.w3.org/2000/svg">
<path d="M22.6562 0H2.34375C1.05469 0 0 1.05469 0 2.34375V22.6562C0 23.9453 1.05469 25 2.34375 25H22.6562C23.9453 25 25 23.9453 25 22.6562V2.34375C25 1.05469 23.9453 0 22.6562 0ZM17.1875 3.90625C17.1875 3.47656 17.5391 3.125 17.9688 3.125H21.0938C21.5234 3.125 21.875 3.47656 21.875 3.90625V7.03125C21.875 7.46094 21.5234 7.8125 21.0938 7.8125H17.9688C17.7617 7.81209 17.5632 7.72964 17.4168 7.58322C17.2704 7.4368 17.1879 7.23832 17.1875 7.03125V3.90625ZM12.5 7.8125C13.7222 7.84406 14.8838 8.35177 15.7371 9.22741C16.5905 10.103 17.068 11.2773 17.068 12.5C17.068 13.7227 16.5905 14.897 15.7371 15.7726C14.8838 16.6482 13.7222 17.1559 12.5 17.1875C11.2778 17.1559 10.1162 16.6482 9.26285 15.7726C8.40953 14.897 7.93198 13.7227 7.93198 12.5C7.93198 11.2773 8.40953 10.103 9.26285 9.22741C10.1162 8.35177 11.2778 7.84406 12.5 7.8125V7.8125ZM21.875 21.0938C21.875 21.5234 21.5234 21.875 21.0938 21.875H3.90625C3.69918 21.8746 3.5007 21.7921 3.35428 21.6457C3.20786 21.4993 3.12541 21.3008 3.125 21.0938V10.9375H4.84375C4.61173 12.0727 4.63519 13.2454 4.91243 14.3705C5.18967 15.4955 5.71374 16.5448 6.44667 17.4423C7.1796 18.3397 8.10301 19.0629 9.14999 19.5593C10.197 20.0557 11.3413 20.313 12.5 20.3125C13.6587 20.313 14.803 20.0557 15.85 19.5593C16.897 19.0629 17.8204 18.3397 18.5533 17.4423C19.2863 16.5448 19.8103 15.4955 20.0876 14.3705C20.3648 13.2454 20.3883 12.0727 20.1562 10.9375H21.875V21.0938Z" fill="#111111"/>
</svg>
