<svg width="58" height="45" viewBox="0 0 58 45" fill="none" xmlns="http://www.w3.org/2000/svg">
<path d="M44.686 45C40.8091 45 37.6464 43.6364 35.1979 40.9091C32.7493 38.1818 31.5251 34.4445 31.5251 29.697C31.5251 23.2323 33.5145 17.3232 37.4934 11.9697C41.5743 6.61616 48.4099 2.62626 58 0V7.27273C54.9393 8.28283 52.3377 9.39394 50.1952 10.6061C48.1548 11.7172 46.6245 13.0303 45.6042 14.5455C44.584 15.9596 44.0739 17.6768 44.0739 19.697C44.0739 20.9091 44.431 21.8687 45.1451 22.5758C45.9613 23.2828 46.9305 23.9394 48.0528 24.5455C49.175 25.1515 50.2463 25.8586 51.2665 26.6667C52.3887 27.4747 53.3069 28.5354 54.0211 29.8485C54.8373 31.1616 55.2454 32.9293 55.2454 35.1515C55.2454 38.2828 54.2252 40.7071 52.1847 42.4242C50.2463 44.1414 47.7467 45 44.686 45ZM13.161 45C9.28408 45 6.12137 43.6364 3.67282 40.9091C1.22427 38.1818 0 34.4445 0 29.697C0 23.2323 1.98945 17.3232 5.96834 11.9697C10.0493 6.61616 16.8848 2.62626 26.4749 0V7.27273C23.4142 8.28283 20.8637 9.39394 18.8232 10.6061C16.7828 11.7172 15.2524 13.0303 14.2322 14.5455C13.212 15.9596 12.7018 17.6768 12.7018 19.697C12.7018 20.9091 13.0589 21.8687 13.7731 22.5758C14.5893 23.2828 15.5075 23.9394 16.5277 24.5455C17.65 25.1515 18.7722 25.8586 19.8945 26.6667C21.0167 27.4747 21.9349 28.5354 22.6491 29.8485C23.4653 31.1616 23.8734 32.9293 23.8734 35.1515C23.8734 38.2828 22.8531 40.7071 20.8127 42.4242C18.7722 44.1414 16.2216 45 13.161 45Z" fill="black"/>
</svg>
