<svg width="60" height="60" viewBox="0 0 60 60" fill="none" xmlns="http://www.w3.org/2000/svg">
<path d="M48.97 38.73L44.435 35.505C45.1967 32.7045 45.1923 29.7508 44.4225 26.9525L48.9725 23.7675L45.34 17.4825L40.28 19.7975C38.2348 17.7376 35.674 16.2646 32.865 15.5325L32.3825 10H25.1175L24.635 15.5325C21.8266 16.2656 19.2667 17.7395 17.2225 19.8L12.16 17.485L8.53002 23.77L13.08 26.955C12.3098 29.7523 12.3046 32.7051 13.065 35.505L8.53002 38.73L12.16 44.985L17.2225 42.6675C19.267 44.7272 21.8269 46.2001 24.635 46.9325L25.1175 52.465H32.3825L32.865 46.9325C35.6731 46.2 38.233 44.7271 40.2775 42.6675L45.34 44.985L48.9725 38.7325L48.97 38.73ZM33.7625 7.46253C34.0843 7.46218 34.3938 7.58596 34.6267 7.80808C34.8595 8.03021 34.9977 8.33357 35.0125 8.65503L35.4575 13.7425C37.3056 14.4468 39.0297 15.4409 40.565 16.6875L45.19 14.53C45.4757 14.383 45.8069 14.3517 46.1151 14.4425C46.4233 14.5332 46.6847 14.7392 46.845 15.0175L51.8575 23.6925C52.0186 23.9706 52.0663 24.3 51.9909 24.6124C51.9155 24.9247 51.7227 25.1961 51.4525 25.37L47.2675 28.3C47.5875 30.295 47.5775 32.2825 47.27 34.1975L51.4525 37.1225C51.7234 37.2965 51.9166 37.5683 51.9921 37.8813C52.0675 38.1942 52.0193 38.5242 51.8575 38.8025L46.845 47.445C46.6847 47.7234 46.4233 47.9293 46.1151 48.0201C45.8069 48.1109 45.4757 48.0795 45.19 47.9325L40.565 45.775C39.06 47 37.345 48 35.4575 48.7225L35.0125 53.81C34.9971 54.131 34.8586 54.4338 34.6258 54.6554C34.3931 54.877 34.0839 55.0004 33.7625 55H23.7375C23.4161 55.0004 23.107 54.877 22.8742 54.6554C22.6414 54.4338 22.5029 54.131 22.4875 53.81L22.0425 48.7225C20.1944 48.0174 18.4703 47.0224 16.935 45.775L12.31 47.9325C12.0244 48.0805 11.6928 48.1126 11.384 48.0223C11.0753 47.932 10.8133 47.7261 10.6525 47.4475L5.64252 38.8C5.48146 38.522 5.43368 38.1925 5.5091 37.8802C5.58451 37.5678 5.77733 37.2965 6.04752 37.1225L10.23 34.195C9.91681 32.2417 9.91681 30.2509 10.23 28.2975L6.05002 25.37C5.78049 25.1961 5.58813 24.9252 5.51275 24.6135C5.43736 24.3017 5.48472 23.9729 5.64502 23.695L10.65 15.0175C10.8104 14.7385 11.0722 14.5321 11.381 14.4413C11.6897 14.3505 12.0216 14.3823 12.3075 14.53L16.9325 16.6875C18.4679 15.4409 20.192 14.4468 22.04 13.7425L22.485 8.65503C22.4998 8.33357 22.638 8.03021 22.8709 7.80808C23.1037 7.58596 23.4132 7.46218 23.735 7.46253H33.76H33.7625ZM28.75 22.5C31.0707 22.5 33.2963 23.4219 34.9372 25.0628C36.5781 26.7038 37.5 28.9294 37.5 31.25C37.5 33.5707 36.5781 35.7963 34.9372 37.4372C33.2963 39.0782 31.0707 40 28.75 40C26.4294 40 24.2038 39.0782 22.5628 37.4372C20.9219 35.7963 20 33.5707 20 31.25C20 28.9294 20.9219 26.7038 22.5628 25.0628C24.2038 23.4219 26.4294 22.5 28.75 22.5ZM28.75 25C27.0924 25 25.5027 25.6585 24.3306 26.8306C23.1585 28.0027 22.5 29.5924 22.5 31.25C22.5 32.9076 23.1585 34.4973 24.3306 35.6694C25.5027 36.8415 27.0924 37.5 28.75 37.5C30.4076 37.5 31.9973 36.8415 33.1694 35.6694C34.3415 34.4973 35 32.9076 35 31.25C35 29.5924 34.3415 28.0027 33.1694 26.8306C31.9973 25.6585 30.4076 25 28.75 25Z" fill="#1ABC9C"/>
</svg>
