<svg width="60" height="60" viewBox="0 0 60 60" fill="none" xmlns="http://www.w3.org/2000/svg">
<path d="M17.5 55C17.5 52.3478 18.5536 49.8043 20.4289 47.9289C22.3043 46.0536 24.8478 45 27.5 45V42.5C24.6186 42.4996 21.8258 41.5043 19.5937 39.6821C17.3616 37.86 15.8272 35.323 15.25 32.5H12.5C10.5109 32.5 8.60322 31.7098 7.1967 30.3033C5.79018 28.8968 5 26.9891 5 25V12.5H10C11.92 12.5 13.675 13.2225 15 14.41V7.5H42.5V14.41C43.8737 13.1778 45.6547 12.4975 47.5 12.5H52.5V25C52.5 26.9891 51.7098 28.8968 50.3033 30.3033C48.8968 31.7098 46.9891 32.5 45 32.5H42.25C41.6728 35.323 40.1384 37.86 37.9063 39.6821C35.6742 41.5043 32.8814 42.4996 30 42.5V45C32.6522 45 35.1957 46.0536 37.0711 47.9289C38.9464 49.8043 40 52.3478 40 55H17.5ZM30 47.5H27.5C25.9485 47.4996 24.4349 47.9802 23.1679 48.8756C21.9008 49.7711 20.9425 51.0373 20.425 52.5H37.075C36.5575 51.0373 35.5992 49.7711 34.3321 48.8756C33.0651 47.9802 31.5515 47.4996 30 47.5ZM40 10H17.5V30C17.5 32.6522 18.5536 35.1957 20.4289 37.0711C22.3043 38.9464 24.8478 40 27.5 40H30C32.6522 40 35.1957 38.9464 37.0711 37.0711C38.9464 35.1957 40 32.6522 40 30V10ZM50 25V15H47.5C46.1739 15 44.9021 15.5268 43.9645 16.4645C43.0268 17.4021 42.5 18.6739 42.5 20V30H45C46.3261 30 47.5979 29.4732 48.5355 28.5355C49.4732 27.5979 50 26.3261 50 25ZM7.5 25C7.5 26.3261 8.02678 27.5979 8.96447 28.5355C9.90215 29.4732 11.1739 30 12.5 30H15V20C15 18.6739 14.4732 17.4021 13.5355 16.4645C12.5979 15.5268 11.3261 15 10 15H7.5V25Z" fill="#1ABC9C"/>
</svg>
