<svg width="58" height="45" viewBox="0 0 58 45" fill="none" xmlns="http://www.w3.org/2000/svg">
<path d="M13.314 -3.90658e-06C17.1909 -3.56765e-06 20.3536 1.36363 22.8021 4.0909C25.2507 6.81818 26.4749 10.5555 26.4749 15.303C26.4749 21.7677 24.4855 27.6768 20.5066 33.0303C16.4257 38.3838 9.59015 42.3737 -3.8147e-06 45L-3.17889e-06 37.7273C3.06068 36.7172 5.66227 35.6061 7.80475 34.3939C9.84521 33.2828 11.3756 31.9697 12.3958 30.4545C13.416 29.0404 13.9261 27.3232 13.9261 25.303C13.9261 24.0909 13.569 23.1313 12.8549 22.4242C12.0387 21.7172 11.0695 21.0606 9.94723 20.4545C8.82498 19.8485 7.75374 19.1414 6.73351 18.3333C5.61126 17.5252 4.69305 16.4646 3.9789 15.1515C3.16271 13.8384 2.75461 12.0707 2.75462 9.84848C2.75462 6.71717 3.77485 4.29293 5.81531 2.57575C7.75374 0.858581 10.2533 -4.17415e-06 13.314 -3.90658e-06ZM44.8391 -1.15057e-06C48.7159 -8.1164e-07 51.8786 1.36364 54.3272 4.09091C56.7757 6.81818 58 10.5555 58 15.303C58 21.7677 56.0106 27.6768 52.0317 33.0303C47.9507 38.3838 41.1152 42.3737 31.5251 45L31.5251 37.7273C34.5858 36.7172 37.1363 35.6061 39.1768 34.3939C41.2172 33.2828 42.7476 31.9697 43.7678 30.4545C44.788 29.0404 45.2982 27.3232 45.2982 25.303C45.2982 24.0909 44.9411 23.1313 44.2269 22.4242C43.4107 21.7172 42.4925 21.0606 41.4723 20.4545C40.35 19.8485 39.2278 19.1414 38.1055 18.3333C36.9833 17.5252 36.0651 16.4646 35.3509 15.1515C34.5347 13.8384 34.1267 12.0707 34.1267 9.84848C34.1267 6.71717 35.1469 4.29293 37.1873 2.57575C39.2278 0.858584 41.7784 -1.41814e-06 44.8391 -1.15057e-06Z" fill="black"/>
</svg>
