<svg width="60" height="60" viewBox="0 0 60 60" fill="none" xmlns="http://www.w3.org/2000/svg">
<path d="M53.1562 14.3437L45.6562 6.84371C45.571 6.75582 45.469 6.68594 45.3563 6.63822C45.2436 6.59051 45.1224 6.56592 45 6.56592C44.8776 6.56592 44.7564 6.59051 44.6437 6.63822C44.531 6.68594 44.429 6.75582 44.3437 6.84371L21.8437 29.3437C21.7517 29.4259 21.6789 29.5272 21.6303 29.6406C21.5817 29.754 21.5586 29.8767 21.5625 30V37.5C21.5625 37.7486 21.6613 37.9871 21.8371 38.1629C22.0129 38.3387 22.2514 38.4375 22.5 38.4375H30C30.1233 38.4414 30.246 38.4183 30.3593 38.3697C30.4727 38.3211 30.5741 38.2482 30.6562 38.1562L53.1562 15.6562C53.2441 15.571 53.314 15.469 53.3617 15.3563C53.4094 15.2435 53.434 15.1224 53.434 15C53.434 14.8775 53.4094 14.7564 53.3617 14.6436C53.314 14.5309 53.2441 14.4289 53.1562 14.3437ZM29.6016 36.5625H23.4375V30.3984L39.375 14.4609L45.5391 20.625L29.6016 36.5625ZM46.875 19.289L40.7109 13.125L45 8.83589L51.1641 15L46.875 19.289ZM51.5625 28.125V48.75C51.5625 49.4959 51.2662 50.2112 50.7387 50.7387C50.2113 51.2661 49.4959 51.5625 48.75 51.5625H11.25C10.5041 51.5625 9.78871 51.2661 9.26126 50.7387C8.73382 50.2112 8.4375 49.4959 8.4375 48.75V11.25C8.4375 10.504 8.73382 9.78866 9.26126 9.26122C9.78871 8.73377 10.5041 8.43746 11.25 8.43746H31.875C32.1236 8.43746 32.3621 8.53623 32.5379 8.71204C32.7137 8.88786 32.8125 9.12631 32.8125 9.37496C32.8125 9.6236 32.7137 9.86205 32.5379 10.0379C32.3621 10.2137 32.1236 10.3125 31.875 10.3125H11.25C11.0014 10.3125 10.7629 10.4112 10.5871 10.587C10.4113 10.7629 10.3125 11.0013 10.3125 11.25V48.75C10.3125 48.9986 10.4113 49.2371 10.5871 49.4129C10.7629 49.5887 11.0014 49.6875 11.25 49.6875H48.75C48.9986 49.6875 49.2371 49.5887 49.4129 49.4129C49.5887 49.2371 49.6875 48.9986 49.6875 48.75V28.125C49.6875 27.8763 49.7863 27.6379 49.9621 27.462C50.1379 27.2862 50.3764 27.1875 50.625 27.1875C50.8736 27.1875 51.1121 27.2862 51.2879 27.462C51.4637 27.6379 51.5625 27.8763 51.5625 28.125Z" fill="#1ABC9C"/>
</svg>
