<svg width="25" height="25" viewBox="0 0 25 25" fill="none" xmlns="http://www.w3.org/2000/svg">
<path d="M9.375 9.375H13.6984V11.5906H13.7609C14.3625 10.5109 15.8344 9.375 18.0297 9.375C22.5937 9.375 23.4375 12.2156 23.4375 15.9109V23.4375H18.9297V16.7656C18.9297 15.175 18.8969 13.1266 16.5859 13.1266C14.2391 13.1266 13.8797 14.8594 13.8797 16.65V23.4375H9.375V9.375Z" fill="#111111"/>
<path d="M1.5625 9.375H6.25V23.4375H1.5625V9.375Z" fill="#111111"/>
<path d="M6.2501 5.46885C6.24989 6.09066 6.00268 6.68691 5.56285 7.12645C5.12302 7.56599 4.52659 7.81281 3.90479 7.8126C3.28298 7.81239 2.68672 7.56518 2.24718 7.12535C1.80764 6.68552 1.56083 6.08909 1.56104 5.46729C1.56124 4.84548 1.80845 4.24922 2.24828 3.80968C2.46607 3.59204 2.72458 3.41943 3.00908 3.3017C3.29357 3.18397 3.59846 3.12343 3.90635 3.12354C4.21424 3.12364 4.51909 3.18438 4.8035 3.3023C5.08791 3.42022 5.34632 3.593 5.56395 3.81079C5.78159 4.02857 5.9542 4.28708 6.07193 4.57158C6.18966 4.85607 6.2502 5.16096 6.2501 5.46885V5.46885Z" fill="#111111"/>
</svg>
