<svg width="95" height="95" fill="none" xmlns="http://www.w3.org/2000/svg"><path d="M37.604 65.313L65.313 47.5 37.604 29.688v35.625zm9.896 21.77c-5.476 0-10.621-1.04-15.437-3.119-4.816-2.08-9.006-4.899-12.568-8.459-3.563-3.562-6.382-7.751-8.46-12.567C8.96 58.122 7.92 52.976 7.918 47.5c0-5.476 1.04-10.621 3.119-15.437 2.08-4.816 4.899-9.006 8.459-12.568 3.562-3.563 7.752-6.382 12.568-8.46C36.879 8.96 42.024 7.92 47.5 7.918c5.476 0 10.622 1.04 15.438 3.119 4.816 2.08 9.005 4.899 12.567 8.459 3.563 3.562 6.384 7.752 8.463 12.568 2.08 4.816 3.118 9.961 3.115 15.437 0 5.476-1.04 10.622-3.119 15.438-2.08 4.816-4.899 9.005-8.459 12.567-3.562 3.563-7.751 6.384-12.567 8.463-4.816 2.08-9.962 3.118-15.438 3.115z" fill="#BDBDBD" fill-opacity=".87"/></svg>